<svg width="380" height="74" viewBox="0 0 380 74" fill="none" xmlns="http://www.w3.org/2000/svg">
<path d="M10.392 56.144C10.008 56.288 9.504 56.384 8.88 56.432C8.304 56.528 7.704 56.576 7.08 56.576C5.88 56.576 4.872 56.36 4.056 55.928C3.288 55.448 2.688 54.752 2.256 53.84C1.872 52.88 1.68 51.68 1.68 50.24C1.68 47.216 1.68 44.168 1.68 41.096C1.68 37.976 1.68 34.88 1.68 31.808C1.68 28.688 1.68 25.592 1.68 22.52C1.68 19.448 1.68 16.376 1.68 13.304C1.68 12.056 1.608 10.76 1.464 9.416C1.368 8.072 1.176 6.752 0.888 5.456C1.512 5.36 2.136 5.264 2.76 5.168C3.384 5.072 4.008 5.024 4.632 5.024C5.256 4.976 5.904 4.952 6.576 4.952C8.256 4.952 9.576 5.12 10.536 5.456C11.496 5.792 12.264 6.392 12.84 7.256C13.464 8.072 14.016 9.248 14.496 10.784C15.216 12.752 15.912 14.672 16.584 16.544C17.304 18.416 18.048 20.288 18.816 22.16C19.584 23.984 20.4 25.808 21.264 27.632C22.176 29.456 23.16 31.304 24.216 33.176C25.272 35.048 26.424 36.968 27.672 38.936C28.92 40.904 30.288 42.92 31.776 44.984L28.752 43.472H33.144L31.344 45.2C31.2 43.424 31.08 41.696 30.984 40.016C30.888 38.336 30.792 36.656 30.696 34.976C30.648 33.296 30.6 31.568 30.552 29.792C30.504 28.016 30.48 26.192 30.48 24.32C30.48 22.4 30.48 20.36 30.48 18.2C30.48 16.04 30.48 13.904 30.48 11.792C30.48 9.632 30.48 7.496 30.48 5.384C30.816 5.24 31.248 5.144 31.776 5.096C32.352 5 33.048 4.952 33.864 4.952C35.928 4.952 37.32 5.384 38.04 6.248C38.76 7.112 39.12 8.552 39.12 10.568C39.12 13.64 39.12 16.736 39.12 19.856C39.12 22.976 39.12 26.12 39.12 29.288C39.12 32.408 39.12 35.552 39.12 38.72C39.12 41.888 39.12 45.08 39.12 48.296C39.12 49.592 39.168 50.912 39.264 52.256C39.36 53.552 39.528 54.848 39.768 56.144C39.432 56.24 39.048 56.336 38.616 56.432C38.232 56.528 37.8 56.6 37.32 56.648C36.888 56.696 36.384 56.72 35.808 56.72C34.224 56.72 32.952 56.528 31.992 56.144C31.08 55.808 30.144 55.136 29.184 54.128C27.552 52.448 25.824 50.36 24 47.864C22.176 45.368 20.352 42.512 18.528 39.296C16.704 36.08 14.952 32.6 13.272 28.856C11.592 25.064 10.128 21.104 8.88 16.976L11.472 19.208H7.512L8.952 16.976C9.144 19.568 9.312 22.064 9.456 24.464C9.648 26.864 9.792 29.216 9.888 31.52C10.032 33.824 10.128 36.08 10.176 38.288C10.272 40.496 10.32 42.656 10.32 44.768C10.368 46.88 10.392 48.992 10.392 51.104C10.392 52.016 10.392 52.904 10.392 53.768C10.392 54.584 10.392 55.376 10.392 56.144ZM67.3001 16.4C70.6121 16.4 73.3961 17.072 75.6521 18.416C77.9561 19.76 79.7081 21.608 80.9081 23.96C82.1561 26.264 82.7801 28.952 82.7801 32.024V32.312C82.7801 34.088 82.6601 35.48 82.4201 36.488C82.2281 37.448 81.9401 38.12 81.5561 38.504C81.1721 38.888 80.7161 39.08 80.1881 39.08H63.1241C61.8761 39.08 60.7481 38.936 59.7401 38.648C58.7321 38.312 57.9161 37.856 57.2921 37.28L55.8521 38L56.0681 33.752H73.9241C74.0681 33.32 74.1401 32.864 74.1401 32.384C74.1881 31.904 74.2121 31.472 74.2121 31.088C74.2121 29.792 74.0681 28.616 73.7801 27.56C73.4921 26.456 73.0121 25.448 72.3401 24.536C71.6681 24.296 71.0201 24.128 70.3961 24.032C69.8201 23.936 69.0041 23.888 67.9481 23.888C64.6361 23.888 61.9481 25.184 59.8841 27.776C57.8681 30.32 56.8601 34.208 56.8601 39.44V39.944C56.8601 41.384 56.9801 42.704 57.2201 43.904C57.5081 45.056 57.8921 46.112 58.3721 47.072C59.6201 47.744 60.9881 48.248 62.4761 48.584C63.9641 48.872 65.7881 49.016 67.9481 49.016C69.6281 49.016 71.2121 48.896 72.7001 48.656C74.1881 48.416 75.6041 48.032 76.9481 47.504C78.3401 46.976 79.6841 46.304 80.9801 45.488H81.4121C81.5081 45.872 81.5561 46.256 81.5561 46.64C81.6041 47.024 81.6281 47.432 81.6281 47.864C81.6281 49.256 81.4361 50.408 81.0521 51.32C80.7161 52.232 80.2121 53.024 79.5401 53.696C78.7721 54.464 77.7641 55.112 76.5161 55.64C75.3161 56.12 73.9721 56.456 72.4841 56.648C71.0441 56.888 69.5081 57.008 67.8761 57.008C64.9961 57.008 62.3561 56.576 59.9561 55.712C57.5561 54.848 55.4681 53.6 53.6921 51.968C51.9641 50.336 50.5961 48.368 49.5881 46.064C48.6281 43.712 48.1481 41.072 48.1481 38.144V37.64C48.1481 34.376 48.6281 31.448 49.5881 28.856C50.5481 26.264 51.8921 24.056 53.6201 22.232C55.3481 20.36 57.3881 18.92 59.7401 17.912C62.0921 16.904 64.6121 16.4 67.3001 16.4ZM96.72 48.44C96.72 47.144 96.72 45.776 96.72 44.336C96.72 42.848 96.72 41.336 96.72 39.8C96.72 38.264 96.72 36.704 96.72 35.12C96.72 33.536 96.72 31.976 96.72 30.44C96.72 28.904 96.72 27.44 96.72 26.048L96.36 25.904C96.072 26.048 95.784 26.216 95.496 26.408C95.208 26.552 94.896 26.672 94.56 26.768C94.272 26.816 93.96 26.888 93.624 26.984C93.288 27.032 92.952 27.056 92.616 27.056C91.656 27.056 90.888 26.6 90.312 25.688C89.784 24.776 89.52 23.432 89.52 21.656C89.52 20.936 89.568 20.216 89.664 19.496C89.76 18.728 89.88 18.032 90.024 17.408C90.552 17.312 91.056 17.24 91.536 17.192C92.016 17.096 92.496 17.024 92.976 16.976C93.504 16.928 94.008 16.88 94.488 16.832C95.016 16.784 95.52 16.76 96 16.76C96.528 16.712 97.032 16.688 97.512 16.688C99.048 16.688 100.416 16.88 101.616 17.264C102.816 17.648 103.752 18.248 104.424 19.064C105.096 19.88 105.432 20.96 105.432 22.304C105.432 24.176 105.432 26.144 105.432 28.208C105.432 30.224 105.432 32.288 105.432 34.4C105.432 36.464 105.432 38.504 105.432 40.52C105.432 42.536 105.432 44.456 105.432 46.28C105.432 47.528 105.456 48.656 105.504 49.664C105.6 50.624 105.744 51.608 105.936 52.616C106.128 53.576 106.392 54.704 106.728 56C106.152 56.096 105.6 56.168 105.072 56.216C104.592 56.312 104.064 56.36 103.488 56.36C101.04 56.36 99.288 55.808 98.232 54.704C97.224 53.552 96.72 51.464 96.72 48.44ZM94.704 1.784C95.04 1.64 95.424 1.52 95.856 1.424C96.336 1.328 96.816 1.232 97.296 1.136C97.776 1.04 98.28 0.967996 98.808 0.919997C99.384 0.871997 99.912 0.847998 100.392 0.847998C102.36 0.847998 103.944 1.184 105.144 1.856C106.344 2.528 106.944 3.68 106.944 5.312V10.064C106.608 10.208 106.224 10.328 105.792 10.424C105.408 10.52 105 10.616 104.568 10.712C104.136 10.808 103.68 10.88 103.2 10.928C102.768 10.976 102.312 11 101.832 11C99.768 11 98.064 10.52 96.72 9.56C95.376 8.6 94.704 7.328 94.704 5.744V1.784ZM122.54 51.104C122.54 50.144 122.708 49.232 123.044 48.368C123.38 47.504 123.884 46.712 124.556 45.992C125.228 45.272 126.068 44.696 127.076 44.264V43.184L132.26 43.544C131.684 44.264 131.252 45.056 130.964 45.92C130.724 46.736 130.604 47.6 130.604 48.512C130.604 49.232 130.82 49.832 131.252 50.312C131.732 50.744 132.452 51.008 133.412 51.104L142.556 51.752C144.428 51.848 146.06 52.28 147.452 53.048C148.892 53.816 149.996 54.848 150.764 56.144C151.532 57.44 151.916 58.952 151.916 60.68V61.616C151.916 63.44 151.484 65.12 150.62 66.656C149.804 68.192 148.508 69.488 146.732 70.544C144.956 71.648 142.7 72.488 139.964 73.064C137.276 73.688 134.06 74 130.316 74H128.876C125.66 74 122.948 73.592 120.74 72.776C118.532 72.008 116.852 70.904 115.7 69.464C114.596 68.024 114.044 66.392 114.044 64.568V63.776C114.044 62.24 114.428 60.848 115.196 59.6C116.012 58.4 117.14 57.392 118.58 56.576C120.02 55.808 121.7 55.376 123.62 55.28V53.696L128.084 56.504C126.836 56.984 125.804 57.512 124.988 58.088C124.22 58.712 123.644 59.408 123.26 60.176C122.924 60.992 122.756 61.928 122.756 62.984V63.704C122.756 64.712 123.02 65.552 123.548 66.224C124.076 66.896 124.892 67.376 125.996 67.664C127.1 68 128.468 68.168 130.1 68.168H131.756C133.964 68.168 135.932 68.072 137.66 67.88C139.388 67.688 141.02 67.352 142.556 66.872C142.844 66.392 143.036 65.864 143.132 65.288C143.276 64.76 143.348 64.208 143.348 63.632V62.984C143.348 62.072 143.06 61.304 142.484 60.68C141.956 60.056 141.116 59.696 139.964 59.6L131.9 59.024C129.932 58.88 128.252 58.424 126.86 57.656C125.468 56.936 124.388 56 123.62 54.848C122.9 53.696 122.54 52.448 122.54 51.104ZM135.572 23.24L142.556 23.312V25.112C144.236 25.976 145.532 27.056 146.444 28.352C147.404 29.6 147.884 31.136 147.884 32.96V33.608C147.884 35.864 147.212 37.808 145.868 39.44C144.524 41.072 142.676 42.32 140.324 43.184C137.972 44.048 135.308 44.48 132.332 44.48C129.164 44.528 126.332 44.024 123.836 42.968C121.34 41.912 119.372 40.4 117.932 38.432C116.54 36.416 115.844 34.016 115.844 31.232V30.656C115.844 27.824 116.564 25.352 118.004 23.24C119.492 21.08 121.604 19.424 124.34 18.272C127.124 17.072 130.556 16.472 134.636 16.472C137.708 16.472 140.492 16.544 142.988 16.688C145.532 16.784 148.244 16.952 151.124 17.192C151.22 17.48 151.292 17.888 151.34 18.416C151.436 18.896 151.484 19.424 151.484 20C151.484 21.44 151.244 22.64 150.764 23.6C150.332 24.512 149.564 24.968 148.46 24.968C147.596 24.968 146.588 24.896 145.436 24.752C144.284 24.608 142.796 24.464 140.972 24.32C139.148 24.176 136.82 24.104 133.988 24.104C130.676 24.104 128.156 24.728 126.428 25.976C124.7 27.224 123.836 29.144 123.836 31.736V32.168C123.836 32.84 123.932 33.584 124.124 34.4C124.364 35.168 124.748 35.936 125.276 36.704C126.284 37.136 127.316 37.472 128.372 37.712C129.476 37.904 130.796 38 132.332 38C134.828 38 136.772 37.472 138.164 36.416C139.604 35.36 140.324 33.848 140.324 31.88V31.232C140.324 30.32 140.18 29.408 139.892 28.496C139.652 27.536 139.196 26.6 138.524 25.688C137.852 24.776 136.868 23.96 135.572 23.24ZM167.08 56.288C165.544 56.288 164.296 56.072 163.336 55.64C162.424 55.16 161.752 54.536 161.32 53.768C160.936 53 160.744 52.184 160.744 51.32C160.744 47.336 160.744 43.592 160.744 40.088C160.744 36.536 160.744 33.128 160.744 29.864C160.744 26.552 160.744 23.192 160.744 19.784C160.744 16.328 160.744 12.68 160.744 8.84C160.744 7.544 160.648 6.32 160.456 5.168C160.312 3.968 160 2.912 159.52 2C159.808 1.904 160.096 1.856 160.384 1.856C160.672 1.808 160.96 1.76 161.248 1.712C161.584 1.664 161.872 1.64 162.112 1.64C163.408 1.64 164.608 1.952 165.712 2.576C166.816 3.2 167.704 4.28 168.376 5.816C169.096 7.352 169.456 9.464 169.456 12.152C169.456 15.944 169.456 19.664 169.456 23.312C169.456 26.96 169.456 30.608 169.456 34.256C169.456 37.856 169.456 41.48 169.456 45.128C169.456 48.728 169.456 52.376 169.456 56.072C169.12 56.12 168.832 56.168 168.592 56.216C168.352 56.264 168.112 56.288 167.872 56.288C167.68 56.288 167.416 56.288 167.08 56.288ZM168.232 44.264L168.16 29.36H169.96C170.728 27.536 171.616 25.856 172.624 24.32C173.68 22.736 174.856 21.368 176.152 20.216C177.448 19.064 178.816 18.176 180.256 17.552C181.696 16.88 183.16 16.544 184.648 16.544C185.8 16.544 186.856 16.88 187.816 17.552C188.824 18.224 189.688 19.136 190.408 20.288C191.176 21.392 191.776 22.616 192.208 23.96C192.64 25.304 192.856 26.672 192.856 28.064C192.856 29.984 192.856 31.904 192.856 33.824C192.856 35.696 192.856 37.592 192.856 39.512C192.856 41.432 192.856 43.352 192.856 45.272C192.856 47.384 192.952 49.232 193.144 50.816C193.336 52.352 193.672 54.08 194.152 56C193.624 56.096 193.096 56.168 192.568 56.216C192.088 56.312 191.536 56.36 190.912 56.36C189.328 56.36 187.96 56.096 186.808 55.568C185.656 54.992 184.768 54.008 184.144 52.616C183.568 51.176 183.28 49.208 183.28 46.712C183.28 44.792 183.352 42.896 183.496 41.024C183.64 39.152 183.856 37.208 184.144 35.192C184.432 33.176 184.768 31.04 185.152 28.784C184.768 27.92 184.288 27.272 183.712 26.84C183.136 26.36 182.488 26.12 181.768 26.12C180.52 26.12 179.296 26.48 178.096 27.2C176.896 27.872 175.696 28.928 174.496 30.368C173.344 31.808 172.24 33.68 171.184 35.984C170.128 38.288 169.144 41.048 168.232 44.264ZM211.26 56.072C211.116 56.12 210.948 56.168 210.756 56.216C210.612 56.264 210.444 56.288 210.252 56.288C210.108 56.288 209.94 56.288 209.748 56.288C208.356 56.288 207.252 55.88 206.436 55.064C205.62 54.248 205.02 53.168 204.636 51.824C204.3 50.48 204.132 49.04 204.132 47.504C204.132 43.904 204.132 40.52 204.132 37.352C204.132 34.136 204.132 31.016 204.132 27.992C204.132 24.968 204.132 21.896 204.132 18.776C204.132 15.656 204.132 12.344 204.132 8.84C204.132 7.544 204.036 6.32 203.844 5.168C203.7 3.968 203.388 2.912 202.908 2C203.148 1.952 203.364 1.904 203.556 1.856C203.796 1.808 204.012 1.784 204.204 1.784C204.444 1.736 204.66 1.712 204.852 1.712C205.044 1.664 205.26 1.64 205.5 1.64C206.844 1.64 208.068 1.976 209.172 2.648C210.276 3.272 211.164 4.352 211.836 5.888C212.508 7.424 212.844 9.512 212.844 12.152C212.844 15.032 212.844 17.888 212.844 20.72C212.844 23.552 212.844 26.36 212.844 29.144C212.844 31.88 212.844 34.64 212.844 37.424C212.844 40.208 212.844 42.992 212.844 45.776C212.844 46.448 212.82 47.144 212.772 47.864C212.724 48.584 212.652 49.304 212.556 50.024C212.46 50.744 212.34 51.464 212.196 52.184C212.052 52.904 211.884 53.6 211.692 54.272C211.548 54.944 211.404 55.544 211.26 56.072ZM211.404 50.888V44.048C212.556 45.392 213.852 46.472 215.292 47.288C216.732 48.056 218.34 48.44 220.116 48.44C222.18 48.44 223.86 47.888 225.156 46.784C226.5 45.68 227.484 44.072 228.108 41.96C228.78 39.848 229.116 37.232 229.116 34.112V33.392C229.116 31.856 229.068 30.584 228.972 29.576C228.876 28.568 228.684 27.656 228.396 26.84C228.108 26.552 227.748 26.312 227.316 26.12C226.932 25.928 226.5 25.832 226.02 25.832C224.1 25.832 222.3 26.288 220.62 27.2C218.988 28.112 217.452 29.624 216.012 31.736C214.62 33.8 213.3 36.608 212.052 40.16V28.352H213.348C214.164 26.096 215.268 24.08 216.66 22.304C218.1 20.528 219.684 19.136 221.412 18.128C223.188 17.12 225.012 16.616 226.884 16.616C228.372 16.616 229.788 17 231.132 17.768C232.524 18.488 233.724 19.544 234.732 20.936C235.788 22.28 236.604 23.864 237.18 25.688C237.804 27.464 238.116 29.408 238.116 31.52V32.96C238.116 37.184 237.684 40.808 236.82 43.832C236.004 46.856 234.876 49.328 233.436 51.248C231.996 53.12 230.364 54.512 228.54 55.424C226.716 56.336 224.796 56.792 222.78 56.792C221.388 56.792 220.044 56.504 218.748 55.928C217.5 55.352 216.372 54.608 215.364 53.696C214.356 52.784 213.54 51.848 212.916 50.888H211.404ZM263.504 16.616C265.856 16.616 268.088 17.072 270.2 17.984C272.312 18.848 274.16 20.192 275.744 22.016C277.376 23.84 278.648 26.096 279.56 28.784C280.52 31.424 281 34.496 281 38V38.936C281 42.536 280.232 45.68 278.695 48.368C277.208 51.056 275.12 53.144 272.432 54.632C269.744 56.072 266.6 56.792 263 56.792C260.552 56.792 258.272 56.432 256.16 55.712C254.048 54.944 252.2 53.84 250.616 52.4C249.032 50.912 247.784 49.04 246.872 46.784C246.008 44.528 245.576 41.888 245.576 38.864V38C245.576 33.68 246.32 29.912 247.808 26.696C249.344 23.48 251.456 21.008 254.144 19.28C256.88 17.504 260 16.616 263.504 16.616ZM264.512 24.752C262.16 24.752 260.192 25.28 258.608 26.336C257.072 27.392 255.92 28.952 255.152 31.016C254.384 33.08 254 35.6 254 38.576V39.08C254 40.76 254.168 42.392 254.504 43.976C254.84 45.512 255.416 46.88 256.232 48.08C257.096 48.32 257.96 48.488 258.824 48.584C259.688 48.632 260.672 48.656 261.776 48.656C264.272 48.656 266.312 48.272 267.896 47.504C269.48 46.736 270.656 45.584 271.424 44.048C272.192 42.512 272.576 40.592 272.576 38.288V37.856C272.576 35.264 272.336 32.936 271.856 30.872C271.376 28.76 270.608 26.912 269.552 25.328C268.88 25.088 268.136 24.944 267.32 24.896C266.552 24.8 265.616 24.752 264.512 24.752ZM298.683 29.576H299.619C300.435 26.744 301.347 24.32 302.355 22.304C303.363 20.288 304.515 18.752 305.811 17.696C307.107 16.64 308.523 16.112 310.059 16.112C310.827 16.112 311.475 16.184 312.003 16.328C312.531 16.472 312.987 16.736 313.371 17.12C313.851 17.648 314.211 18.368 314.451 19.28C314.739 20.144 314.883 21.368 314.883 22.952C314.883 23.384 314.859 23.816 314.811 24.248C314.811 24.632 314.787 25.04 314.739 25.472C314.691 25.856 314.619 26.24 314.523 26.624C314.427 27.008 314.331 27.368 314.235 27.704H313.803C313.227 27.32 312.627 27.032 312.003 26.84C311.379 26.648 310.611 26.552 309.699 26.552C308.115 26.552 306.675 27.104 305.379 28.208C304.083 29.264 302.883 30.968 301.779 33.32C300.723 35.624 299.691 38.624 298.683 42.32V29.576ZM299.187 56.072C298.851 56.12 298.539 56.168 298.251 56.216C298.011 56.264 297.771 56.288 297.531 56.288C297.291 56.288 297.027 56.288 296.739 56.288C295.539 56.288 294.531 56.192 293.715 56C292.947 55.76 292.323 55.4 291.843 54.92C291.363 54.44 291.003 53.888 290.763 53.264C290.571 52.64 290.475 51.92 290.475 51.104C290.475 49.136 290.475 47.24 290.475 45.416C290.475 43.544 290.475 41.72 290.475 39.944C290.475 38.12 290.475 36.344 290.475 34.616C290.475 32.888 290.475 31.16 290.475 29.432C290.475 27.656 290.475 25.928 290.475 24.248C290.475 22.904 290.379 21.656 290.187 20.504C290.043 19.304 289.731 18.248 289.251 17.336C289.539 17.288 289.827 17.24 290.115 17.192C290.403 17.144 290.691 17.096 290.979 17.048C291.315 17 291.603 16.976 291.843 16.976C293.235 16.976 294.483 17.312 295.587 17.984C296.691 18.608 297.555 19.688 298.179 21.224C298.851 22.76 299.187 24.872 299.187 27.56C299.187 29.48 299.187 31.448 299.187 33.464C299.187 35.432 299.187 37.4 299.187 39.368C299.187 41.336 299.187 43.28 299.187 45.2C299.187 47.072 299.187 48.944 299.187 50.816C299.187 52.64 299.187 54.392 299.187 56.072ZM323.033 8.696C323.033 7.4 322.937 6.176 322.745 5.024C322.601 3.824 322.361 2.768 322.025 1.856C322.217 1.808 322.409 1.76 322.601 1.712C322.841 1.664 323.057 1.64 323.249 1.64C323.489 1.592 323.705 1.568 323.897 1.568C324.137 1.52 324.377 1.496 324.617 1.496C324.905 1.496 325.169 1.496 325.409 1.496C326.561 1.496 327.593 1.76 328.505 2.288C329.465 2.768 330.233 3.584 330.809 4.736C331.385 5.888 331.673 7.472 331.673 9.488C331.673 11.648 331.673 13.808 331.673 15.968C331.673 18.128 331.673 20.312 331.673 22.52C331.673 24.68 331.673 26.84 331.673 29C331.673 31.16 331.673 33.344 331.673 35.552C331.673 37.712 331.673 39.848 331.673 41.96C331.673 43.256 331.721 44.336 331.817 45.2C331.913 46.064 332.081 46.856 332.321 47.576C332.609 47.768 332.945 47.936 333.329 48.08C333.761 48.224 334.241 48.296 334.769 48.296C335.249 48.296 335.681 48.272 336.065 48.224C336.497 48.128 336.881 48.008 337.217 47.864C337.553 47.72 337.865 47.576 338.153 47.432C338.489 47.24 338.801 47.024 339.089 46.784H339.521C339.617 47.168 339.665 47.576 339.665 48.008C339.713 48.392 339.737 48.92 339.737 49.592C339.737 51.032 339.593 52.208 339.305 53.12C339.017 54.032 338.585 54.776 338.009 55.352C337.721 55.64 337.409 55.856 337.073 56C336.737 56.192 336.353 56.336 335.921 56.432C335.537 56.528 335.081 56.6 334.553 56.648C334.073 56.696 333.593 56.72 333.113 56.72C331.241 56.72 329.657 56.408 328.361 55.784C327.113 55.16 326.081 54.32 325.265 53.264C324.497 52.16 323.921 50.96 323.537 49.664C323.201 48.32 323.033 46.928 323.033 45.488C323.033 42.32 323.033 39.2 323.033 36.128C323.033 33.008 323.033 29.912 323.033 26.84C323.033 23.72 323.033 20.648 323.033 17.624C323.033 14.6 323.033 11.624 323.033 8.696ZM373.602 16.976C375.57 16.976 377.106 17.36 378.21 18.128C379.362 18.848 379.842 20.168 379.65 22.088C379.17 27.608 378.498 32.576 377.634 36.992C376.77 41.36 375.714 45.248 374.466 48.656C373.218 52.064 371.826 55.016 370.29 57.512C368.802 60.056 367.146 62.24 365.322 64.064C363.978 65.408 362.61 66.536 361.218 67.448C359.874 68.408 358.506 69.128 357.114 69.608C355.722 70.136 354.306 70.4 352.866 70.4C352.482 70.4 352.122 70.376 351.786 70.328C351.45 70.28 351.114 70.184 350.778 70.04C350.49 69.944 350.202 69.8 349.914 69.608C349.626 69.416 349.362 69.2 349.122 68.96C348.546 68.336 348.09 67.424 347.754 66.224C347.418 65.024 347.25 63.656 347.25 62.12V61.832H347.682C347.874 61.832 348.066 61.832 348.258 61.832C348.45 61.832 348.642 61.832 348.834 61.832C350.898 61.832 352.962 61.424 355.026 60.608C357.09 59.84 359.01 58.568 360.786 56.792C361.794 55.832 362.754 54.584 363.666 53.048C364.578 51.464 365.394 49.592 366.114 47.432C366.882 45.224 367.53 42.68 368.058 39.8C368.634 36.872 369.09 33.56 369.426 29.864C369.81 26.12 370.05 21.968 370.146 17.408C370.53 17.312 370.866 17.24 371.154 17.192C371.49 17.144 371.778 17.096 372.018 17.048C372.306 17 372.57 16.976 372.81 16.976C373.098 16.976 373.362 16.976 373.602 16.976ZM347.178 16.976C349.194 16.976 350.754 17.288 351.858 17.912C353.01 18.536 353.658 19.712 353.802 21.44C354.042 24.32 354.402 27.008 354.882 29.504C355.362 32 355.914 34.28 356.538 36.344C357.21 38.408 357.954 40.28 358.77 41.96C359.634 43.592 360.57 45.032 361.578 46.28C362.586 47.528 363.69 48.56 364.89 49.376H367.338L365.394 54.488H364.89C363.258 54.488 361.794 54.344 360.498 54.056C359.202 53.72 358.026 53.216 356.97 52.544C355.914 51.872 354.906 50.984 353.946 49.88C353.082 48.872 352.242 47.72 351.426 46.424C350.61 45.128 349.818 43.616 349.05 41.888C348.282 40.16 347.538 38.144 346.818 35.84C346.146 33.536 345.522 30.872 344.946 27.848C344.418 24.824 343.986 21.344 343.65 17.408C343.986 17.312 344.298 17.24 344.586 17.192C344.874 17.144 345.162 17.12 345.45 17.12C345.738 17.072 346.002 17.048 346.242 17.048C346.53 17 346.842 16.976 347.178 16.976Z" fill="#635BFF"/>
</svg>
