<svg width="40" height="40" viewBox="0 0 40 40" fill="none" xmlns="http://www.w3.org/2000/svg">
<path d="M29.6309 19.747C29.5143 29.4082 35.0657 28.5511 37.6022 26.997C38.8315 28.5865 37.3798 31.7948 36.1627 33.1012C34.9456 34.4077 30.7322 37.1664 26.3496 36.2743C22.3305 35.4562 21.1907 32.3037 20.3015 29.2617C19.5902 26.8281 19.6797 22.1592 19.5286 19.7914C19.3472 16.9501 18.6813 11.0327 15.3563 11.2056C12.0314 11.3785 10.1689 15.1352 10.1206 17.0841L10.1273 8.91872C11.7632 6.31327 16.2916 2.57926 21.0608 2.64821C25.83 2.71715 27.4548 5.36022 27.7245 6.07855C27.7245 6.07855 29.7476 10.0858 29.6309 19.747Z" fill="#635BFF"/>
<rect y="2.06543" width="10.1366" height="34.7571" rx="4.26021" fill="#635BFF"/>
</svg>
