<svg width="32" height="32" viewBox="0 0 32 32" fill="none" xmlns="http://www.w3.org/2000/svg">
<path d="M25 21V12H11V21H25ZM25 7C25.5304 7 26.0391 7.21071 26.4142 7.58579C26.7893 7.96086 27 8.46957 27 9V21C27 21.5304 26.7893 22.0391 26.4142 22.4142C26.0391 22.7893 25.5304 23 25 23H11C10.4696 23 9.96086 22.7893 9.58579 22.4142C9.21071 22.0391 9 21.5304 9 21V9C9 8.46957 9.21071 7.96086 9.58579 7.58579C9.96086 7.21071 10.4696 7 11 7H12V5H14V7H22V5H24V7H25ZM7 25H21V27H7C6.46957 27 5.96086 26.7893 5.58579 26.4142C5.21071 26.0391 5 25.5304 5 25V13H7V25ZM23 19H19V15H23V19Z" fill="#4C92CB"/>
</svg>
