<svg width="40" height="41" viewBox="0 0 40 41" fill="none" xmlns="http://www.w3.org/2000/svg">
<path d="M35.0013 29.0007V14.0007H11.668V29.0007H35.0013ZM35.0013 5.66732C35.8854 5.66732 36.7332 6.01851 37.3583 6.64363C37.9834 7.26875 38.3346 8.1166 38.3346 9.00065V29.0007C38.3346 29.8847 37.9834 30.7326 37.3583 31.3577C36.7332 31.9828 35.8854 32.334 35.0013 32.334H11.668C10.7839 32.334 9.93607 31.9828 9.31095 31.3577C8.68582 30.7326 8.33464 29.8847 8.33464 29.0007V9.00065C8.33464 8.1166 8.68582 7.26875 9.31095 6.64363C9.93607 6.01851 10.7839 5.66732 11.668 5.66732H13.3346V2.33398H16.668V5.66732H30.0013V2.33398H33.3346V5.66732H35.0013ZM5.0013 35.6673H28.3346V39.0007H5.0013C4.11725 39.0007 3.2694 38.6495 2.64428 38.0243C2.01916 37.3992 1.66797 36.5514 1.66797 35.6673V15.6673H5.0013V35.6673ZM31.668 25.6673H25.0013V19.0007H31.668V25.6673Z" fill="#8F8F8F"/>
</svg>
