<?xml version="1.0" encoding="utf-8"?>
<!-- Generator: Adobe Illustrator 27.5.0, SVG Export Plug-In . SVG Version: 6.00 Build 0)  -->
<svg version="1.1" xmlns="http://www.w3.org/2000/svg" xmlns:xlink="http://www.w3.org/1999/xlink" x="0px" y="0px"
	 viewBox="0 0 500 500" style="enable-background:new 0 0 500 500;" xml:space="preserve">
<g id="Background_Complete">
	<g>
		<rect y="382.398" style="fill:#EBEBEB;" width="500" height="0.25"/>
		<rect x="416.779" y="398.494" style="fill:#EBEBEB;" width="33.122" height="0.25"/>
		<rect x="322.527" y="401.208" style="fill:#EBEBEB;" width="8.693" height="0.25"/>
		<rect x="396.586" y="389.208" style="fill:#EBEBEB;" width="19.192" height="0.25"/>
		<rect x="52.459" y="390.888" style="fill:#EBEBEB;" width="43.193" height="0.25"/>
		<rect x="104.556" y="390.888" style="fill:#EBEBEB;" width="6.333" height="0.25"/>
		<rect x="131.471" y="395.111" style="fill:#EBEBEB;" width="93.676" height="0.25"/>
		<path style="fill:#EBEBEB;" d="M237.014,337.8H43.915c-3.147,0-5.708-2.561-5.708-5.708V60.66c0-3.147,2.561-5.708,5.708-5.708
			h193.099c3.146,0,5.707,2.561,5.707,5.708v271.432C242.721,335.239,240.16,337.8,237.014,337.8z M43.915,55.203
			c-3.01,0-5.458,2.448-5.458,5.458v271.432c0,3.01,2.448,5.458,5.458,5.458h193.099c3.009,0,5.457-2.448,5.457-5.458V60.66
			c0-3.009-2.448-5.458-5.457-5.458H43.915z"/>
		<path style="fill:#EBEBEB;" d="M453.31,337.8H260.212c-3.147,0-5.707-2.561-5.707-5.708V60.66c0-3.147,2.561-5.708,5.707-5.708
			H453.31c3.148,0,5.708,2.561,5.708,5.708v271.432C459.019,335.239,456.458,337.8,453.31,337.8z M260.212,55.203
			c-3.009,0-5.457,2.448-5.457,5.458v271.432c0,3.01,2.448,5.458,5.457,5.458H453.31c3.01,0,5.458-2.448,5.458-5.458V60.66
			c0-3.009-2.448-5.458-5.458-5.458H260.212z"/>
	</g>
	<g>
		<g>
			<g>
				<g>
					<path style="fill:#E0E0E0;" d="M215.142,191.479c-1.123-0.879-2.609-1.126-4.032-1.222c-0.825-1.109-0.034-2.678,0.867-3.726
						c0.902-1.048,2.001-2.236,1.745-3.594c-0.387-2.051-3.216-2.261-5.282-1.966c-0.697-1.262-0.608-2.792-0.907-4.202
						c-0.299-1.41-1.335-2.924-2.773-2.82c-1.354,0.099-2.25,1.579-3.585,1.826c-1.551,0.287-2.812-1.133-3.965-2.208
						c-0.14-0.13-0.294-0.255-0.457-0.372c0.001-0.002,0.001-0.004,0.001-0.006c0.454-4.19,4.433-3.329,7.874-3.734
						c2.688-0.316-4.045-7.394,1.436-9.306c1.018-0.355,2.126-0.759,2.682-1.682c0.736-1.221,0.133-2.906-0.99-3.784
						c-1.123-0.879-2.609-1.126-4.032-1.222c-0.825-1.109-0.034-2.678,0.867-3.726c0.902-1.048,2.001-2.236,1.745-3.594
						c-0.388-2.051-3.217-2.261-5.283-1.966c-0.697-1.262-0.607-2.792-0.907-4.202c-0.299-1.41-1.336-2.924-2.773-2.82
						c-1.354,0.099-2.25,1.579-3.585,1.826c-1.55,0.287-2.812-1.133-3.965-2.208c-1.153-1.075-3.226-1.812-4.119-0.513
						c-0.535,0.778-0.292,1.91-0.845,2.675c-0.96,1.325-3.037,0.373-4.304-0.661c-1.268-1.034-3.32-2.015-4.31-0.713
						c-0.304,0.399-0.391,0.916-0.578,1.381c-0.142,0.352-0.344,0.657-0.574,0.942c-0.215-0.95-0.243-1.965-0.447-2.926
						c-0.299-1.41-1.335-2.924-2.773-2.819c-1.354,0.099-2.25,1.578-3.585,1.825c-1.55,0.287-2.812-1.133-3.965-2.209
						c-1.153-1.075-3.225-1.812-4.119-0.513c-0.535,0.778-0.292,1.91-0.845,2.675c-0.131,0.181-0.284,0.316-0.451,0.417
						c-0.449-0.076-0.905-0.125-1.355-0.155c-0.825-1.109-0.034-2.679,0.867-3.726c0.901-1.048,2.001-2.236,1.744-3.594
						c-0.387-2.05-3.216-2.261-5.282-1.966c-0.697-1.261-0.608-2.792-0.907-4.202c-0.3-1.41-1.335-2.924-2.773-2.819
						c-1.354,0.099-2.25,1.578-3.585,1.826c-1.55,0.287-2.812-1.133-3.965-2.209c-1.153-1.076-3.225-1.812-4.118-0.513
						c-0.535,0.778-0.292,1.91-0.846,2.674c-0.96,1.325-3.036,0.373-4.304-0.661c-1.268-1.034-3.32-2.015-4.311-0.713
						c-0.303,0.399-0.391,0.916-0.578,1.381c-0.709,1.765-2.693,2.565-4.26,3.643c-1.567,1.078-2.876,3.309-1.665,4.776
						c0.597,0.724,1.693,1.058,1.964,1.957c0.338,1.123-0.838,2.057-1.767,2.773c-1.144,0.882-1.686,3.171-1.118,4.76
						c-0.499,0.367-1.005,0.721-1.597,0.831c-1.55,0.287-2.812-1.133-3.965-2.208c-1.153-1.075-3.225-1.812-4.119-0.513
						c-0.535,0.778-0.292,1.91-0.846,2.675c-0.959,1.325-3.036,0.373-4.304-0.661c-1.268-1.034-3.32-2.015-4.31-0.713
						c-0.304,0.399-0.391,0.916-0.578,1.381c-0.709,1.765-2.693,2.565-4.26,3.643c-1.567,1.078-2.876,3.31-1.665,4.776
						c0.574,0.695,1.6,1.036,1.921,1.858c-1.039-0.468-2.192-0.538-2.8,0.347c-0.535,0.778-0.292,1.91-0.846,2.675
						c-0.959,1.325-3.036,0.373-4.304-0.661c-1.268-1.034-3.32-2.015-4.311-0.713c-0.303,0.399-0.391,0.916-0.578,1.381
						c-0.709,1.765-2.693,2.565-4.26,3.643c-1.567,1.078-2.876,3.309-1.665,4.776c0.597,0.724,1.693,1.059,1.964,1.957
						c0.339,1.123-0.838,2.057-1.767,2.773c-1.547,1.191-2,4.959-0.086,6.088c0.803,0.474,2.006,0.666,2.164,1.586
						c0.141,0.822-0.715,1.415-1.293,2.015c-1.59,1.649-1.103,4.781,0.913,5.869c0.46,0.249,1.031,0.462,1.181,0.964
						c0.108,0.359-0.047,0.737-0.166,1.092c-0.225,0.673-0.324,1.387-0.291,2.095c0.011,0.242,0.048,0.506,0.224,0.673
						c0.16,0.151,0.395,0.185,0.614,0.206c2.83,0.264,4.247-0.673,5.858,1.878c0.155,0.245,0.317,0.498,0.56,0.656
						c0.228,0.148,0.504,0.198,0.773,0.233c1.942,0.255,3.275-0.9,5.068-1.04c2.488-0.195,2.95,1.105,5.077,2.235
						c3.348,1.777,5.057,0.865,5.814-1.438c0.192-0.586,0.323-1.263,0.404-2.011c0.141-1.301,0.622-2.113,1.321-2.63
						c0.02,0.003,0.039,0.008,0.059,0.011c1.81,0.238,3.095-0.739,4.713-0.988c0.337-0.015,0.675-0.033,1.012-0.057
						c1.922,0.072,2.5,1.22,4.421,2.239c1.148,0.609,2.1,0.896,2.89,0.925c0.232,1.073-0.884,1.971-1.783,2.663
						c-1.547,1.191-2,4.959-0.086,6.088c0.803,0.474,2.006,0.666,2.164,1.585c0.141,0.822-0.715,1.415-1.293,2.015
						c-1.59,1.649-1.102,4.781,0.913,5.869c0.461,0.249,1.031,0.462,1.182,0.964c0.108,0.359-0.047,0.737-0.166,1.092
						c-0.225,0.673-0.324,1.387-0.291,2.095c0.011,0.242,0.048,0.506,0.224,0.673c0.16,0.151,0.395,0.185,0.614,0.206
						c2.83,0.264,4.247-0.673,5.859,1.878c0.155,0.245,0.317,0.498,0.56,0.656c0.228,0.148,0.504,0.198,0.773,0.233
						c1.942,0.255,3.275-0.9,5.068-1.04c2.487-0.195,2.949,1.105,5.077,2.235c3.349,1.777,5.057,0.865,5.814-1.438
						c0.193-0.586,0.324-1.263,0.405-2.011c0.454-4.19,4.433-3.329,7.874-3.734c0.306-0.036,0.485-0.163,0.579-0.357
						c0.071,0.013,0.142,0.03,0.213,0.039c1.942,0.255,3.275-0.9,5.068-1.04c2.487-0.195,2.949,1.105,5.077,2.235
						c3.348,1.777,5.057,0.865,5.813-1.438c0.193-0.586,0.324-1.263,0.405-2.011c0.353-3.258,2.838-3.462,5.543-3.582
						c0.068,1.279,0.696,2.541,1.831,3.154c0.46,0.249,1.031,0.462,1.181,0.964c0.108,0.359-0.047,0.737-0.166,1.092
						c-0.225,0.673-0.324,1.387-0.291,2.095c0.011,0.242,0.048,0.506,0.224,0.673c0.16,0.151,0.395,0.185,0.614,0.205
						c2.83,0.264,4.247-0.673,5.858,1.879c0.155,0.245,0.317,0.498,0.56,0.656c0.228,0.148,0.504,0.197,0.773,0.233
						c1.942,0.255,3.275-0.9,5.068-1.04c2.487-0.195,2.949,1.105,5.077,2.235c3.348,1.777,5.057,0.865,5.813-1.438
						c0.193-0.586,0.324-1.263,0.404-2.011c0.453-4.19,4.433-3.33,7.874-3.734c2.688-0.316-4.045-7.394,1.436-9.306
						c1.018-0.355,2.126-0.759,2.682-1.682C216.868,194.042,216.265,192.357,215.142,191.479z"/>
					<path style="fill:#E0E0E0;" d="M112.916,228.624c-0.884-0.692-2.054-0.886-3.175-0.962c-0.65-0.873-0.027-2.109,0.683-2.934
						c0.71-0.825,1.576-1.76,1.374-2.83c-0.305-1.615-2.533-1.78-4.16-1.548c-0.549-0.993-0.478-2.199-0.714-3.308
						c-0.236-1.11-1.051-2.303-2.183-2.22c-1.066,0.078-1.772,1.243-2.823,1.438c-1.221,0.226-2.214-0.892-3.122-1.739
						c-0.908-0.847-2.539-1.427-3.243-0.404c-0.421,0.613-0.23,1.504-0.666,2.106c-0.756,1.044-2.391,0.294-3.389-0.521
						c-0.998-0.814-2.614-1.587-3.394-0.561c-0.239,0.314-0.308,0.721-0.455,1.087c-0.558,1.39-2.12,2.02-3.355,2.868
						c-1.234,0.849-2.264,2.606-1.311,3.761c0.47,0.57,1.333,0.833,1.547,1.541c0.266,0.884-0.66,1.62-1.391,2.183
						c-1.218,0.938-1.575,3.905-0.068,4.794c0.633,0.373,1.58,0.525,1.704,1.248c0.111,0.647-0.563,1.114-1.018,1.587
						c-1.252,1.298-0.868,3.764,0.719,4.621c0.363,0.196,0.812,0.364,0.931,0.759c0.085,0.283-0.037,0.58-0.13,0.86
						c-0.177,0.53-0.255,1.092-0.23,1.65c0.009,0.191,0.038,0.398,0.177,0.53c0.126,0.119,0.311,0.146,0.483,0.162
						c2.228,0.208,3.344-0.53,4.613,1.479c0.122,0.193,0.25,0.392,0.441,0.516c0.179,0.117,0.397,0.156,0.609,0.184
						c1.529,0.201,2.579-0.708,3.99-0.819c1.958-0.153,2.322,0.87,3.998,1.76c2.636,1.399,3.981,0.681,4.577-1.132
						c0.152-0.462,0.255-0.995,0.318-1.584c0.357-3.299,3.491-2.622,6.2-2.94c2.116-0.249-3.186-5.822,1.131-7.328
						c0.802-0.28,1.673-0.597,2.112-1.325C114.275,230.642,113.801,229.316,112.916,228.624z"/>
				</g>
				<path style="fill:#EBEBEB;" d="M140.102,375.514h16.759c0.96-16.833,4.309-91.704,0.914-124.915
					c0.222-1.045,0.455-2.241,0.701-3.631c2.301-13.029,15.499-32.256,18.1-35.319c2.602-3.063,10.185-12.751,10.185-12.751
					l-1.361-2.273l-12.119,12.17l5.082-13.738l9.099-10.596l-1.409-1.295l-8.503,8.418l-0.762-14.018l-3.211-0.156
					c0,0,3.476,16.154,0.4,22.095c0,0-12.77,25.575-19.156,30.809c-0.361,0.296-0.676,0.65-0.959,1.042
					c-2.045-5.804-4.215-10.219-6.448-13.661c2.709-6.063,8.548-19.422,10.659-26.565c2.787-9.431,3.937-16.979,3.937-16.979
					l-2.341-1.43c0,0-6.637,27.673-16.621,39.43c-3.026-3.134-6.093-5.05-9.058-6.72c-0.574-3.806-0.585-10.382,2.414-20.504
					l-1.769-1.803c0,0-4.406,9.724-4.585,20.104c-1.362-0.79-2.686-1.625-3.956-2.613c-8.745-6.802-14.549-18.612-14.549-18.612
					l-3.432-0.167c0,0,8.394,19.212,18.885,25.404c10.492,6.192,16.793,20.329,17.169,23.979c0.107,1.04-0.184,11.965-0.654,27.05
					c-11.42-7.706-39.486-26.677-40.932-27.994l-0.17,3.495l40.821,33.323C142.154,300.587,140.495,363.154,140.102,375.514z"/>
			</g>
			<path style="fill:#F5F5F5;" d="M119.14,106.525c0-8.103,4.647-10.79,8.228-11.275c5.865-0.795,10.055,3.669,10.055,3.669
				s3.188-10.749,14.711-10.749c11.523,0,15.069,11.741,15.069,11.741s4.481-3.559,10.934-2.48
				c4.524,0.756,7.217,4.091,10.132,9.095H119.14z"/>
			<path style="fill:#F5F5F5;" d="M236.26,189.45c0-10.463,6.001-13.933,10.624-14.56c7.573-1.027,12.984,4.737,12.984,4.737
				s4.116-13.88,18.995-13.88s19.458,15.161,19.458,15.161s5.787-4.595,14.119-3.203c5.842,0.976,9.32,5.283,13.082,11.744H236.26z"
				/>
			<path style="fill:#F5F5F5;" d="M388.569,112.6c0,0-2.567-6.352-8.924-7.046c-6.357-0.695-9.413,3.523-9.413,3.523
				s-4.977-8.858-14.67-7.592c-10.636,1.389-10.025,11.115-10.025,11.115H388.569z"/>
		</g>
		<g>
			
				<rect x="79.008" y="330.419" transform="matrix(-1 -1.224647e-16 1.224647e-16 -1 501.5151 670.4304)" style="fill:#E0E0E0;" width="343.499" height="9.593"/>
			<polygon style="fill:#E6E6E6;" points="209.853,368.995 200.148,368.995 200.148,307.721 205.001,304.271 209.853,307.721 			"/>
			<polygon style="fill:#E6E6E6;" points="227.859,368.995 218.153,368.995 218.153,307.721 223.006,304.271 227.859,307.721 			"/>
			<polygon style="fill:#E6E6E6;" points="245.864,368.995 236.158,368.995 236.158,307.721 241.011,304.271 245.864,307.721 			"/>
			<polygon style="fill:#E6E6E6;" points="263.87,368.995 254.164,368.995 254.164,307.721 259.017,304.271 263.87,307.721 			"/>
			<polygon style="fill:#E6E6E6;" points="281.875,368.995 272.169,368.995 272.169,307.721 277.022,304.271 281.875,307.721 			"/>
			<polygon style="fill:#E6E6E6;" points="299.88,368.995 290.175,368.995 290.175,307.721 295.027,304.271 299.88,307.721 			"/>
			<polygon style="fill:#E6E6E6;" points="317.886,368.995 308.18,368.995 308.18,307.721 313.033,304.271 317.886,307.721 			"/>
			<polygon style="fill:#E6E6E6;" points="335.891,368.995 326.185,368.995 326.185,307.721 331.038,304.271 335.891,307.721 			"/>
			<polygon style="fill:#E6E6E6;" points="353.896,368.995 344.191,368.995 344.191,307.721 349.043,304.271 353.896,307.721 			"/>
			<polygon style="fill:#E6E6E6;" points="371.902,368.995 362.196,368.995 362.196,307.721 367.049,304.271 371.902,307.721 			"/>
			<polygon style="fill:#E6E6E6;" points="389.907,368.995 380.201,368.995 380.201,307.721 385.054,304.271 389.907,307.721 			"/>
			<polygon style="fill:#E6E6E6;" points="407.912,368.995 398.207,368.995 398.207,307.721 403.06,304.271 407.912,307.721 			"/>
			<polygon style="fill:#E6E6E6;" points="425.918,368.995 416.212,368.995 416.212,307.721 421.065,304.271 425.918,307.721 			"/>
			<polygon style="fill:#E6E6E6;" points="119.827,368.995 110.121,368.995 110.121,307.721 114.974,304.271 119.827,307.721 			"/>
			<polygon style="fill:#E6E6E6;" points="137.832,368.995 128.126,368.995 128.126,307.721 132.979,304.271 137.832,307.721 			"/>
			<polygon style="fill:#E6E6E6;" points="155.837,368.995 146.132,368.995 146.132,307.721 150.984,304.271 155.837,307.721 			"/>
			<polygon style="fill:#E6E6E6;" points="173.843,368.995 164.137,368.995 164.137,307.721 168.99,304.271 173.843,307.721 			"/>
			<polygon style="fill:#E6E6E6;" points="191.848,368.995 182.142,368.995 182.142,307.721 186.995,304.271 191.848,307.721 			"/>
			<polygon style="fill:#E6E6E6;" points="101.821,368.995 92.116,368.995 92.116,307.721 96.968,304.271 101.821,307.721 			"/>
			<polygon style="fill:#E6E6E6;" points="83.816,368.995 74.11,368.995 74.11,307.721 78.963,304.271 83.816,307.721 			"/>
		</g>
		<path style="fill:#EBEBEB;" d="M413.941,370.078c0,0,2.607-8.733-2.666-10.472c-5.273-1.739-8.402-5.823-8.225-10.442
			c0.177-4.619-5.374-9.114-9.537-4.785c-4.163,4.329-3.608-3.329-9.159-5.189c-5.551-1.861-10.256,2.654-8.736,6.78
			c1.52,4.126-3.958,6.703-10.516,3.194c-6.559-3.509-13.775,2.874-12.387,7.87c1.388,4.996,0.251,5.551-3.899,3.885
			c-4.15-1.665-11.573,3.053-8.972,9.159C342.445,376.184,413.941,370.078,413.941,370.078z"/>
		<path style="fill:#EBEBEB;" d="M133.735,368.826c0,0,2.024-6.779-2.07-8.13c-4.093-1.35-6.522-4.52-6.385-8.106
			c0.137-3.586-4.172-7.075-7.404-3.715c-3.232,3.361-2.801-2.584-7.11-4.028c-4.309-1.444-7.962,2.06-6.782,5.263
			c1.18,3.203-3.072,5.204-8.164,2.48c-5.092-2.724-10.693,2.231-9.616,6.11c1.077,3.878,0.195,4.309-3.026,3.016
			c-3.222-1.293-8.984,2.37-6.965,7.11C78.233,373.566,133.735,368.826,133.735,368.826z"/>
		<path style="fill:#EBEBEB;" d="M235.017,369.63c4.665-4.665,0.466-12.595-4.199-13.528c-4.665-0.933-9.354-9.142-9.575-14.367
			c-0.221-5.226-8.618-21.299-21.68-11.373c-13.062,9.926-9.092,1.462-18.541-1.327c-9.449-2.789-15.409,5.235-11.263,11.253
			c0,0-9.492-2.379-13.402,6.484c-3.91,8.863,0,14.368,0,14.368s-17.852-0.528-16.246,10.512
			C141.718,382.692,235.017,369.63,235.017,369.63z"/>
		<g>
			<path style="fill:#EBEBEB;" d="M69.101,369.91v12.782h360.136V369.91c0-2.22-1.549-4.012-3.769-4.012H72.871
				C70.65,365.898,69.101,367.69,69.101,369.91z"/>
			<g>
				<rect x="386.32" y="365.898" style="fill:#F5F5F5;" width="22.392" height="16.794"/>
				<rect x="344.335" y="365.898" style="fill:#F5F5F5;" width="21.459" height="16.794"/>
				<rect x="301.417" y="365.898" style="fill:#F5F5F5;" width="22.392" height="16.794"/>
				<rect x="259.432" y="365.898" style="fill:#F5F5F5;" width="21.459" height="16.794"/>
				<rect x="217.448" y="365.898" style="fill:#F5F5F5;" width="21.459" height="16.794"/>
				<rect x="174.53" y="365.898" style="fill:#F5F5F5;" width="22.392" height="16.794"/>
				<rect x="132.545" y="365.898" style="fill:#F5F5F5;" width="21.459" height="16.794"/>
				<rect x="89.627" y="365.898" style="fill:#F5F5F5;" width="22.392" height="16.794"/>
			</g>
		</g>
	</g>
</g>
<g id="Background_Simple" style="display:none;">
	<g style="display:inline;">
		<path style="fill:#407BFF;" d="M417.994,122.998c-27.919-59.449-127.059-51.062-165.317-9.255
			c-38.258,41.806-50.696,68.599-85.208,52.983c-34.512-15.616-78.518-11.44-81.043,38.164
			c-2.525,49.604,37.913,108.263,102.09,125.615c64.177,17.352,64.161,78.759,149.1,66.368c46.31-6.756,47.365-56.86,40.825-98.301
			C371.901,257.131,450.372,191.942,417.994,122.998z"/>
		<path style="opacity:0.9;fill:#FFFFFF;" d="M417.994,122.998c-27.919-59.449-127.059-51.062-165.317-9.255
			c-38.258,41.806-50.696,68.599-85.208,52.983c-34.512-15.616-78.518-11.44-81.043,38.164
			c-2.525,49.604,37.913,108.263,102.09,125.615c64.177,17.352,64.161,78.759,149.1,66.368c46.31-6.756,47.365-56.86,40.825-98.301
			C371.901,257.131,450.372,191.942,417.994,122.998z"/>
	</g>
</g>
<g id="Shadow_1_">
	<ellipse id="_x3C_Path_x3E__359_" style="fill:#F5F5F5;" cx="250" cy="416.238" rx="193.889" ry="11.323"/>
</g>
<g id="Garden_lamp">
	<g>
		<polygon style="fill:#263238;" points="386.106,98.795 389.958,135.799 409.243,135.799 413.095,98.795 		"/>
		<polygon style="opacity:0.3;fill:#FFFFFF;" points="386.106,98.795 389.958,135.799 409.243,135.799 413.095,98.795 		"/>
		
			<rect x="396.012" y="127.841" transform="matrix(-1 -1.224647e-16 1.224647e-16 -1 799.2001 542.5366)" style="fill:#263238;" width="7.176" height="286.854"/>
		
			<rect x="396.012" y="127.841" transform="matrix(-1 -1.224647e-16 1.224647e-16 -1 799.2001 542.5366)" style="opacity:0.3;fill:#FFFFFF;" width="7.176" height="286.854"/>
		<polygon style="fill:#407BFF;" points="391.987,133.541 407.213,133.541 410.592,101.046 388.608,101.046 		"/>
		<polygon style="opacity:0.4;fill:#FFFFFF;enable-background:new    ;" points="391.987,133.541 407.213,133.541 410.592,101.046 
			388.608,101.046 		"/>
		<polygon style="fill:#263238;" points="401.602,134.048 402.642,134.048 403.768,99.92 402.729,99.92 		"/>
		<polygon style="opacity:0.3;fill:#FFFFFF;" points="401.602,134.048 402.642,134.048 403.768,99.92 402.729,99.92 		"/>
		<polygon style="opacity:0.2;fill:#FFFFFF;" points="386.106,98.795 389.958,135.799 402.079,135.799 403.532,98.795 		"/>
		<path style="fill:#263238;" d="M399.6,86.899c0,0,11.438,11.289,20.202,11.289l-2.719,1.783H399.6h-17.482l-2.719-1.783
			C388.162,98.188,399.6,86.899,399.6,86.899z"/>
		<path style="opacity:0.4;fill:#FFFFFF;" d="M379.403,98.187l2.715,1.78h34.965l2.715-1.78c-8.764,0-20.197-11.287-20.197-11.287
			S388.167,98.187,379.403,98.187z"/>
		<path style="opacity:0.2;fill:#FFFFFF;" d="M379.403,98.187l2.715,1.78h22.709c0.687-1.115,1.172-1.926,1.172-1.926
			c-6.094-2.827-6.398-11.14-6.398-11.14S388.167,98.187,379.403,98.187z"/>
		<path style="fill:#263238;" d="M393.128,409.758h12.944c1.366,0,2.473,1.107,2.473,2.473v2.465h-17.889v-2.465
			C390.655,410.865,391.762,409.758,393.128,409.758z"/>
		<path style="opacity:0.5;fill:#FFFFFF;" d="M393.128,409.758h12.944c1.366,0,2.473,1.107,2.473,2.473v2.465h-17.889v-2.465
			C390.655,410.865,391.762,409.758,393.128,409.758z"/>
	</g>
</g>
<g id="Speech_bubble_2">
	<g>
		<g>
			<path style="fill:#407BFF;" d="M313.717,132.204h26.953c5.118,0,9.268,4.149,9.268,9.268v11.185c0,5.118-4.149,9.268-9.268,9.268
				h-4.54l-0.107,9.785l-6.127-9.785h-16.179c-5.118,0-9.267-4.149-9.267-9.268v-11.185
				C304.45,136.353,308.599,132.204,313.717,132.204z"/>
			<path style="opacity:0.7;fill:#FFFFFF;" d="M313.717,132.204h26.953c5.118,0,9.268,4.149,9.268,9.268v11.185
				c0,5.118-4.149,9.268-9.268,9.268h-4.54l-0.107,9.785l-6.127-9.785h-16.179c-5.118,0-9.267-4.149-9.267-9.268v-11.185
				C304.45,136.353,308.599,132.204,313.717,132.204z"/>
		</g>
		<g>
			<path style="fill:#407BFF;" d="M337.696,146.424c0,1.034,0.838,1.872,1.872,1.872c1.034,0,1.872-0.838,1.872-1.872
				c0-1.034-0.838-1.872-1.872-1.872C338.534,144.552,337.696,145.39,337.696,146.424z"/>
			<circle style="fill:#407BFF;" cx="331.319" cy="146.424" r="1.872"/>
			<path style="fill:#407BFF;" d="M321.197,146.424c0,1.034,0.838,1.872,1.872,1.872c1.034,0,1.872-0.838,1.872-1.872
				c0-1.034-0.838-1.872-1.872-1.872C322.035,144.552,321.197,145.39,321.197,146.424z"/>
			<circle style="fill:#407BFF;" cx="314.82" cy="146.424" r="1.872"/>
		</g>
	</g>
</g>
<g id="Character_2">
	<g>
		<g>
			<path style="fill:#EBB376;" d="M314.955,212.324l-7.712-1.229l4.919-7.13c0,0,6.815,1.512,5.888,4.99L314.955,212.324z"/>
			<polygon style="fill:#EBB376;" points="301.352,206.081 307.663,201.387 312.162,203.965 307.243,211.095 			"/>
		</g>
		<path style="fill:#407BFF;" d="M369.704,188.466c0,0,7.264-2.822,15.259-1.729l-2.946,13.284l-14.174,1.34l-0.927-9.482
			L369.704,188.466z"/>
		<path style="fill:#263238;" d="M357.914,251.855c0,0-43.615,43.287-43.615,56.443c0,13.912,75.947,42.192,75.947,42.192
			l2.011-12.156c0,0-49.1-27.305-52.991-30.891c-2.286-2.107,38.497-39.97,38.497-39.97v-11.346L357.914,251.855z"/>
		<path style="fill:#263238;" d="M389.765,349.006l0.091-9.644c-0.012-0.336,0.251-0.619,0.587-0.631c0.003,0,0.007,0,0.01,0
			l7.642-0.398c0.831,0.008,1.502,0.683,1.504,1.515c-0.087,3.365-0.296,4.966-0.369,9.21c-0.032,2.604,0.153,7.755-0.451,11.309
			c-0.604,3.554-4.1,2.862-4.157,1.304c-0.154-3.695-2.498-8.741-4.376-11.181C389.926,350.062,389.756,349.54,389.765,349.006z"/>
		<path style="opacity:0.4;fill:#FFFFFF;enable-background:new    ;" d="M392.261,338.149l-2.02,12.16c0,0-12.2-4.54-26.82-10.88
			c-21.86-9.48-49.12-22.98-49.12-31.31c0-13.16,43.61-56.44,43.61-56.44l19.85,4.27v11.34c0,0-0.55,0.51-1.52,1.42
			c-2.23,2.08-6.7,6.28-11.78,11.18c-11.68,11.22-26.6,26.08-25.2,27.37c1.67,1.54,11.6,7.41,22.42,13.62
			C376.171,329.199,392.261,338.149,392.261,338.149z"/>
		<path style="opacity:0.2;enable-background:new    ;" d="M376.241,268.889c-2.23,2.08-6.7,6.28-11.78,11.18
			c2.86-9.38,10.34-16.47,10.34-16.47C375.721,265.109,376.161,266.929,376.241,268.889z"/>
		<path style="opacity:0.2;enable-background:new    ;" d="M392.261,338.149l-2.02,12.16c0,0-12.2-4.54-26.82-10.88
			c-1.26-6.54-1.67-13.25-1.74-18.55C376.171,329.199,392.261,338.149,392.261,338.149z"/>
		<path style="fill:#263238;" d="M366.667,406.839l9.642-0.212c0.336-0.023,0.626,0.231,0.649,0.567c0,0.003,0,0.007,0.001,0.01
			l0.638,7.626c0.018,0.831-0.636,1.523-1.467,1.551c-3.366,0.019-4.973-0.139-9.217-0.08c-2.604,0.05-7.746,0.396-11.317-0.095
			c-3.571-0.492-2.989-4.008-1.434-4.115c3.688-0.27,8.659-2.772,11.038-4.726C365.617,407.032,366.133,406.847,366.667,406.839z"/>
		<g>
			<path style="fill:#263238;" d="M364.522,206.229c-0.695,1.376-1.331,2.528-2.025,3.758c-0.685,1.207-1.39,2.399-2.117,3.58
				c-1.455,2.359-3.02,4.659-4.679,6.916c-1.663,2.256-3.448,4.454-5.416,6.557c-1.97,2.102-4.116,4.122-6.582,5.946l-0.191,0.141
				c-1.207,0.892-2.724,1.111-4.065,0.736c-2.031-0.581-3.46-1.364-4.82-2.154c-1.341-0.799-2.548-1.636-3.699-2.497
				c-2.302-1.72-4.403-3.521-6.44-5.361c-2.027-1.848-3.953-3.766-5.837-5.71c-0.929-0.986-1.845-1.98-2.753-2.983l-1.353-1.513
				l-0.673-0.764c-0.243-0.242-0.425-0.529-0.162-1.28c0.692-1.975,2.198-3.432,4.01-4.126l0.571-0.215
				c0.719-0.271,0.997-0.083,1.214,0.149l0.714,0.653l1.444,1.3c0.969,0.862,1.945,1.715,2.929,2.555
				c1.943,1.706,3.917,3.365,5.895,4.971c1.972,1.607,3.979,3.149,5.99,4.493c1.003,0.674,2.01,1.29,2.971,1.794
				c0.943,0.501,1.909,0.893,2.438,0.996l-4.256,0.876c3.458-2.819,6.542-6.712,9.346-10.779c1.4-2.05,2.719-4.181,3.979-6.354
				c0.632-1.084,1.246-2.182,1.839-3.286c0.58-1.083,1.188-2.263,1.66-3.257l0.028-0.058c1.323-2.788,4.657-3.976,7.445-2.653
				c2.788,1.323,3.976,4.657,2.653,7.445C364.567,206.14,364.539,206.197,364.522,206.229z"/>
		</g>
		<g>
			<path style="fill:#263238;" d="M359.91,243.416l37.241,1.299c0,0,0.241,12.212-2.577,21.301L357.61,253.14L359.91,243.416z"/>
			<path style="opacity:0.4;fill:#FFFFFF;enable-background:new    ;" d="M359.91,243.416l37.241,1.299
				c0,0,0.241,12.212-2.577,21.301L357.61,253.14L359.91,243.416z"/>
		</g>
		<g>
			<path style="fill:#263238;" d="M373.585,246.285c0,0-6.426,59.511-6.716,79.968c-0.327,22.43-1.599,80.595-1.599,80.595
				l11.994,1.826c0,0,6.67-55.102,8.926-76.836c2.563-24.77,9.681-75.129,9.681-75.129L373.585,246.285z"/>
			<path style="opacity:0.4;fill:#FFFFFF;enable-background:new    ;" d="M373.585,246.285c0,0-6.426,59.511-6.716,79.968
				c-0.327,22.43-1.599,80.595-1.599,80.595l11.994,1.826c0,0,6.67-55.102,8.926-76.836c2.563-24.77,9.681-75.129,9.681-75.129
				L373.585,246.285z"/>
		</g>
		<g>
			<g>
				<polygon style="fill:#263238;" points="365.943,248.775 383.447,249.884 383.665,245.612 366.151,244.715 				"/>
				<polygon style="fill:#263238;" points="384.996,245.68 384.776,249.969 396.741,250.727 396.968,246.293 				"/>
				<polygon style="fill:#263238;" points="364.821,244.647 359.721,244.386 359.043,248.338 364.614,248.691 				"/>
			</g>
			
				<rect x="369.717" y="244.815" transform="matrix(0.9987 0.0511 -0.0511 0.9987 13.1256 -18.7471)" style="fill:#FFFFFF;" width="6.898" height="4.97"/>
		</g>
		<path style="fill:#407BFF;" d="M356.407,193.06c-3.173,0.616-12.465,22.654-12.465,22.654l8.775,11.102l3.842-5.362
			L356.407,193.06z"/>
		<path style="opacity:0.2;enable-background:new    ;" d="M356.484,207.087l0.072,14.368l-3.84,5.364l-2.182-2.769
			C349.948,215.825,354.219,209.71,356.484,207.087z"/>
		<path style="fill:#263238;" d="M356.407,193.06c0,0,24.059-3.67,42.482-1.992c0,0-4.613,35.585-2.201,54.174l-36.168-1.233
			C360.52,244.01,352.309,212.991,356.407,193.06z"/>
		<path style="fill:#EBB376;" d="M384.575,190.859c-3.112,3.546-11.745,3.344-11.745,3.344s-5.47-0.851-4.544-2.635
			c3.067-0.871,4.415-2.501,4.828-4.438c0.239-1.128,0.155-2.357-0.088-3.605c-0.12-0.656-0.296-1.315-0.488-1.963l9.627-8.973
			C381.37,177.881,380.756,187.521,384.575,190.859z"/>
		<path style="opacity:0.2;enable-background:new    ;" d="M380.298,177.81c0.298,6.353-4.687,8.679-7.184,9.32
			c0.239-1.128,0.155-2.357-0.088-3.605L380.298,177.81z"/>
		<g>
			<path style="fill:#407BFF;" d="M384.355,188.917l-4.609,2.986c0,0-0.892,44.692,10.87,71.698l11.335-1.579l-3.062-70.954
				L384.355,188.917z"/>
			<polygon style="fill:#407BFF;" points="379.746,191.903 384.964,186.737 388.87,189.276 385.093,195.432 			"/>
			<polygon style="opacity:0.2;fill:#FFFFFF;enable-background:new    ;" points="379.746,191.903 384.964,186.737 388.87,189.276 
				385.093,195.432 			"/>
		</g>
		<g>
			<path style="fill:#407BFF;" d="M368.286,191.568c-2.035,3.625-5.135,60.219-12.284,69.921l-5.522-2.809
				c7.131-12.976,1.582-61.161,5.928-65.62L368.286,191.568z"/>
			<polygon style="fill:#407BFF;" points="369.704,188.466 364.991,191.941 365.102,195.292 369.162,191.68 			"/>
			<polygon style="opacity:0.2;fill:#FFFFFF;enable-background:new    ;" points="369.704,188.466 364.991,191.941 365.102,195.292 
				369.162,191.68 			"/>
		</g>
		<path style="opacity:0.2;enable-background:new    ;" d="M400.139,205.689l0.915,10.821c-3.848-5.382-2.77-14.16-2.77-14.16
			S399.071,203.719,400.139,205.689z"/>
		<g>
			<path style="fill:#263238;" d="M368.841,161.769c3.13,1.641,2.187,5.133-3.791,11.108c-3.062-3.159-4.27-9.83-2.34-11.762
				C364.639,159.184,366.114,160.351,368.841,161.769z"/>
			<path style="fill:#EBB376;" d="M381.952,165.761c0.493,7.137,1.138,11.283-1.954,15.387c-4.66,6.168-13.824,4.074-16.441-2.774
				c-2.342-6.152-2.761-16.792,3.798-20.512c4.673-2.682,10.636-1.068,13.319,3.605C381.427,162.78,381.865,164.25,381.952,165.761z
				"/>
			<path style="fill:#263238;" d="M371.635,169.087c0.075,0.576-0.171,1.084-0.548,1.131c-0.376,0.047-0.737-0.374-0.812-0.95
				c-0.075-0.576,0.164-1.081,0.537-1.136C371.186,168.077,371.522,168.525,371.635,169.087z"/>
			<path style="fill:#263238;" d="M365.087,169.954c0.075,0.576-0.171,1.084-0.548,1.131c-0.376,0.047-0.745-0.372-0.823-0.955
				c-0.078-0.584,0.171-1.084,0.548-1.131C364.641,168.952,365.012,169.378,365.087,169.954z"/>
			<path style="fill:#D58745;" d="M367.259,169.945c-0.457,1.852-1.166,3.632-2.108,5.289c1.165,0.815,2.824,0.151,2.824,0.151
				L367.259,169.945z"/>
			<path style="fill:#263238;" d="M373.154,166.787c0.076-0.001,0.15-0.027,0.209-0.075c0.135-0.132,0.139-0.347,0.01-0.484
				c-0.752-0.805-1.849-1.191-2.94-1.036c-0.179,0.029-0.301,0.198-0.272,0.378c0.001,0.008,0.003,0.016,0.005,0.023
				c0.043,0.181,0.218,0.297,0.401,0.267l0,0c0.861-0.109,1.722,0.205,2.311,0.842C372.954,166.768,373.054,166.799,373.154,166.787
				z"/>
			<path style="fill:#263238;" d="M361.815,168.137c0.131-0.019,0.24-0.108,0.284-0.233c0.25-0.832,0.884-1.494,1.704-1.781
				c0.182-0.05,0.29-0.236,0.243-0.419c-0.049-0.179-0.231-0.288-0.411-0.246c-1.045,0.347-1.857,1.178-2.181,2.231
				c-0.06,0.176,0.034,0.368,0.21,0.428c0.002,0,0.003,0.001,0.005,0.002C361.716,168.134,361.766,168.14,361.815,168.137z"/>
			<path style="fill:#263238;" d="M378.31,159.856c-3.161,1.568-2.287,5.083,3.563,11.175c3.13-3.095,4.48-9.747,2.581-11.706
				C382.556,157.366,381.071,158.492,378.31,159.856z"/>
			<path style="fill:#EBB376;" d="M386.066,170.981c-0.268,1.781-1.231,3.382-2.678,4.454c-1.929,1.398-3.716-0.129-3.875-2.379
				c-0.141-2.029,0.697-5.204,2.963-5.709C384.742,166.842,386.385,168.796,386.066,170.981z"/>
			<path style="fill:#263238;" d="M383.966,158.889c0,0,0.881-2.697-3.836-5.764c-4.717-3.067-12.929-1.583-18.481,1.715
				c-5.552,3.298,0.355,8.61,2.878,8.945l-0.628-0.94c0,0,4.383,0.688,8.068-0.631l-1.564-0.678
				C370.403,161.536,380.653,160.608,383.966,158.889z"/>
			<g>
				<path style="fill:#263238;" d="M369.009,177.024c0.496,0.795,1.083,2.33,1.083,2.33c0.149-0.028,0.297-0.056,0.444-0.092
					c2.005-0.431,2.794-1.294,3.059-2.12c0.143-0.452,0.125-0.898,0.063-1.251c-0.067-0.409-0.208-0.686-0.208-0.686
					c-0.927,0.864-2.765,1.41-3.76,1.66C369.276,176.975,369.009,177.024,369.009,177.024z"/>
				<path style="fill:#FFFFFF;" d="M369.691,176.866l0.337,0.679c1.888-0.411,3.162-0.953,3.631-1.653
					c-0.067-0.409-0.208-0.686-0.208-0.686C372.524,176.07,370.685,176.615,369.691,176.866z"/>
				<path style="fill:#A24E3F;" d="M370.536,179.262c2.005-0.431,2.794-1.294,3.059-2.12c-0.678,0.173-1.476,0.458-2.132,0.92
					C370.96,178.414,370.689,178.848,370.536,179.262z"/>
			</g>
		</g>
		<path style="opacity:0.2;enable-background:new    ;" d="M401.854,231.673c-6.836-6.585-10.403-19.791-10.403-19.791
			c0.587-5.029,3.791-11.158,7.917-15.218l0.773,9.025l0.913,10.822L401.854,231.673z"/>
		<g>
			<path style="fill:#263238;" d="M400.818,196.002c1.136,1.042,2.072,1.966,3.068,2.967c0.976,0.987,1.932,1.989,2.872,3.008
				c1.877,2.04,3.665,4.17,5.388,6.379c1.721,2.212,3.352,4.527,4.843,6.991c1.489,2.466,2.852,5.08,3.938,7.948l0.06,0.158
				c0.538,1.422,0.347,2.961-0.37,4.176c-0.732,1.225-1.622,2.126-2.475,2.82c-0.86,0.697-1.699,1.195-2.513,1.618
				c-1.629,0.834-3.159,1.342-4.655,1.767c-2.984,0.822-5.832,1.243-8.656,1.552c-2.821,0.292-5.607,0.402-8.377,0.437
				c-1.386-0.003-2.768-0.027-4.149-0.072l-2.072-0.084l-1.04-0.055c-0.352,0.003-0.689-0.069-1.055-0.784
				c-0.914-1.789-0.921-3.803-0.19-5.517l0.342-0.792c0.303-0.702,0.635-0.767,0.952-0.759l0.966-0.052l1.942-0.13
				c1.295-0.096,2.588-0.213,3.874-0.348c2.574-0.236,5.128-0.556,7.615-0.956c2.479-0.394,4.92-0.907,7.065-1.624
				c1.061-0.356,2.057-0.773,2.787-1.209c0.752-0.412,1.12-0.918,0.973-0.788l-0.31,4.334c-1.776-4.093-4.687-8.117-7.84-11.919
				c-1.594-1.903-3.287-3.751-5.037-5.553c-0.872-0.903-1.762-1.791-2.664-2.661c-0.886-0.852-1.856-1.757-2.685-2.481l-0.049-0.042
				c-2.325-2.03-2.564-5.561-0.534-7.886c2.03-2.325,5.561-2.564,7.886-0.534C400.744,195.935,400.791,195.977,400.818,196.002z"/>
		</g>
		<g>
			<path style="fill:#407BFF;" d="M398.097,190.628c4.779,0.667,17.698,20.93,17.698,20.93l-12.134,11.954l-9.889-11.215
				c0,0-3.579-8.881-2.187-14.832C392.977,191.513,398.097,190.628,398.097,190.628z"/>
		</g>
		<g>
			<polygon style="fill:#263238;" points="381.275,241.085 371.207,241.085 369.868,224.576 382.615,224.576 			"/>
			<polygon style="opacity:0.4;fill:#FFFFFF;enable-background:new    ;" points="381.275,241.085 371.207,241.085 369.868,224.576 
				382.615,224.576 			"/>
			<path style="opacity:0.6;fill:#FFFFFF;enable-background:new    ;" d="M379.244,231.887c0,1.658-1.344,3.003-3.003,3.003
				c-1.658,0-3.003-1.344-3.003-3.003c0-1.658,1.344-3.003,3.003-3.003C377.9,228.884,379.244,230.229,379.244,231.887z"/>
			<polygon style="fill:#263238;" points="383.174,225.014 369.309,225.014 370.648,223.512 381.834,223.512 			"/>
			<polygon style="opacity:0.6;fill:#FFFFFF;enable-background:new    ;" points="383.174,225.014 369.309,225.014 370.648,223.512 
				381.834,223.512 			"/>
		</g>
		<g>
			<path style="fill:#EBB376;" d="M386.736,234.701l-5.218,2.98l0.471-8.649c0,0,4.759-2.314,5.628,1.18
				C388.299,232.959,386.736,234.701,386.736,234.701z"/>
			<polygon style="fill:#EBB376;" points="375.876,237.483 375.876,230.269 381.989,229.032 381.518,237.681 			"/>
		</g>
	</g>
</g>
<g id="Speech_bubble_1">
	<g>
		<g>
			<path style="fill:#407BFF;" d="M188.554,182.597h-26.953c-5.118,0-9.268,4.149-9.268,9.268v11.185
				c0,5.118,4.149,9.268,9.268,9.268h4.54l0.107,9.785l6.127-9.785h16.179c5.118,0,9.267-4.149,9.267-9.268v-11.185
				C197.821,186.746,193.672,182.597,188.554,182.597z"/>
		</g>
		<g>
			<path style="fill:#FFFFFF;" d="M164.575,196.817c0,1.034-0.838,1.872-1.872,1.872c-1.034,0-1.872-0.838-1.872-1.872
				c0-1.034,0.838-1.872,1.872-1.872C163.737,194.945,164.575,195.783,164.575,196.817z"/>
			<circle style="fill:#FFFFFF;" cx="170.952" cy="196.817" r="1.872"/>
			<path style="fill:#FFFFFF;" d="M181.074,196.817c0,1.034-0.838,1.872-1.872,1.872c-1.034,0-1.872-0.838-1.872-1.872
				c0-1.034,0.838-1.872,1.872-1.872C180.236,194.945,181.074,195.783,181.074,196.817z"/>
			<circle style="fill:#FFFFFF;" cx="187.452" cy="196.817" r="1.872"/>
		</g>
	</g>
</g>
<g id="Character_1">
	<g>
		<g>
			<polygon style="fill:#263238;" points="94.408,353.148 82.847,417.221 90.195,417.221 101.755,353.148 			"/>
			<polygon style="fill:#263238;" points="235.902,353.148 224.341,417.221 231.688,417.221 243.249,353.148 			"/>
			<polygon style="opacity:0.3;fill:#FFFFFF;" points="94.408,353.148 82.847,417.221 90.195,417.221 101.755,353.148 			"/>
			<polygon style="opacity:0.3;fill:#FFFFFF;" points="235.902,353.148 224.341,417.221 231.688,417.221 243.249,353.148 			"/>
			<rect x="89.331" y="383.204" style="fill:#263238;" width="209.32" height="7.82"/>
			<rect x="89.331" y="383.204" style="opacity:0.5;fill:#FFFFFF;" width="209.32" height="7.82"/>
			<polygon style="fill:#263238;" points="146.383,353.148 157.943,417.221 165.29,417.221 153.73,353.148 			"/>
			<polygon style="fill:#263238;" points="287.877,353.148 299.437,417.221 306.784,417.221 295.224,353.148 			"/>
			<polygon style="opacity:0.3;fill:#FFFFFF;" points="146.383,353.148 157.943,417.221 165.29,417.221 153.73,353.148 			"/>
			<polygon style="opacity:0.3;fill:#FFFFFF;" points="287.877,353.148 299.437,417.221 306.784,417.221 295.224,353.148 			"/>
			<polygon style="fill:#263238;" points="231.814,358.874 224.503,358.874 212.265,290.841 219.576,290.841 			"/>
			<polygon style="opacity:0.3;fill:#FFFFFF;" points="231.814,358.874 224.503,358.874 212.265,290.841 219.576,290.841 			"/>
			<polygon style="fill:#263238;" points="108.641,355.874 101.33,355.874 89.092,287.841 96.404,287.841 			"/>
			<polygon style="fill:#263238;" points="171.228,355.874 163.917,355.874 151.679,287.841 158.99,287.841 			"/>
			<polygon style="opacity:0.3;fill:#FFFFFF;" points="108.641,355.874 101.33,355.874 89.092,287.841 96.404,287.841 			"/>
			<polygon style="opacity:0.3;fill:#FFFFFF;" points="171.228,355.874 163.917,355.874 151.679,287.841 158.99,287.841 			"/>
			<polygon style="fill:#263238;" points="242.441,295.487 70.446,295.487 68.155,282.754 240.15,282.754 			"/>
			<polygon style="fill:#263238;" points="246.584,318.52 74.589,318.52 72.299,305.787 244.294,305.787 			"/>
			<polygon style="fill:#263238;" points="250.727,341.552 78.732,341.552 76.441,328.819 248.436,328.819 			"/>
			<rect x="83.634" y="350.638" style="fill:#263238;" width="224.685" height="9.257"/>
			<polygon style="opacity:0.5;fill:#FFFFFF;" points="242.441,295.487 70.446,295.487 68.155,282.754 240.15,282.754 			"/>
			<polygon style="opacity:0.5;fill:#FFFFFF;" points="246.584,318.52 74.589,318.52 72.299,305.787 244.294,305.787 			"/>
			<polygon style="opacity:0.5;fill:#FFFFFF;" points="250.727,341.552 78.732,341.552 76.441,328.819 248.436,328.819 			"/>
			<rect x="83.634" y="350.638" style="opacity:0.5;fill:#FFFFFF;" width="224.685" height="9.257"/>
			<rect x="143.71" y="350.638" style="opacity:0.2;fill:#FFFFFF;" width="164.608" height="9.257"/>
		</g>
		<g>
			<g>
				<path style="fill:#407BFF;" d="M118.185,321.294v-2.977h-5.207v2.977c0,0.801-0.339,1.565-0.932,2.103l0,0
					c-0.593,0.538-0.931,1.302-0.931,2.103v23.865c0,0.831,0.674,1.505,1.506,1.505h5.923c0.831,0,1.506-0.674,1.506-1.505V325.5
					c0-0.801-0.339-1.565-0.932-2.103l0,0C118.523,322.859,118.185,322.095,118.185,321.294z"/>
				<path style="opacity:0.6;fill:#FFFFFF;enable-background:new    ;" d="M120.048,332.992V325.5c0-0.801-0.338-1.565-0.932-2.103
					c-0.593-0.538-0.932-1.302-0.932-2.103v-2.977h-5.208v2.977c0,0.801-0.338,1.565-0.931,2.103
					c-0.593,0.538-0.932,1.302-0.932,2.103v7.492H120.048z"/>
				<path style="opacity:0.6;fill:#FFFFFF;enable-background:new    ;" d="M111.114,342.353v7.012c0,0.831,0.674,1.505,1.506,1.505
					h5.923c0.832,0,1.505-0.674,1.505-1.505v-7.012H111.114z"/>
				<path style="fill:#407BFF;" d="M118.321,319.841h-5.48c-0.184,0-0.333-0.149-0.333-0.333v-1.675
					c0-0.184,0.149-0.333,0.333-0.333h5.48c0.184,0,0.333,0.149,0.333,0.333v1.675C118.654,319.692,118.505,319.841,118.321,319.841
					z"/>
			</g>
		</g>
		<g id="_x3C_Group_x3E__18_">
			<g>
				<path style="fill:#DC897C;" d="M167.788,270.646c3.605,3.202,7.347,6.459,11.07,9.519c1.865,1.531,3.756,3.013,5.628,4.364
					c0.936,0.669,1.876,1.3,2.767,1.824c0.441,0.264,0.871,0.503,1.24,0.68c0.348,0.176,0.711,0.293,0.655,0.297
					c-0.019,0.022-0.204-0.031-0.727,0.099c-0.094,0.033-0.305,0.086-0.446,0.159l-0.109,0.055l0.017-0.008l0.034-0.016
					c0.052-0.027,0.079-0.022,0.158-0.066c0.301-0.159,0.709-0.412,1.132-0.718c0.853-0.597,1.768-1.324,2.666-2.079
					c1.798-1.528,3.625-3.158,5.417-4.829l10.85-10.154l3.667,3.112c-2.866,4.2-5.895,8.217-9.161,12.131
					c-1.651,1.942-3.318,3.882-5.173,5.758c-0.93,0.943-1.879,1.881-2.991,2.823c-0.557,0.467-1.165,0.942-1.927,1.436
					c-0.185,0.122-0.441,0.261-0.661,0.385l-0.172,0.095l-0.086,0.047l-0.218,0.097c-0.289,0.122-0.64,0.251-0.89,0.305
					c-1.13,0.276-1.952,0.212-2.586,0.14c-1.295-0.172-2.117-0.483-2.92-0.781c-0.782-0.305-1.468-0.628-2.123-0.96
					c-1.301-0.672-2.471-1.378-3.608-2.1c-2.269-1.439-4.362-2.971-6.413-4.535c-4.097-3.149-7.919-6.42-11.685-9.952
					L167.788,270.646z"/>
			</g>
			<path style="fill:#407BFF;" d="M165.659,268.437c6.004,1.595,19.643,15.166,19.643,15.166l-7.941,9.696l-12.508-8.674
				L165.659,268.437z"/>
			<path style="opacity:0.7;fill:#FFFFFF;" d="M185.305,283.607l-7.947,9.689l-4.616-3.201l-4.747-3.299l-3.146-2.177l0.806-16.178
				C171.664,270.031,185.305,283.607,185.305,283.607z"/>
			<path style="opacity:0.1;" d="M172.742,290.095l-4.747-3.299c-0.533-1.992-0.838-4.072-0.686-5.933
				C167.309,280.863,171.076,283.531,172.742,290.095z"/>
			<g>
				<path style="fill:#DC897C;" d="M210.022,273.878l9.341-1.65l-2.729-7.832c0,0-6.692,0.236-8.513,5.451L210.022,273.878z"/>
				<polygon style="fill:#DC897C;" points="224.683,268.069 221.252,262.719 216.635,264.396 219.363,272.228 				"/>
			</g>
			<path style="fill:#407BFF;" d="M165.613,268.369c0,0,8.362,15.541,6.131,53.607c-10.614,1.477-30.062,4.182-35.227,4.9
				c-0.995-5.374-1.266-32.226-10.026-56.98c0,0,8.352-2.729,21.101-3.132C160.892,266.343,165.613,268.369,165.613,268.369z"/>
			<path style="opacity:0.7;fill:#FFFFFF;" d="M171.74,321.972c-10.615,1.481-30.059,4.181-35.219,4.899
				c-0.719-3.865-1.067-18.867-4.474-36.199c-0.479-2.504-1.034-5.052-1.666-7.621v-0.011c-1.067-4.366-2.341-8.786-3.887-13.14
				c0,0,8.35-2.733,21.099-3.135c13.304-0.425,18.017,1.6,18.017,1.6S173.972,283.912,171.74,321.972z"/>
			<g>
				<path style="fill:#DC897C;" d="M156.333,264.855c0,0-2.004,5.491-3.085,8.618c-4.314-3.115-7.099-5.523-11.944-6.987
					c3.028-3.6,1.123-12.361-0.348-17.093l2.043,1.401l8.042,5.476c-0.286,2.02-0.336,4.091,0.459,5.691
					c0.011,0.001,0.011,0.001,0.011,0.001C152.25,263.428,153.695,264.522,156.333,264.855z"/>
				<path style="opacity:0.2;" d="M151.5,261.962c-3.481-1.02-7.402-3.996-8.084-7.204c-0.313-1.476-0.462-2.94-0.417-3.963
					l8.042,5.476C150.755,258.291,150.706,260.362,151.5,261.962z"/>
				<polygon style="fill:#407BFF;" points="136.093,267.167 139.288,263.749 148.602,266.295 152.979,272.162 154.07,265.861 
					156.008,263.869 159.758,265.845 159.453,269.817 156.761,268.706 153.943,274.066 146.633,270.384 144.789,272.392 				"/>
				<polygon style="opacity:0.6;fill:#FFFFFF;" points="136.093,267.167 139.288,263.749 148.602,266.295 152.979,272.162 
					154.07,265.861 156.008,263.869 159.758,265.845 159.453,269.817 156.761,268.706 153.943,274.066 146.633,270.384 
					144.789,272.392 				"/>
				<polygon style="opacity:0.1;" points="153.943,274.066 147.343,268.382 144.789,272.392 146.633,270.384 				"/>
				<polygon style="opacity:0.1;" points="153.943,274.066 155.368,267.501 159.453,269.817 156.761,268.706 				"/>
			</g>
			<g>
				<path style="fill:#263238;" d="M152.083,233.095c3.474,1.086,6.44,10.136,2.492,12.641
					C150.627,248.242,145.503,231.038,152.083,233.095z"/>
				<path style="fill:#DC897C;" d="M138.286,244.961c2.206,6.322,3.173,10.122,7.371,12.617c6.314,3.753,13.477-1.141,13.217-7.926
					c-0.234-6.107-3.801-15.419-10.858-16.424C141.064,232.238,136.081,238.639,138.286,244.961z"/>
				<path style="fill:#263238;" d="M143.459,236.251l-1.116-5.63c-1.442,0.85-3.017,1.333-4.519,1.182
					c-6.909-0.693-11.477,4.285-7.865,7.634c-2.982,1.788-0.663,5.892,1.819,8.378c3.448,3.454,6.819,4.853,8.755,2.83
					c1.81-1.202,1.244-7.941,0.276-10.339C139.349,236.693,143.459,236.251,143.459,236.251z"/>
				<path style="fill:#DC897C;" d="M137.617,251.921c1.332,1.254,3.031,1.882,4.421,1.948c2.091,0.1,2.32-1.854,1.055-3.56
					c-1.138-1.535-3.598-3.437-5.367-2.73C135.983,248.276,136.095,250.487,137.617,251.921z"/>
				<path style="fill:#DE5753;" d="M152.748,243.62c0,0,2.048,2.722,3.777,3.854c-0.689,1.091-2.386,1.085-2.386,1.085
					L152.748,243.62z"/>
				<path style="fill:#263238;" d="M145.844,242.433c-0.05-0.015-0.097-0.042-0.137-0.082c-0.123-0.125-0.122-0.327,0.004-0.451
					c1.242-1.221,2.683-0.888,2.743-0.872c0.165,0.023,0.276,0.213,0.234,0.385c-0.042,0.171-0.214,0.276-0.384,0.235
					c-0.06-0.014-1.17-0.252-2.146,0.708C146.072,242.439,145.951,242.465,145.844,242.433z"/>
				<path style="fill:#263238;" d="M156.818,239.291c-0.072,0.072-0.178,0.108-0.285,0.087c-1.423-0.274-2.279,0.547-2.287,0.555
					c-0.126,0.124-0.327,0.122-0.451-0.004c-0.123-0.125-0.121-0.326,0.003-0.449c0,0,0.001-0.001,0.001-0.001
					c0.045-0.044,1.107-1.063,2.855-0.727c0.173,0.033,0.286,0.201,0.253,0.373C156.894,239.191,156.862,239.248,156.818,239.291z"
					/>
				<path style="fill:#263238;" d="M137.517,232.578c0,0,4.079-9.441,12.995-8.207c0,0-1.655,0.492-2.324,1.184
					c0,0,7.622-1.207,10.392,4.009l-1.529-0.756c0,0,2.269,4.324,0.19,7.427l-0.534-1.449c0,0-2.863,4.118-7.627,3.343l1.56-0.938
					c0,0-8.087,0.322-10.233-1.593C138.26,233.684,137.517,232.578,137.517,232.578z"/>
				<path style="fill:#263238;" d="M148.078,245.034c0.186,0.559,0.632,0.911,0.997,0.785c0.365-0.126,0.51-0.68,0.324-1.239
					c-0.186-0.559-0.632-0.91-0.997-0.785C148.037,243.921,147.892,244.475,148.078,245.034z"/>
				<path style="fill:#263238;" d="M154.383,242.867c0.186,0.559,0.632,0.91,0.997,0.785c0.365-0.126,0.51-0.68,0.324-1.239
					c-0.186-0.559-0.632-0.91-0.997-0.785C154.342,241.753,154.198,242.308,154.383,242.867z"/>
				<g>
					<path style="fill:#263238;" d="M153.791,250.918c-0.39,0.926-0.749,2.65-0.749,2.65c-0.162-0.004-0.324-0.009-0.486-0.022
						c-2.196-0.115-3.178-0.894-3.599-1.723c-0.229-0.454-0.285-0.929-0.28-1.313c0.001-0.445,0.103-0.761,0.103-0.761
						c1.128,0.757,3.167,1.021,4.262,1.117C153.501,250.912,153.791,250.918,153.791,250.918z"/>
					<path style="fill:#FFFFFF;" d="M153.043,250.867l-0.241,0.776c-2.069-0.113-3.51-0.471-4.125-1.132
						c0.001-0.445,0.103-0.761,0.103-0.761C149.908,250.507,151.948,250.771,153.043,250.867z"/>
					<path style="fill:#A24E3F;" d="M152.556,253.547c-2.196-0.115-3.178-0.894-3.599-1.723c0.747,0.068,1.64,0.233,2.414,0.611
						C151.964,252.722,152.324,253.135,152.556,253.547z"/>
				</g>
			</g>
			<g>
				<polygon style="fill:#DC897C;" points="238.856,400.857 245.11,414.433 251.785,409.592 246.079,397.23 				"/>
				<polygon style="opacity:0.2;enable-background:new    ;" points="238.855,400.858 241.581,406.79 249.395,404.414 
					246.08,397.229 				"/>
			</g>
			<g>
				<polygon style="fill:#DC897C;" points="258.688,369.68 268.664,380.811 273.616,374.219 264.522,364.086 				"/>
				<polygon style="opacity:0.2;enable-background:new    ;" points="258.687,369.681 263.04,374.547 269.807,369.975 
					264.523,364.085 				"/>
			</g>
			<g>
				<g>
					<path style="fill:#407BFF;" d="M252.18,408.72c0.016,0.018,0.018,0.046,0.039,0.058c0.024,0.006,0.05,0,0.073-0.009
						c0.737,0.198,1.493,0.318,2.256,0.353c0.57,0.079,1.15-0.06,1.623-0.387c0.297-0.287,0.404-0.72,0.271-1.112
						c-0.041-0.258-0.208-0.477-0.448-0.58c-0.561-0.23-1.523,0.125-2.346,0.532c0.502-0.679,0.893-1.471,0.796-1.999
						c-0.067-0.347-0.343-0.607-0.696-0.626c-0.312-0.045-0.59,0.04-0.825,0.249c-0.867,0.812-0.665,3.238-0.663,3.37
						c0,0.001,0.147-0.036,0.147-0.035c0,0.001,0.001,0.001,0.001,0.002c0,0.001-0.148,0.045-0.148,0.046
						c0.001,0.009-0.136,0.05-0.134,0.059C252.138,408.672,252.154,408.699,252.18,408.72z M252.682,408.099
						c-0.064,0.038-0.118,0.072-0.172,0.105c0-0.815,0.098-2.178,0.619-2.655c0.113-0.115,0.269-0.178,0.431-0.173l0.098,0.009
						c0.285,0.04,0.357,0.181,0.371,0.298C254.102,406.263,253.385,407.44,252.682,408.099z M252.822,408.52
						c1.012-0.612,2.456-1.3,3.013-1.068c0.119,0.05,0.202,0.158,0.219,0.285c0.075,0.248,0.015,0.518-0.159,0.71
						C255.481,408.833,254.352,408.856,252.822,408.52z"/>
				</g>
				<path style="fill:#263238;" d="M251.531,407.593l-9.642-0.212c-0.336-0.023-0.626,0.231-0.649,0.567c0,0.003,0,0.007-0.001,0.01
					l-0.638,7.626c-0.018,0.831,0.636,1.523,1.467,1.551c3.366,0.019,4.973-0.14,9.217-0.08c2.604,0.05,7.746,0.396,11.317-0.095
					c3.571-0.492,2.989-4.008,1.434-4.114c-3.688-0.27-8.659-2.772-11.038-4.726C252.581,407.787,252.065,407.601,251.531,407.593z"
					/>
			</g>
			<g>
				<g>
					<path style="fill:#407BFF;" d="M273.205,372.589c0.023,0.007,0.04,0.029,0.064,0.028c0.024-0.008,0.042-0.026,0.057-0.046
						c0.729-0.226,1.432-0.528,2.096-0.906c0.524-0.238,0.94-0.664,1.166-1.193c0.098-0.402-0.043-0.825-0.364-1.085
						c-0.172-0.196-0.431-0.292-0.688-0.251c-0.598,0.105-1.221,0.918-1.7,1.702c0.063-0.842-0.03-1.721-0.394-2.116
						c-0.242-0.257-0.614-0.331-0.923-0.159c-0.287,0.128-0.477,0.349-0.564,0.651c-0.3,1.149,1.165,3.093,1.237,3.204
						c0.001,0.001,0.105-0.109,0.105-0.108c0.001,0.001,0.001,0.001,0.002,0.001c0,0.001-0.101,0.117-0.1,0.118
						c0.006,0.007-0.088,0.115-0.082,0.121C273.143,372.571,273.172,372.585,273.205,372.589z M273.297,371.796
						c-0.034,0.067-0.062,0.124-0.09,0.181c-0.435-0.689-1.079-1.894-0.893-2.576c0.034-0.158,0.133-0.294,0.272-0.376l0.088-0.045
						c0.262-0.119,0.399-0.037,0.473,0.054C273.518,369.485,273.54,370.863,273.297,371.796z M273.641,372.076
						c0.529-1.058,1.383-2.41,1.978-2.511c0.127-0.021,0.255,0.026,0.338,0.124c0.196,0.17,0.289,0.43,0.244,0.685
						C276.056,370.922,275.114,371.544,273.641,372.076z"/>
				</g>
				<path style="fill:#263238;" d="M272.054,371.982l-8.267,4.966c-0.296,0.16-0.406,0.53-0.246,0.826
					c0.002,0.003,0.003,0.006,0.005,0.009l3.53,6.789c0.428,0.713,1.35,0.949,2.068,0.529c2.856-1.78,4.131-2.772,7.752-4.986
					c2.229-1.347,6.763-3.799,9.52-6.12c2.758-2.322,0.389-4.985-0.983-4.245c-3.263,1.74-8.802,2.277-11.857,1.894
					C273.046,371.585,272.51,371.703,272.054,371.982z"/>
			</g>
			<path style="opacity:0.1;" d="M132.047,290.672c-0.479-2.504-1.034-5.052-1.666-7.621v-0.011
				c0.414-3.397,0.882-6.347,0.882-6.347S133.985,285.131,132.047,290.672z"/>
			<g>
				<path style="fill:#DC897C;" d="M131.01,280.61c-4.882,0.879-9.894,1.837-14.728,2.91c-2.417,0.545-4.815,1.133-7.071,1.806
					c-1.118,0.338-2.21,0.717-3.138,1.103c-0.456,0.189-0.887,0.392-1.153,0.545c-0.135,0.074-0.221,0.134-0.236,0.129
					c0.001-0.024,0.106-0.092,0.326-0.524c0.054-0.113,0.094-0.224,0.16-0.408c0.027-0.084,0.048-0.17,0.063-0.256l0.033-0.168
					c0.026-0.227,0.027-0.394,0.009-0.536c-0.042-0.285-0.081-0.333-0.092-0.332c-0.018,0.036,0.125,0.354,0.349,0.699
					c0.454,0.711,1.179,1.558,1.967,2.368c1.603,1.632,3.449,3.276,5.367,4.841c3.834,3.148,7.924,6.23,11.986,9.227l-2.391,4.173
					c-4.804-2.182-9.395-4.61-13.896-7.462c-2.234-1.453-4.464-2.949-6.628-4.81c-1.086-0.941-2.166-1.935-3.25-3.284
					c-0.539-0.685-1.087-1.462-1.576-2.623c-0.235-0.598-0.466-1.268-0.542-2.196c-0.033-0.461-0.035-0.952,0.053-1.494
					c0.021-0.137,0.039-0.256,0.073-0.405c0.04-0.163,0.085-0.325,0.136-0.485c0.104-0.341,0.221-0.594,0.347-0.851
					c0.516-1.003,1.058-1.554,1.527-2.015c0.463-0.433,0.892-0.758,1.293-1.038c0.804-0.557,1.519-0.941,2.223-1.3
					c1.399-0.703,2.721-1.211,4.033-1.695c2.616-0.953,5.183-1.692,7.754-2.361c5.15-1.331,10.224-2.345,15.472-3.146L131.01,280.61
					z"/>
			</g>
			<g>
				<path style="fill:#DC897C;" d="M124.864,302.016l4.395,8.406l-7.869,2.62c0,0-3.898-5.444-0.88-10.07L124.864,302.016z"/>
				<polygon style="fill:#DC897C;" points="129.214,317.174 122.881,317.722 121.391,313.041 129.26,310.422 				"/>
			</g>
			<path style="fill:#407BFF;" d="M126.488,269.891c0,0-13.753,3.375-19.312,5.924l5.003,10.512l18.735-1.033
				c0,0,2.085-7.207,1.14-12.025C131.107,268.453,126.488,269.891,126.488,269.891z"/>
			<path style="opacity:0.7;fill:#FFFFFF;" d="M126.488,269.891c0,0-13.753,3.375-19.312,5.924l5.003,10.512l18.735-1.033
				c0,0,2.085-7.207,1.14-12.025C131.107,268.453,126.488,269.891,126.488,269.891z"/>
			<path style="fill:#407BFF;" d="M269.922,368.419l-10.8,7.16l-20.22-16.67l-0.02-0.01l-29.09-23.98c0,0-32.64,18.43-47.34,18.7
				c-14.54,0.27-22.32-4.56-24.9-17.18l34.293-16.33l3.231,2.729c0,0,34.245-7.959,41.345-8.119
				C223.533,314.549,269.922,368.419,269.922,368.419z"/>
			<path style="opacity:0.2;enable-background:new    ;" d="M238.902,358.909l-0.02-0.01l-29.09-23.98c0,0,4.02-2.71,7.52-2.83
				C220.813,331.959,238.902,358.909,238.902,358.909z"/>
			<path style="fill:#407BFF;" d="M249.232,402.769l-12.59,3.04l-32.47-55.06c0,0-14.54,2.08-28.84,2.67
				c-8.45,0.34-16.83,0.16-22.04-1.28c-1.23-0.34-2.37-0.72-3.43-1.14c-10.97-4.34-12.9-12.88-13.35-24.87l35.333-6.02l-0.133,7.36
				c0,0,10.87,1.2,22.12,2.66c6.6,0.86,13.32,1.81,18.05,2.67c2.44,0.44,4.35,0.85,5.43,1.22
				C224.042,336.299,249.232,402.769,249.232,402.769z"/>
			<path style="opacity:0.2;enable-background:new    ;" d="M213.321,333.068c-11.07,10.62-28.349,17.762-37.989,20.352
				c-3.79,0.15-7.56,0.2-11.04,0.08C179.452,351.939,212.361,333.608,213.321,333.068z"/>
		</g>
	</g>
</g>
</svg>
