<svg width="40" height="41" viewBox="0 0 40 41" fill="none" xmlns="http://www.w3.org/2000/svg">
<g clip-path="url(#clip0_640_5084)">
<path d="M13.3348 18.601H12.3681C11.049 18.5533 9.7341 18.7773 8.50509 19.2589C7.27609 19.7406 6.15918 20.4697 5.2237 21.401L4.95703 21.7121V30.9121H9.49036V25.6899L10.1015 25.001L10.3793 24.6788C11.8258 23.1927 13.6268 22.0991 15.6126 21.501C14.6184 20.7445 13.8342 19.7462 13.3348 18.601Z" fill="#8F8F8F"/>
<path d="M34.8239 21.3659C33.8884 20.4346 32.7715 19.7054 31.5425 19.2238C30.3135 18.7421 28.9986 18.5182 27.6794 18.5659C27.2748 18.567 26.8706 18.5893 26.4683 18.6325C25.9595 19.7069 25.1968 20.6412 24.2461 21.3547C26.3661 21.9412 28.2865 23.0935 29.8016 24.6881L30.0794 24.9992L30.6794 25.6881V30.9214H35.0572V21.677L34.8239 21.3659Z" fill="#8F8F8F"/>
<path d="M12.3319 16.4341H12.6763C12.5163 15.0599 12.7574 13.6688 13.3706 12.4286C13.9838 11.1885 14.9428 10.1523 16.1319 9.4452C15.7009 8.7867 15.1062 8.25143 14.4061 7.89181C13.7061 7.53219 12.9246 7.36054 12.1383 7.39368C11.3519 7.42682 10.5877 7.6636 9.92036 8.08085C9.25303 8.49809 8.7055 9.08149 8.33139 9.77393C7.95729 10.4664 7.76942 11.2441 7.78619 12.0309C7.80296 12.8178 8.02379 13.5868 8.42706 14.2627C8.83034 14.9385 9.40222 15.4981 10.0867 15.8865C10.7712 16.2749 11.5449 16.4789 12.3319 16.4785V16.4341Z" fill="#8F8F8F"/>
<path d="M27.1444 15.6001C27.1578 15.8554 27.1578 16.1114 27.1444 16.3667C27.3576 16.4005 27.5729 16.4191 27.7888 16.4223H27.9999C28.7835 16.3805 29.5429 16.1365 30.2042 15.7142C30.8655 15.2918 31.4061 14.7053 31.7735 14.012C32.1409 13.3186 32.3225 12.5419 32.3006 11.7575C32.2787 10.9732 32.0541 10.2078 31.6486 9.53601C31.2432 8.86421 30.6707 8.30884 29.9868 7.92398C29.303 7.53912 28.5312 7.33788 27.7465 7.33986C26.9618 7.34183 26.191 7.54695 25.5092 7.93525C24.8273 8.32354 24.2576 8.88178 23.8555 9.55562C24.8611 10.2122 25.688 11.1082 26.2621 12.1631C26.8361 13.2181 27.1393 14.3991 27.1444 15.6001Z" fill="#8F8F8F"/>
<path d="M19.8573 20.5788C22.6003 20.5788 24.824 18.3552 24.824 15.6122C24.824 12.8692 22.6003 10.6455 19.8573 10.6455C17.1143 10.6455 14.8906 12.8692 14.8906 15.6122C14.8906 18.3552 17.1143 20.5788 19.8573 20.5788Z" fill="#8F8F8F"/>
<path d="M20.1231 23.2228C18.672 23.1643 17.2241 23.3998 15.8665 23.9154C14.5088 24.431 13.2695 25.2159 12.2231 26.2228L11.9453 26.534V33.5673C11.9496 33.7964 11.9991 34.0224 12.0908 34.2324C12.1825 34.4424 12.3146 34.6322 12.4797 34.7911C12.6448 34.95 12.8396 35.0749 13.0529 35.1585C13.2663 35.2421 13.494 35.2828 13.7231 35.2784H26.4898C26.7189 35.2828 26.9466 35.2421 27.1599 35.1585C27.3733 35.0749 27.568 34.95 27.7331 34.7911C27.8982 34.6322 28.0304 34.4424 28.1221 34.2324C28.2138 34.0224 28.2632 33.7964 28.2675 33.5673V26.5562L28.0009 26.2228C26.9612 25.2128 25.7262 24.4257 24.3716 23.9098C23.017 23.3939 21.5713 23.1602 20.1231 23.2228Z" fill="#8F8F8F"/>
</g>
<defs>
<clipPath id="clip0_640_5084">
<rect width="40" height="40" fill="white" transform="translate(0 0.666992)"/>
</clipPath>
</defs>
</svg>
