<svg width="32" height="32" viewBox="0 0 32 32" fill="none" xmlns="http://www.w3.org/2000/svg">
<g clip-path="url(#clip0_644_4233)">
<path d="M25.3346 24.833H24.8346V25.333V26.621C24.8346 27.6107 23.681 28.1505 22.9216 27.517L22.9213 27.5168L19.8387 24.9488L19.6996 24.833H19.5186H16.0013C15.073 24.833 14.1828 24.4643 13.5264 23.8079C12.8701 23.1515 12.5013 22.2613 12.5013 21.333V17.333C12.5013 16.4047 12.8701 15.5145 13.5264 14.8581C14.1828 14.2018 15.073 13.833 16.0013 13.833H25.3346C26.2629 13.833 27.1531 14.2018 27.8095 14.8581C28.4659 15.5145 28.8346 16.4047 28.8346 17.333V21.333C28.8346 22.2613 28.4659 23.1515 27.8095 23.8079C27.1531 24.4643 26.2629 24.833 25.3346 24.833ZM7.16797 22.6663V22.1663H6.66797C5.73971 22.1663 4.84947 21.7976 4.19309 21.1412C3.53672 20.4848 3.16797 19.5946 3.16797 18.6663V9.33301C3.16797 8.40475 3.53672 7.51451 4.1931 6.85813C4.84947 6.20176 5.73971 5.83301 6.66797 5.83301H21.3346C22.2629 5.83301 23.1531 6.20176 23.8095 6.85813C24.4659 7.51451 24.8346 8.40475 24.8346 9.33301V10.1663H14.668C13.1209 10.1663 11.6371 10.7809 10.5432 11.8749C9.44922 12.9688 8.83464 14.4526 8.83463 15.9997V21.333C8.83463 22.6571 9.27632 23.8805 10.021 24.8599L9.03463 25.5997C8.26559 26.1765 7.16797 25.6277 7.16797 24.6663V22.6663Z" stroke="#666666"/>
</g>
<defs>
<clipPath id="clip0_644_4233">
<rect width="32" height="32" fill="white"/>
</clipPath>
</defs>
</svg>
