<svg width="32" height="32" viewBox="0 0 32 32" fill="none" xmlns="http://www.w3.org/2000/svg">
<g clip-path="url(#clip0_644_3889)">
<path d="M11.9993 14.7606H11.4193C10.6278 14.732 9.8389 14.8664 9.10149 15.1554C8.36409 15.4444 7.69395 15.8818 7.13266 16.4406L6.97266 16.6273V22.1473H9.69266V19.0139L10.0593 18.6006L10.226 18.4073C11.0939 17.5156 12.1745 16.8595 13.366 16.5006C12.7695 16.0467 12.299 15.4477 11.9993 14.7606Z" fill="#06007A"/>
<path d="M24.8935 16.4191C24.3323 15.8603 23.6621 15.4229 22.9247 15.1339C22.1873 14.8449 21.3984 14.7105 20.6069 14.7391C20.3641 14.7398 20.1216 14.7532 19.8802 14.7791C19.5749 15.4237 19.1173 15.9843 18.5469 16.4125C19.8189 16.7644 20.9711 17.4557 21.8802 18.4125L22.0469 18.5991L22.4069 19.0125V22.1525H25.0335V16.6058L24.8935 16.4191Z" fill="#06007A"/>
<path d="M11.3999 13.4608H11.6066C11.5106 12.6363 11.6552 11.8017 12.0231 11.0576C12.391 10.3135 12.9665 9.69178 13.6799 9.26751C13.4213 8.87241 13.0645 8.55125 12.6445 8.33548C12.2244 8.1197 11.7555 8.01672 11.2837 8.0366C10.8119 8.05648 10.3534 8.19855 9.95299 8.4489C9.5526 8.69925 9.22408 9.04929 8.99962 9.46475C8.77515 9.8802 8.66243 10.3468 8.67249 10.8189C8.68256 11.2911 8.81506 11.7525 9.05702 12.158C9.29898 12.5635 9.64211 12.8992 10.0528 13.1323C10.4635 13.3653 10.9277 13.4878 11.3999 13.4875V13.4608Z" fill="#06007A"/>
<path d="M20.2858 12.96C20.2939 13.1133 20.2939 13.2668 20.2858 13.42C20.4138 13.4403 20.543 13.4515 20.6725 13.4534H20.7992C21.2693 13.4283 21.725 13.2819 22.1217 13.0285C22.5185 12.7751 22.8429 12.4232 23.0633 12.0072C23.2838 11.5912 23.3927 11.1252 23.3796 10.6545C23.3665 10.1839 23.2317 9.72469 22.9884 9.32161C22.7451 8.91853 22.4016 8.58531 21.9913 8.35439C21.581 8.12347 21.1179 8.00273 20.6471 8.00391C20.1763 8.0051 19.7138 8.12817 19.3047 8.36115C18.8956 8.59413 18.5538 8.92907 18.3125 9.33337C18.9159 9.72733 19.412 10.2649 19.7565 10.8979C20.1009 11.5309 20.2828 12.2394 20.2858 12.96Z" fill="#06007A"/>
<path d="M15.9136 15.9473C17.5594 15.9473 18.8936 14.6131 18.8936 12.9673C18.8936 11.3215 17.5594 9.9873 15.9136 9.9873C14.2678 9.9873 12.9336 11.3215 12.9336 12.9673C12.9336 14.6131 14.2678 15.9473 15.9136 15.9473Z" fill="#06007A"/>
<path d="M16.0746 17.5333C15.204 17.4982 14.3352 17.6395 13.5207 17.9489C12.7061 18.2582 11.9625 18.7291 11.3346 19.3333L11.168 19.52V23.74C11.1706 23.8774 11.2002 24.013 11.2552 24.139C11.3103 24.265 11.3896 24.379 11.4886 24.4743C11.5877 24.5696 11.7045 24.6445 11.8325 24.6947C11.9605 24.7448 12.0972 24.7693 12.2346 24.7667H19.8946C20.0321 24.7693 20.1687 24.7448 20.2967 24.6947C20.4247 24.6445 20.5416 24.5696 20.6407 24.4743C20.7397 24.379 20.819 24.265 20.874 24.139C20.929 24.013 20.9587 23.8774 20.9613 23.74V19.5333L20.8013 19.3333C20.1775 18.7273 19.4365 18.255 18.6237 17.9455C17.811 17.636 16.9435 17.4957 16.0746 17.5333Z" fill="#06007A"/>
</g>
<defs>
<clipPath id="clip0_644_3889">
<rect width="24" height="24" fill="white" transform="translate(4 4)"/>
</clipPath>
</defs>
</svg>
