<svg width="14" height="15" viewBox="0 0 14 15" fill="none" xmlns="http://www.w3.org/2000/svg">
<path d="M6.9987 0.833008C3.3187 0.833008 0.332031 3.81967 0.332031 7.49967C0.332031 11.1797 3.3187 14.1663 6.9987 14.1663C10.6787 14.1663 13.6654 11.1797 13.6654 7.49967C13.6654 3.81967 10.6787 0.833008 6.9987 0.833008ZM6.33203 12.7863C3.6987 12.4597 1.66536 10.2197 1.66536 7.49967C1.66536 7.08634 1.7187 6.69301 1.80536 6.30634L4.9987 9.49967V10.1663C4.9987 10.8997 5.5987 11.4997 6.33203 11.4997V12.7863ZM10.932 11.093C10.7587 10.553 10.2654 10.1663 9.66536 10.1663H8.9987V8.16634C8.9987 7.79967 8.6987 7.49967 8.33203 7.49967H4.33203V6.16634H5.66536C6.03203 6.16634 6.33203 5.86634 6.33203 5.49967V4.16634H7.66536C8.3987 4.16634 8.9987 3.56634 8.9987 2.83301V2.55967C10.952 3.35301 12.332 5.26634 12.332 7.49967C12.332 8.88634 11.7987 10.1463 10.932 11.093Z" fill="white"/>
</svg>
