<svg width="32" height="32" viewBox="0 0 32 32" fill="none" xmlns="http://www.w3.org/2000/svg">
<path fill-rule="evenodd" clip-rule="evenodd" d="M16 26C10.4772 26 6 21.5228 6 16C6 10.4772 10.4772 6 16 6C21.5228 6 26 10.4772 26 16C26 21.5228 21.5228 26 16 26ZM16 25C20.9706 25 25 20.9706 25 16C25 11.0294 20.9706 7 16 7C11.0294 7 7 11.0294 7 16C7 20.9706 11.0294 25 16 25ZM15.9882 23C12.4242 23 9.04175 19.5818 9.04175 17.1115C9.04175 15.6937 12.1222 17.4 15.9882 17.4C19.8542 17.4 22.9686 15.696 22.9583 17.1115C22.9408 19.5054 19.5521 23 15.9882 23ZM15.9882 19.85C19.3019 19.85 21.5942 18.569 21.5942 17.6451C21.5942 16.7213 19.3019 18.196 15.9882 18.196C12.6745 18.196 10.4202 16.8983 10.4202 17.6451C10.4202 18.392 12.6745 19.85 15.9882 19.85ZM12.9875 14.225C12.3317 14.225 11.8 13.6933 11.8 13.0375C11.8 12.3816 12.3317 11.85 12.9875 11.85C13.6433 11.85 14.175 12.3816 14.175 13.0375C14.175 13.6933 13.6433 14.225 12.9875 14.225ZM18.9875 14.225C18.3317 14.225 17.8 13.6933 17.8 13.0375C17.8 12.3816 18.3317 11.85 18.9875 11.85C19.6433 11.85 20.175 12.3816 20.175 13.0375C20.175 13.6933 19.6433 14.225 18.9875 14.225Z" fill="#50545B"/>
</svg>
