<svg width="40" height="40" viewBox="0 0 40 40" fill="none" xmlns="http://www.w3.org/2000/svg">
<path d="M3.33203 20.0027C3.33287 16.3487 4.5345 12.7962 6.75201 9.89203C8.96951 6.98782 12.08 4.89284 15.6047 3.9295C19.1294 2.96615 22.8731 3.18785 26.2595 4.56046C29.6459 5.93307 32.4873 8.38052 34.3466 11.5261C36.2058 14.6718 36.9798 18.3412 36.5493 21.9698C36.1189 25.5984 34.5079 28.9849 31.9644 31.6083C29.4208 34.2316 26.0856 35.9464 22.472 36.4886C18.8585 37.0309 15.1669 36.3706 11.9654 34.6094L5.48537 36.5827C5.19634 36.6707 4.88881 36.6786 4.59568 36.6053C4.30255 36.5321 4.03484 36.3805 3.82119 36.1669C3.60754 35.9532 3.45599 35.6855 3.38275 35.3924C3.3095 35.0993 3.31732 34.7917 3.40537 34.5027L5.3787 28.0127C4.03458 25.557 3.3307 22.8022 3.33203 20.0027ZM13.332 18.336C13.332 18.7781 13.5076 19.202 13.8202 19.5145C14.1327 19.8271 14.5567 20.0027 14.9987 20.0027H24.9987C25.4407 20.0027 25.8646 19.8271 26.1772 19.5145C26.4898 19.202 26.6654 18.7781 26.6654 18.336C26.6654 17.894 26.4898 17.4701 26.1772 17.1575C25.8646 16.845 25.4407 16.6694 24.9987 16.6694H14.9987C14.5567 16.6694 14.1327 16.845 13.8202 17.1575C13.5076 17.4701 13.332 17.894 13.332 18.336ZM14.9987 23.336C14.5567 23.336 14.1327 23.5116 13.8202 23.8242C13.5076 24.1368 13.332 24.5607 13.332 25.0027C13.332 25.4447 13.5076 25.8687 13.8202 26.1812C14.1327 26.4938 14.5567 26.6694 14.9987 26.6694H21.6654C22.1074 26.6694 22.5313 26.4938 22.8439 26.1812C23.1564 25.8687 23.332 25.4447 23.332 25.0027C23.332 24.5607 23.1564 24.1368 22.8439 23.8242C22.5313 23.5116 22.1074 23.336 21.6654 23.336H14.9987Z" fill="#666666"/>
</svg>
