<svg width="32" height="32" viewBox="0 0 32 32" fill="none" xmlns="http://www.w3.org/2000/svg">
<path d="M29.0733 13.3885H27.9993V13.3332H15.9993V18.6665H23.5347C22.4353 21.7712 19.4813 23.9998 15.9993 23.9998C11.5813 23.9998 7.99935 20.4178 7.99935 15.9998C7.99935 11.5818 11.5813 7.99984 15.9993 7.99984C18.0387 7.99984 19.894 8.76917 21.3067 10.0258L25.078 6.2545C22.6967 4.03517 19.5113 2.6665 15.9993 2.6665C8.63602 2.6665 2.66602 8.6365 2.66602 15.9998C2.66602 23.3632 8.63602 29.3332 15.9993 29.3332C23.3627 29.3332 29.3327 23.3632 29.3327 15.9998C29.3327 15.1058 29.2407 14.2332 29.0733 13.3885Z" fill="#FFC107"/>
<path d="M4.20312 9.79384L8.58379 13.0065C9.76912 10.0718 12.6398 7.99984 15.9991 7.99984C18.0385 7.99984 19.8938 8.76917 21.3065 10.0258L25.0778 6.2545C22.6965 4.03517 19.5111 2.6665 15.9991 2.6665C10.8778 2.6665 6.43646 5.55784 4.20312 9.79384Z" fill="#FF3D00"/>
<path d="M15.9989 29.3338C19.4429 29.3338 22.5722 28.0158 24.9382 25.8725L20.8116 22.3805C19.4279 23.4327 17.7372 24.0018 15.9989 24.0005C12.5309 24.0005 9.58624 21.7891 8.47691 18.7031L4.12891 22.0531C6.33557 26.3711 10.8169 29.3338 15.9989 29.3338Z" fill="#4CAF50"/>
<path d="M29.074 13.3888H28V13.3335H16V18.6668H23.5353C23.0095 20.1444 22.0622 21.4356 20.8107 22.3808L20.8127 22.3795L24.9393 25.8715C24.6473 26.1368 29.3333 22.6668 29.3333 16.0002C29.3333 15.1062 29.2413 14.2335 29.074 13.3888Z" fill="#1976D2"/>
</svg>
