<svg width="32" height="32" viewBox="0 0 32 32" fill="none" xmlns="http://www.w3.org/2000/svg">
<circle cx="16" cy="16" r="16" fill="#635BFF"/>
<path d="M16.2133 9.95192C16.1551 9.89628 16.0777 9.86523 15.9973 9.86523C15.9168 9.86523 15.8394 9.89628 15.7812 9.95192L8.58984 16.8218C8.5593 16.8511 8.53501 16.8862 8.51842 16.925C8.50184 16.9639 8.49331 17.0057 8.49336 17.048L8.49219 23.4957C8.49219 23.8272 8.62388 24.1451 8.8583 24.3795C9.09272 24.614 9.41067 24.7457 9.74219 24.7457H13.4961C13.6619 24.7457 13.8208 24.6798 13.938 24.5626C14.0552 24.4454 14.1211 24.2864 14.1211 24.1207V18.8082C14.1211 18.7253 14.154 18.6458 14.2126 18.5872C14.2712 18.5286 14.3507 18.4957 14.4336 18.4957H17.5586C17.6415 18.4957 17.721 18.5286 17.7796 18.5872C17.8382 18.6458 17.8711 18.7253 17.8711 18.8082V24.1207C17.8711 24.2864 17.9369 24.4454 18.0542 24.5626C18.1714 24.6798 18.3303 24.7457 18.4961 24.7457H22.2484C22.58 24.7457 22.8979 24.614 23.1323 24.3795C23.3667 24.1451 23.4984 23.8272 23.4984 23.4957V17.048C23.4985 17.0057 23.49 16.9639 23.4734 16.925C23.4568 16.8862 23.4325 16.8511 23.402 16.8218L16.2133 9.95192Z" fill="white"/>
<path d="M25.1762 15.5371L22.2543 12.7418V8.5C22.2543 8.33424 22.1885 8.17527 22.0713 8.05806C21.954 7.94085 21.7951 7.875 21.6293 7.875H19.7543C19.5886 7.875 19.4296 7.94085 19.3124 8.05806C19.1952 8.17527 19.1293 8.33424 19.1293 8.5V9.75L16.8668 7.58672C16.6551 7.37266 16.3403 7.25 16 7.25C15.661 7.25 15.3469 7.37266 15.1352 7.58711L6.82658 15.5363C6.58361 15.7707 6.55314 16.1562 6.77423 16.4102C6.82975 16.4742 6.89773 16.5264 6.97404 16.5633C7.05034 16.6003 7.13337 16.6214 7.21808 16.6253C7.30278 16.6291 7.38739 16.6157 7.46675 16.5859C7.54611 16.556 7.61856 16.5103 7.6797 16.4516L15.7852 8.70625C15.8433 8.65062 15.9207 8.61957 16.0012 8.61957C16.0817 8.61957 16.159 8.65062 16.2172 8.70625L24.3235 16.4516C24.4429 16.5661 24.6028 16.6286 24.7682 16.6253C24.9336 16.6221 25.091 16.5534 25.2059 16.4344C25.4457 16.1859 25.4258 15.7758 25.1762 15.5371Z" fill="white"/>
</svg>
