<svg width="32" height="36" viewBox="0 0 32 36" fill="none" xmlns="http://www.w3.org/2000/svg">
<g filter="url(#filter0_d_644_3884)">
<path d="M24.25 7.75H7.75C7.35218 7.75 6.97064 7.90804 6.68934 8.18934C6.40804 8.47064 6.25 8.85218 6.25 9.25V22.75C6.25 23.1478 6.40804 23.5294 6.68934 23.8107C6.97064 24.092 7.35218 24.25 7.75 24.25H24.25C24.6478 24.25 25.0294 24.092 25.3107 23.8107C25.592 23.5294 25.75 23.1478 25.75 22.75V9.25C25.75 8.85218 25.592 8.47064 25.3107 8.18934C25.0294 7.90804 24.6478 7.75 24.25 7.75ZM24.25 9.25V18.8828L21.8059 16.4397C21.6666 16.3004 21.5013 16.1898 21.3193 16.1144C21.1372 16.039 20.9422 16.0002 20.7452 16.0002C20.5481 16.0002 20.3531 16.039 20.1711 16.1144C19.989 16.1898 19.8237 16.3004 19.6844 16.4397L17.8094 18.3147L13.6844 14.1897C13.4031 13.9086 13.0217 13.7507 12.6241 13.7507C12.2264 13.7507 11.845 13.9086 11.5638 14.1897L7.75 18.0034V9.25H24.25ZM7.75 20.125L12.625 15.25L20.125 22.75H7.75V20.125ZM24.25 22.75H22.2466L18.8716 19.375L20.7466 17.5L24.25 21.0044V22.75ZM17.5 13.375C17.5 13.1525 17.566 12.935 17.6896 12.75C17.8132 12.565 17.9889 12.4208 18.1945 12.3356C18.4 12.2505 18.6262 12.2282 18.8445 12.2716C19.0627 12.315 19.2632 12.4222 19.4205 12.5795C19.5778 12.7368 19.685 12.9373 19.7284 13.1555C19.7718 13.3738 19.7495 13.6 19.6644 13.8055C19.5792 14.0111 19.435 14.1868 19.25 14.3104C19.065 14.434 18.8475 14.5 18.625 14.5C18.3266 14.5 18.0405 14.3815 17.8295 14.1705C17.6185 13.9595 17.5 13.6734 17.5 13.375Z" fill="#D74A43"/>
</g>
<defs>
<filter id="filter0_d_644_3884" x="-4" y="0" width="40" height="40" filterUnits="userSpaceOnUse" color-interpolation-filters="sRGB">
<feFlood flood-opacity="0" result="BackgroundImageFix"/>
<feColorMatrix in="SourceAlpha" type="matrix" values="0 0 0 0 0 0 0 0 0 0 0 0 0 0 0 0 0 0 127 0" result="hardAlpha"/>
<feOffset dy="4"/>
<feGaussianBlur stdDeviation="2"/>
<feComposite in2="hardAlpha" operator="out"/>
<feColorMatrix type="matrix" values="0 0 0 0 0 0 0 0 0 0 0 0 0 0 0 0 0 0 0.25 0"/>
<feBlend mode="normal" in2="BackgroundImageFix" result="effect1_dropShadow_644_3884"/>
<feBlend mode="normal" in="SourceGraphic" in2="effect1_dropShadow_644_3884" result="shape"/>
</filter>
</defs>
</svg>
