<svg width="32" height="32" viewBox="0 0 32 32" fill="none" xmlns="http://www.w3.org/2000/svg">
<circle opacity="0.4" cx="16" cy="16" r="16" fill="#C5C2FF"/>
<path d="M16 28C14.34 28 12.78 27.6848 11.32 27.0544C9.86 26.424 8.59 25.5692 7.51 24.49C6.43 23.4108 5.5752 22.1408 4.9456 20.68C4.316 19.2192 4.0008 17.6592 4 16C3.9992 14.3408 4.3144 12.7808 4.9456 11.32C5.5768 9.8592 6.4316 8.5892 7.51 7.51C8.5884 6.4308 9.8584 5.576 11.32 4.9456C12.7816 4.3152 14.3416 4 16 4C17.6584 4 19.2184 4.3152 20.68 4.9456C22.1416 5.576 23.4116 6.4308 24.49 7.51C25.5684 8.5892 26.4236 9.8592 27.0556 11.32C27.6876 12.7808 28.0024 14.3408 28 16C27.9976 17.6592 27.6824 19.2192 27.0544 20.68C26.4264 22.1408 25.5716 23.4108 24.49 24.49C23.4084 25.5692 22.1384 26.4244 20.68 27.0556C19.2216 27.6868 17.6616 28.0016 16 28ZM16 22.6C16.9 21.7 17.7 20.77 18.4 19.81C19 18.99 19.55 18.09 20.05 17.11C20.55 16.13 20.8 15.16 20.8 14.2C20.8 12.88 20.33 11.75 19.39 10.81C18.45 9.87 17.32 9.4 16 9.4C14.68 9.4 13.55 9.87 12.61 10.81C11.67 11.75 11.2 12.88 11.2 14.2C11.2 15.16 11.45 16.13 11.95 17.11C12.45 18.09 13 18.99 13.6 19.81C14.3 20.77 15.1 21.7 16 22.6ZM16 16C15.5 16 15.0752 15.8252 14.7256 15.4756C14.376 15.126 14.2008 14.7008 14.2 14.2C14.1992 13.6992 14.3744 13.2744 14.7256 12.9256C15.0768 12.5768 15.5016 12.4016 16 12.4C16.4984 12.3984 16.9236 12.5736 17.2756 12.9256C17.6276 13.2776 17.8024 13.7024 17.8 14.2C17.7976 14.6976 17.6228 15.1228 17.2756 15.4756C16.9284 15.8284 16.5032 16.0032 16 16Z" fill="#635BFF"/>
</svg>
