<svg width="32" height="32" viewBox="0 0 32 32" fill="none" xmlns="http://www.w3.org/2000/svg">
<path d="M16 17.5C15.2583 17.5 14.5333 17.2801 13.9166 16.868C13.2999 16.456 12.8193 15.8703 12.5355 15.1851C12.2516 14.4998 12.1774 13.7458 12.3221 13.0184C12.4668 12.291 12.8239 11.6228 13.3484 11.0984C13.8728 10.5739 14.541 10.2168 15.2684 10.0721C15.9958 9.92736 16.7498 10.0016 17.4351 10.2855C18.1203 10.5693 18.706 11.0499 19.118 11.6666C19.5301 12.2833 19.75 13.0083 19.75 13.75C19.7488 14.7442 19.3533 15.6973 18.6503 16.4003C17.9473 17.1033 16.9942 17.4988 16 17.5ZM16 11.5C15.555 11.5 15.12 11.632 14.75 11.8792C14.38 12.1264 14.0916 12.4778 13.9213 12.889C13.751 13.3001 13.7064 13.7525 13.7932 14.189C13.8801 14.6254 14.0943 15.0263 14.409 15.341C14.7237 15.6557 15.1246 15.87 15.561 15.9568C15.9975 16.0436 16.4499 15.999 16.861 15.8287C17.2722 15.6584 17.6236 15.37 17.8708 15C18.118 14.63 18.25 14.195 18.25 13.75C18.2494 13.1534 18.0122 12.5815 17.5903 12.1597C17.1685 11.7378 16.5966 11.5006 16 11.5Z" fill="#D87B2F"/>
<path d="M16 26.5L9.67301 19.0382C9.58509 18.9262 9.49809 18.8135 9.41201 18.7C8.33179 17.276 7.74799 15.5373 7.75001 13.75C7.75001 11.562 8.6192 9.46354 10.1664 7.91637C11.7135 6.36919 13.812 5.5 16 5.5C18.188 5.5 20.2865 6.36919 21.8336 7.91637C23.3808 9.46354 24.25 11.562 24.25 13.75C24.2517 15.5365 23.6682 17.2743 22.5888 18.6978L22.588 18.7C22.588 18.7 22.363 18.9955 22.3293 19.0353L16 26.5ZM10.6098 17.7963C10.6098 17.7963 10.7845 18.0272 10.8243 18.0767L16 24.181L21.1825 18.0685C21.2155 18.0272 21.391 17.7948 21.3918 17.794C22.2747 16.6309 22.7518 15.2103 22.75 13.75C22.75 11.9598 22.0388 10.2429 20.773 8.97703C19.5071 7.71116 17.7902 7 16 7C14.2098 7 12.4929 7.71116 11.227 8.97703C9.96116 10.2429 9.25001 11.9598 9.25001 13.75C9.24815 15.2112 9.72584 16.6327 10.6098 17.7963Z" fill="#D87B2F"/>
</svg>
