<svg width="59" height="91" viewBox="0 0 59 91" fill="none" xmlns="http://www.w3.org/2000/svg">
<path fill-rule="evenodd" clip-rule="evenodd" d="M24.306 42.8586C31.1752 36.6035 39.7692 28.7776 39.7692 19.8846C39.7692 8.90265 30.8666 0 19.8846 0C8.90265 0 0 8.90265 0 19.8846C0 28.5675 6.49766 34.538 13.9089 41.3479C15.8713 43.1511 17.8978 45.0132 19.8846 47C21.1741 45.7105 22.6925 44.3279 24.306 42.8586ZM19.8846 30.7308C25.8748 30.7308 30.7308 25.8748 30.7308 19.8846C30.7308 13.8945 25.8748 9.03846 19.8846 9.03846C13.8945 9.03846 9.03846 13.8945 9.03846 19.8846C9.03846 25.8748 13.8945 30.7308 19.8846 30.7308Z" fill="#28A0E4"/>
<path d="M39.1862 49.392C43.8902 49.392 47.6342 50.928 50.4182 54C53.2502 57.024 54.6662 61.2 54.6662 66.528V90H42.4262V68.184C42.4262 65.496 41.7302 63.408 40.3382 61.92C38.9462 60.432 37.0742 59.688 34.7222 59.688C32.3702 59.688 30.4982 60.432 29.1062 61.92C27.7142 63.408 27.0182 65.496 27.0182 68.184V90H14.7062V49.824H27.0182V55.152C28.2662 53.376 29.9462 51.984 32.0582 50.976C34.1702 49.92 36.5462 49.392 39.1862 49.392Z" fill="#28A0E4"/>
</svg>
