<svg width="61" height="64" viewBox="0 0 61 64" fill="none" xmlns="http://www.w3.org/2000/svg">
<path d="M45.0841 31.5948C44.9066 47.0527 53.352 45.6814 57.2108 43.1948C59.0808 45.738 56.8724 50.8712 55.0208 52.9616C53.1693 55.052 46.7594 59.4659 40.0923 58.0385C33.9779 56.7295 32.244 51.6855 30.8913 46.8183C29.8092 42.9245 29.9454 35.4543 29.7155 31.6659C29.4395 27.1198 28.4265 17.6519 23.3682 17.9286C18.31 18.2052 15.4766 24.2159 15.4032 27.3341L15.4133 14.2696C17.902 10.1008 24.7911 4.12643 32.0464 4.23674C39.3017 4.34705 41.7735 8.57596 42.1838 9.72529C42.1838 9.72529 45.2616 16.1368 45.0841 31.5948Z" fill="#635BFF"/>
<rect y="3.30371" width="15.4208" height="55.6113" rx="4.26021" fill="#635BFF"/>
</svg>
