<svg width="413" height="110" viewBox="0 0 413 110" fill="none" xmlns="http://www.w3.org/2000/svg">
<path fill-rule="evenodd" clip-rule="evenodd" d="M24.306 42.8586C31.1752 36.6035 39.7692 28.7776 39.7692 19.8846C39.7692 8.90265 30.8666 0 19.8846 0C8.90265 0 0 8.90265 0 19.8846C0 28.5675 6.49766 34.538 13.9089 41.3479C15.8713 43.1511 17.8978 45.0132 19.8846 47C21.1741 45.7105 22.6925 44.3279 24.306 42.8586ZM19.8846 30.7308C25.8748 30.7308 30.7308 25.8748 30.7308 19.8846C30.7308 13.8945 25.8748 9.03846 19.8846 9.03846C13.8945 9.03846 9.03846 13.8945 9.03846 19.8846C9.03846 25.8748 13.8945 30.7308 19.8846 30.7308Z" fill="#28A0E4"/>
<path d="M38.0768 49.392C42.7808 49.392 46.5248 50.928 49.3088 54C52.1408 57.024 53.5568 61.2 53.5568 66.528V90H41.3168V68.184C41.3168 65.496 40.6208 63.408 39.2288 61.92C37.8368 60.432 35.9648 59.688 33.6128 59.688C31.2608 59.688 29.3888 60.432 27.9968 61.92C26.6048 63.408 25.9088 65.496 25.9088 68.184V90H13.5968V49.824H25.9088V55.152C27.1568 53.376 28.8368 51.984 30.9488 50.976C33.0608 49.92 35.4368 49.392 38.0768 49.392Z" fill="#28A0E4"/>
<path d="M99.9844 69.264C99.9844 70.416 99.9124 71.616 99.7684 72.864H71.9044C72.0964 75.36 72.8884 77.28 74.2804 78.624C75.7204 79.92 77.4724 80.568 79.5364 80.568C82.6084 80.568 84.7444 79.272 85.9444 76.68H99.0484C98.3764 79.32 97.1524 81.696 95.3764 83.808C93.6484 85.92 91.4644 87.576 88.8244 88.776C86.1844 89.976 83.2324 90.576 79.9684 90.576C76.0324 90.576 72.5284 89.736 69.4564 88.056C66.3844 86.376 63.9844 83.976 62.2564 80.856C60.5284 77.736 59.6644 74.088 59.6644 69.912C59.6644 65.736 60.5044 62.088 62.1844 58.968C63.9124 55.848 66.3124 53.448 69.3844 51.768C72.4564 50.088 75.9844 49.248 79.9684 49.248C83.8564 49.248 87.3124 50.064 90.3364 51.696C93.3604 53.328 95.7124 55.656 97.3924 58.68C99.1204 61.704 99.9844 65.232 99.9844 69.264ZM87.3844 66.024C87.3844 63.912 86.6644 62.232 85.2244 60.984C83.7844 59.736 81.9844 59.112 79.8244 59.112C77.7604 59.112 76.0084 59.712 74.5684 60.912C73.1764 62.112 72.3124 63.816 71.9764 66.024H87.3844ZM112.672 45.648C110.512 45.648 108.736 45.024 107.344 43.776C106 42.48 105.328 40.896 105.328 39.024C105.328 37.104 106 35.52 107.344 34.272C108.736 32.976 110.512 32.328 112.672 32.328C114.784 32.328 116.512 32.976 117.856 34.272C119.248 35.52 119.944 37.104 119.944 39.024C119.944 40.896 119.248 42.48 117.856 43.776C116.512 45.024 114.784 45.648 112.672 45.648ZM118.792 49.824V90H106.48V49.824H118.792ZM142.978 49.248C145.81 49.248 148.282 49.824 150.394 50.976C152.554 52.128 154.21 53.64 155.362 55.512V49.824H167.674V89.928C167.674 93.624 166.93 96.96 165.442 99.936C164.002 102.96 161.77 105.36 158.746 107.136C155.77 108.912 152.05 109.8 147.586 109.8C141.634 109.8 136.81 108.384 133.114 105.552C129.418 102.768 127.306 98.976 126.778 94.176H138.946C139.33 95.712 140.242 96.912 141.682 97.776C143.122 98.688 144.898 99.144 147.01 99.144C149.554 99.144 151.57 98.4 153.058 96.912C154.594 95.472 155.362 93.144 155.362 89.928V84.24C154.162 86.112 152.506 87.648 150.394 88.848C148.282 90 145.81 90.576 142.978 90.576C139.666 90.576 136.666 89.736 133.978 88.056C131.29 86.328 129.154 83.904 127.57 80.784C126.034 77.616 125.266 73.968 125.266 69.84C125.266 65.712 126.034 62.088 127.57 58.968C129.154 55.848 131.29 53.448 133.978 51.768C136.666 50.088 139.666 49.248 142.978 49.248ZM155.362 69.912C155.362 66.84 154.498 64.416 152.77 62.64C151.09 60.864 149.026 59.976 146.578 59.976C144.13 59.976 142.042 60.864 140.314 62.64C138.634 64.368 137.794 66.768 137.794 69.84C137.794 72.912 138.634 75.36 140.314 77.184C142.042 78.96 144.13 79.848 146.578 79.848C149.026 79.848 151.09 78.96 152.77 77.184C154.498 75.408 155.362 72.984 155.362 69.912ZM201.277 49.392C205.885 49.392 209.581 50.928 212.365 54C215.149 57.024 216.541 61.2 216.541 66.528V90H204.301V68.184C204.301 65.496 203.605 63.408 202.213 61.92C200.821 60.432 198.949 59.688 196.597 59.688C194.245 59.688 192.373 60.432 190.981 61.92C189.589 63.408 188.893 65.496 188.893 68.184V90H176.581V36.72H188.893V55.224C190.141 53.448 191.845 52.032 194.005 50.976C196.165 49.92 198.589 49.392 201.277 49.392ZM237.409 55.512C238.561 53.64 240.217 52.128 242.377 50.976C244.537 49.824 247.009 49.248 249.793 49.248C253.105 49.248 256.105 50.088 258.793 51.768C261.481 53.448 263.593 55.848 265.129 58.968C266.713 62.088 267.505 65.712 267.505 69.84C267.505 73.968 266.713 77.616 265.129 80.784C263.593 83.904 261.481 86.328 258.793 88.056C256.105 89.736 253.105 90.576 249.793 90.576C246.961 90.576 244.489 90.024 242.377 88.92C240.265 87.768 238.609 86.256 237.409 84.384V90H225.097V36.72H237.409V55.512ZM254.977 69.84C254.977 66.768 254.113 64.368 252.385 62.64C250.705 60.864 248.617 59.976 246.121 59.976C243.673 59.976 241.585 60.864 239.857 62.64C238.177 64.416 237.337 66.84 237.337 69.912C237.337 72.984 238.177 75.408 239.857 77.184C241.585 78.96 243.673 79.848 246.121 79.848C248.569 79.848 250.657 78.96 252.385 77.184C254.113 75.36 254.977 72.912 254.977 69.84ZM292.252 90.576C288.316 90.576 284.764 89.736 281.596 88.056C278.476 86.376 276.004 83.976 274.18 80.856C272.404 77.736 271.516 74.088 271.516 69.912C271.516 65.784 272.428 62.16 274.252 59.04C276.076 55.872 278.572 53.448 281.74 51.768C284.908 50.088 288.46 49.248 292.396 49.248C296.332 49.248 299.884 50.088 303.052 51.768C306.22 53.448 308.716 55.872 310.54 59.04C312.364 62.16 313.276 65.784 313.276 69.912C313.276 74.04 312.34 77.688 310.468 80.856C308.644 83.976 306.124 86.376 302.908 88.056C299.74 89.736 296.188 90.576 292.252 90.576ZM292.252 79.92C294.604 79.92 296.596 79.056 298.228 77.328C299.908 75.6 300.748 73.128 300.748 69.912C300.748 66.696 299.932 64.224 298.3 62.496C296.716 60.768 294.748 59.904 292.396 59.904C289.996 59.904 288.004 60.768 286.42 62.496C284.836 64.176 284.044 66.648 284.044 69.912C284.044 73.128 284.812 75.6 286.348 77.328C287.932 79.056 289.9 79.92 292.252 79.92ZM332.12 56.52C333.56 54.312 335.36 52.584 337.52 51.336C339.68 50.04 342.08 49.392 344.72 49.392V62.424H341.336C338.264 62.424 335.96 63.096 334.424 64.44C332.888 65.736 332.12 68.04 332.12 71.352V90H319.808V49.824H332.12V56.52ZM362.917 36.72V90H350.605V36.72H362.917ZM412.879 49.824L387.679 109.08H374.431L383.647 88.632L367.303 49.824H381.055L390.343 74.952L399.559 49.824H412.879Z" fill="#06293D"/>
</svg>
