<svg width="40" height="40" viewBox="0 0 40 40" fill="none" xmlns="http://www.w3.org/2000/svg">
<path d="M8.33483 31.6663C7.8626 31.6663 7.46705 31.5063 7.14816 31.1863C6.82927 30.8663 6.66927 30.4708 6.66816 29.9997C6.66705 29.5286 6.82705 29.133 7.14816 28.813C7.46927 28.493 7.86483 28.333 8.33483 28.333H10.0015V16.6663C10.0015 14.3608 10.6959 12.3125 12.0848 10.5213C13.4737 8.73023 15.2793 7.55634 17.5015 6.99968V5.83301C17.5015 5.13857 17.7448 4.54857 18.2315 4.06301C18.7182 3.57746 19.3082 3.33412 20.0015 3.33301C20.6948 3.3319 21.2854 3.57523 21.7732 4.06301C22.2609 4.55079 22.5037 5.14079 22.5015 5.83301V6.99968C24.7237 7.55523 26.5293 8.72912 27.9182 10.5213C29.307 12.3136 30.0015 14.3619 30.0015 16.6663V28.333H31.6682C32.1404 28.333 32.5365 28.493 32.8565 28.813C33.1765 29.133 33.3359 29.5286 33.3348 29.9997C33.3337 30.4708 33.1737 30.8669 32.8548 31.188C32.5359 31.5091 32.1404 31.6686 31.6682 31.6663H8.33483ZM20.0015 36.6663C19.0848 36.6663 18.3004 36.3402 17.6482 35.688C16.9959 35.0358 16.6693 34.2508 16.6682 33.333H23.3348C23.3348 34.2497 23.0087 35.0347 22.3565 35.688C21.7043 36.3413 20.9193 36.6675 20.0015 36.6663ZM5.00149 16.6663C4.52927 16.6663 4.13372 16.4858 3.81483 16.1247C3.49594 15.7636 3.36372 15.3469 3.41816 14.8747C3.64038 12.7913 4.22372 10.8536 5.16816 9.06134C6.1126 7.26912 7.32094 5.7069 8.79316 4.37468C9.15427 4.06912 9.56427 3.93023 10.0232 3.95801C10.482 3.98579 10.8498 4.19412 11.1265 4.58301C11.4032 4.9719 11.5143 5.38857 11.4598 5.83301C11.4054 6.27746 11.197 6.66634 10.8348 6.99968C9.75149 8.02746 8.8626 9.2219 8.16816 10.583C7.47372 11.9441 7.01538 13.4163 6.79316 14.9997C6.7376 15.4719 6.54316 15.868 6.20983 16.188C5.87649 16.508 5.47372 16.6675 5.00149 16.6663ZM35.0015 16.6663C34.5293 16.6663 34.1265 16.5063 33.7932 16.1863C33.4598 15.8663 33.2654 15.4708 33.2098 14.9997C32.9876 13.4163 32.5293 11.9441 31.8348 10.583C31.1404 9.2219 30.2515 8.02746 29.1682 6.99968C28.807 6.66634 28.5987 6.27746 28.5432 5.83301C28.4876 5.38857 28.5987 4.9719 28.8765 4.58301C29.1543 4.19412 29.5226 3.98579 29.9815 3.95801C30.4404 3.93023 30.8498 4.06912 31.2098 4.37468C32.6821 5.70801 33.8904 7.27023 34.8348 9.06134C35.7793 10.8525 36.3626 12.7902 36.5848 14.8747C36.6404 15.3469 36.5087 15.7636 36.1898 16.1247C35.8709 16.4858 35.4748 16.6663 35.0015 16.6663Z" fill="#666666"/>
</svg>
