<svg width="402" height="26" viewBox="0 0 402 26" fill="none" xmlns="http://www.w3.org/2000/svg">
<path d="M1 13H176.5" stroke="#B8B8B8" stroke-linecap="round"/>
<path d="M193.397 14.3506V14.1484C193.397 13.4629 193.497 12.8271 193.696 12.2412C193.896 11.6494 194.183 11.1367 194.558 10.7031C194.938 10.2637 195.401 9.92383 195.946 9.68359C196.497 9.4375 197.118 9.31445 197.81 9.31445C198.507 9.31445 199.128 9.4375 199.673 9.68359C200.224 9.92383 200.689 10.2637 201.07 10.7031C201.451 11.1367 201.741 11.6494 201.94 12.2412C202.14 12.8271 202.239 13.4629 202.239 14.1484V14.3506C202.239 15.0361 202.14 15.6719 201.94 16.2578C201.741 16.8438 201.451 17.3564 201.07 17.7959C200.689 18.2295 200.227 18.5693 199.682 18.8154C199.137 19.0557 198.519 19.1758 197.827 19.1758C197.13 19.1758 196.506 19.0557 195.955 18.8154C195.41 18.5693 194.947 18.2295 194.566 17.7959C194.186 17.3564 193.896 16.8438 193.696 16.2578C193.497 15.6719 193.397 15.0361 193.397 14.3506ZM195.516 14.1484V14.3506C195.516 14.7783 195.56 15.1826 195.647 15.5635C195.735 15.9443 195.873 16.2783 196.061 16.5654C196.248 16.8525 196.488 17.0781 196.781 17.2422C197.074 17.4062 197.423 17.4883 197.827 17.4883C198.22 17.4883 198.56 17.4062 198.847 17.2422C199.14 17.0781 199.38 16.8525 199.567 16.5654C199.755 16.2783 199.893 15.9443 199.98 15.5635C200.074 15.1826 200.121 14.7783 200.121 14.3506V14.1484C200.121 13.7266 200.074 13.3281 199.98 12.9531C199.893 12.5723 199.752 12.2354 199.559 11.9424C199.371 11.6494 199.131 11.4209 198.838 11.2568C198.551 11.0869 198.208 11.002 197.81 11.002C197.411 11.002 197.065 11.0869 196.772 11.2568C196.485 11.4209 196.248 11.6494 196.061 11.9424C195.873 12.2354 195.735 12.5723 195.647 12.9531C195.56 13.3281 195.516 13.7266 195.516 14.1484ZM206.142 11.3008V19H204.023V9.49023H206.045L206.142 11.3008ZM209.051 9.42871L209.033 11.3975C208.904 11.374 208.764 11.3564 208.611 11.3447C208.465 11.333 208.318 11.3271 208.172 11.3271C207.809 11.3271 207.489 11.3799 207.214 11.4854C206.938 11.585 206.707 11.7314 206.52 11.9248C206.338 12.1123 206.197 12.3408 206.098 12.6104C205.998 12.8799 205.939 13.1816 205.922 13.5156L205.438 13.5508C205.438 12.9531 205.497 12.3994 205.614 11.8896C205.731 11.3799 205.907 10.9316 206.142 10.5449C206.382 10.1582 206.681 9.85645 207.038 9.63965C207.401 9.42285 207.82 9.31445 208.295 9.31445C208.424 9.31445 208.562 9.32617 208.708 9.34961C208.86 9.37305 208.975 9.39941 209.051 9.42871Z" fill="#525252"/>
<path d="M225.5 13H401" stroke="#B8B8B8" stroke-linecap="round"/>
</svg>
