<svg width="32" height="32" viewBox="0 0 32 32" fill="none" xmlns="http://www.w3.org/2000/svg">
<path d="M16 5.5C15.2044 5.5 14.4413 5.81607 13.8787 6.37868C13.3161 6.94129 13 7.70435 13 8.5V23.5C13 24.2956 13.3161 25.0587 13.8787 25.6213C14.4413 26.1839 15.2044 26.5 16 26.5C16.7956 26.5 17.5587 26.1839 18.1213 25.6213C18.6839 25.0587 19 24.2956 19 23.5V8.5C19 7.70435 18.6839 6.94129 18.1213 6.37868C17.5587 5.81607 16.7956 5.5 16 5.5ZM17.5 8.5V23.5C17.5 23.8978 17.342 24.2794 17.0607 24.5607C16.7794 24.842 16.3978 25 16 25C15.6022 25 15.2206 24.842 14.9393 24.5607C14.658 24.2794 14.5 23.8978 14.5 23.5V8.5C14.5 8.10218 14.658 7.72064 14.9393 7.43934C15.2206 7.15804 15.6022 7 16 7C16.3978 7 16.7794 7.15804 17.0607 7.43934C17.342 7.72064 17.5 8.10218 17.5 8.5ZM8.5 14.5C7.70435 14.5 6.94129 14.8161 6.37868 15.3787C5.81607 15.9413 5.5 16.7044 5.5 17.5V23.5C5.5 24.2956 5.81607 25.0587 6.37868 25.6213C6.94129 26.1839 7.70435 26.5 8.5 26.5C9.29565 26.5 10.0587 26.1839 10.6213 25.6213C11.1839 25.0587 11.5 24.2956 11.5 23.5V17.5C11.5 16.7044 11.1839 15.9413 10.6213 15.3787C10.0587 14.8161 9.29565 14.5 8.5 14.5ZM10 23.5C10 23.8978 9.84196 24.2794 9.56066 24.5607C9.27936 24.842 8.89782 25 8.5 25C8.10218 25 7.72064 24.842 7.43934 24.5607C7.15804 24.2794 7 23.8978 7 23.5V17.5C7 17.1022 7.15804 16.7206 7.43934 16.4393C7.72064 16.158 8.10218 16 8.5 16C8.89782 16 9.27936 16.158 9.56066 16.4393C9.84196 16.7206 10 17.1022 10 17.5V23.5ZM20.5 14.5C20.5 13.7044 20.8161 12.9413 21.3787 12.3787C21.9413 11.8161 22.7044 11.5 23.5 11.5C24.2956 11.5 25.0587 11.8161 25.6213 12.3787C26.1839 12.9413 26.5 13.7044 26.5 14.5V23.5C26.5 24.2956 26.1839 25.0587 25.6213 25.6213C25.0587 26.1839 24.2956 26.5 23.5 26.5C22.7044 26.5 21.9413 26.1839 21.3787 25.6213C20.8161 25.0587 20.5 24.2956 20.5 23.5V14.5ZM25 14.5C25 14.1022 24.842 13.7206 24.5607 13.4393C24.2794 13.158 23.8978 13 23.5 13C23.1022 13 22.7206 13.158 22.4393 13.4393C22.158 13.7206 22 14.1022 22 14.5V23.5C22 23.8978 22.158 24.2794 22.4393 24.5607C22.7206 24.842 23.1022 25 23.5 25C23.8978 25 24.2794 24.842 24.5607 24.5607C24.842 24.2794 25 23.8978 25 23.5V14.5Z" fill="#7821A1"/>
</svg>
