<svg width="33" height="34" viewBox="0 0 33 34" fill="none" xmlns="http://www.w3.org/2000/svg">
<path fill-rule="evenodd" clip-rule="evenodd" d="M16.3333 6.33366C14.4677 6.33332 12.6346 6.82231 11.017 7.75183C9.39936 8.68135 8.05384 10.0189 7.1147 11.6309C6.17557 13.243 5.67567 15.0731 5.6649 16.9388C5.65414 18.8044 6.13288 20.6402 7.05335 22.263C7.6755 21.4544 8.47525 20.7998 9.3908 20.3496C10.3063 19.8995 11.3131 19.6659 12.3333 19.667H20.3333C21.3536 19.6659 22.3604 19.8995 23.2759 20.3496C24.1914 20.7998 24.9912 21.4544 25.6133 22.263C26.5338 20.6402 27.0126 18.8044 27.0018 16.9388C26.991 15.0731 26.4911 13.243 25.552 11.6309C24.6129 10.0189 23.2673 8.68135 21.6497 7.75183C20.0321 6.82231 18.199 6.33332 16.3333 6.33366ZM26.924 25.1017C28.7067 22.7776 29.671 19.9294 29.6667 17.0003C29.6667 9.63633 23.6973 3.66699 16.3333 3.66699C8.96935 3.66699 3.00002 9.63633 3.00002 17.0003C2.99561 19.9294 3.95989 22.7777 5.74268 25.1017L5.73601 25.1257L6.20935 25.6763C7.45986 27.1383 9.01253 28.3118 10.7603 29.1158C12.5081 29.9199 14.4095 30.3354 16.3333 30.3337C19.0365 30.3386 21.6765 29.5175 23.9 27.9803C24.8479 27.3254 25.7074 26.551 26.4573 25.6763L26.9307 25.1257L26.924 25.1017ZM16.3333 9.00033C15.2725 9.00033 14.2551 9.42175 13.5049 10.1719C12.7548 10.922 12.3333 11.9395 12.3333 13.0003C12.3333 14.0612 12.7548 15.0786 13.5049 15.8288C14.2551 16.5789 15.2725 17.0003 16.3333 17.0003C17.3942 17.0003 18.4116 16.5789 19.1618 15.8288C19.9119 15.0786 20.3333 14.0612 20.3333 13.0003C20.3333 11.9395 19.9119 10.922 19.1618 10.1719C18.4116 9.42175 17.3942 9.00033 16.3333 9.00033Z" fill="#8F8F8F"/>
</svg>
