<svg width="32" height="32" viewBox="0 0 32 32" fill="none" xmlns="http://www.w3.org/2000/svg">
<path d="M24.004 28.6663C23.0795 28.6663 22.2924 28.3419 21.6426 27.693C20.9929 27.0459 20.668 26.2592 20.668 25.333C20.668 25.1552 20.6831 24.9717 20.7133 24.7823C20.7444 24.5921 20.7906 24.413 20.852 24.245L10.5293 18.1637C10.2031 18.5317 9.82352 18.8183 9.39064 19.0237C8.95775 19.229 8.49464 19.3321 8.0013 19.333C7.07508 19.333 6.28841 19.0095 5.6413 18.3623C4.99241 17.7143 4.66797 16.9277 4.66797 16.0023C4.66797 15.077 4.99241 14.2899 5.6413 13.641C6.29019 12.9921 7.07686 12.6672 8.0013 12.6663C8.49552 12.6663 8.95864 12.7695 9.39064 12.9757C9.82264 13.1819 10.2022 13.4686 10.5293 13.8357L20.8533 7.75301C20.7911 7.5859 20.7449 7.40723 20.7146 7.21701C20.6835 7.02767 20.668 6.84412 20.668 6.66634C20.668 5.74012 20.992 4.95345 21.64 4.30634C22.2871 3.65745 23.0733 3.33301 23.9986 3.33301C24.924 3.33301 25.7111 3.65701 26.36 4.30501C27.0089 4.95301 27.3337 5.73923 27.3346 6.66367C27.3355 7.58812 27.0111 8.37523 26.3613 9.02501C25.7151 9.67479 24.9284 9.99967 24.0013 9.99967C23.5071 9.99967 23.044 9.89656 22.612 9.69034C22.18 9.48412 21.8004 9.19745 21.4733 8.83034L11.1506 14.913C11.212 15.0801 11.2577 15.2579 11.288 15.4463C11.3191 15.6357 11.3346 15.8183 11.3346 15.9943C11.3346 16.1703 11.3191 16.3548 11.288 16.5477C11.2569 16.7406 11.2106 16.9206 11.1493 17.0877L21.4733 23.169C21.7995 22.8019 22.1791 22.5152 22.612 22.309C23.0449 22.1028 23.508 21.9997 24.0013 21.9997C24.9275 21.9997 25.7142 22.3237 26.3613 22.9717C27.0102 23.6188 27.3346 24.405 27.3346 25.3303C27.3346 26.2557 27.0111 27.0428 26.364 27.6917C25.7169 28.3406 24.9302 28.6655 24.004 28.6663ZM24.0013 8.66634C24.5497 8.66634 25.0204 8.47034 25.4133 8.07834C25.8053 7.68545 26.0013 7.21479 26.0013 6.66634C26.0013 6.1179 25.8053 5.64723 25.4133 5.25434C25.0204 4.86234 24.5497 4.66634 24.0013 4.66634C23.4529 4.66634 22.9822 4.86234 22.5893 5.25434C22.1973 5.64723 22.0013 6.1179 22.0013 6.66634C22.0013 7.21479 22.1973 7.68545 22.5893 8.07834C22.9822 8.47034 23.4529 8.66634 24.0013 8.66634ZM8.0013 17.9997C8.54975 17.9997 9.02041 17.8037 9.4133 17.4117C9.8053 17.0188 10.0013 16.5481 10.0013 15.9997C10.0013 15.4512 9.8053 14.9806 9.4133 14.5877C9.0213 14.1948 8.55064 13.9988 8.0013 13.9997C7.45197 14.0006 6.9813 14.1966 6.5893 14.5877C6.1973 14.9806 6.0013 15.4512 6.0013 15.9997C6.0013 16.5481 6.1973 17.0188 6.5893 17.4117C6.9813 17.8046 7.45197 18.0006 8.0013 17.9997ZM24.0013 27.333C24.5497 27.333 25.0204 27.137 25.4133 26.745C25.8053 26.3521 26.0013 25.8815 26.0013 25.333C26.0013 24.7846 25.8053 24.3139 25.4133 23.921C25.0204 23.529 24.5497 23.333 24.0013 23.333C23.4529 23.333 22.9822 23.529 22.5893 23.921C22.1973 24.3139 22.0013 24.7846 22.0013 25.333C22.0013 25.8815 22.1973 26.3521 22.5893 26.745C22.9822 27.137 23.4529 27.333 24.0013 27.333Z" fill="#666666"/>
</svg>
