<?xml version="1.0" encoding="utf-8"?>
<!-- Generator: Adobe Illustrator 27.5.0, SVG Export Plug-In . SVG Version: 6.00 Build 0)  -->
<svg version="1.1" xmlns="http://www.w3.org/2000/svg" xmlns:xlink="http://www.w3.org/1999/xlink" x="0px" y="0px"
	 viewBox="0 0 500 500" style="enable-background:new 0 0 500 500;" xml:space="preserve">
<g id="Background_Simple">
	<g>
		<path style="fill:#92E3A9;" d="M438.658,127.625c-3.362-5.39-7.026-10.568-11.024-15.483
			c-22.961-28.226-50.305-53.355-82.794-70.201C294.276,15.722,230.247,9.582,175.828,28.603
			c-64.58,22.574-93.109,78.038-103.784,142.616c-1.491,9.021-2.622,18.102-3.441,27.208c-2.677,29.757-1.36,59.86-5.025,89.516
			c-3.753,30.376-20.618,57.443-20.163,88.59c0.256,17.579,4.873,35.202,13.977,50.322c25.359,42.115,76.786,48.916,121.562,41.585
			c129.491-21.2,144.127-71.599,198.75-82.709c49.259-10.019,82.98-60.625,92.649-107.164
			C481.046,227.102,466.059,171.563,438.658,127.625z"/>
		<path style="opacity:0.7;fill:#FFFFFF;" d="M438.658,127.625c-3.362-5.39-7.026-10.568-11.024-15.483
			c-22.961-28.226-50.305-53.355-82.794-70.201C294.276,15.722,230.247,9.582,175.828,28.603
			c-64.58,22.574-93.109,78.038-103.784,142.616c-1.491,9.021-2.622,18.102-3.441,27.208c-2.677,29.757-1.36,59.86-5.025,89.516
			c-3.753,30.376-20.618,57.443-20.163,88.59c0.256,17.579,4.873,35.202,13.977,50.322c25.359,42.115,76.786,48.916,121.562,41.585
			c129.491-21.2,144.127-71.599,198.75-82.709c49.259-10.019,82.98-60.625,92.649-107.164
			C481.046,227.102,466.059,171.563,438.658,127.625z"/>
	</g>
</g>
<g id="Graphics">
	<g style="opacity:0.3;">
		<g>
			<g>
				<g>
					<line style="fill:none;stroke:#000000;stroke-linejoin:round;" x1="84" y1="87" x2="84" y2="89.5"/>
					
						<line style="fill:none;stroke:#000000;stroke-linejoin:round;stroke-dasharray:5.4,5.4;" x1="84" y1="94.9" x2="84" y2="113.8"/>
					<polyline style="fill:none;stroke:#000000;stroke-linejoin:round;" points="84,116.5 84,119 86.5,119 					"/>
					
						<line style="fill:none;stroke:#000000;stroke-linejoin:round;stroke-dasharray:4.9091,4.9091;" x1="91.409" y1="119" x2="246.045" y2="119"/>
					<polyline style="fill:none;stroke:#000000;stroke-linejoin:round;" points="248.5,119 251,119 251,121.5 					"/>
					
						<line style="fill:none;stroke:#000000;stroke-linejoin:round;stroke-dasharray:5.0196,5.0196;" x1="251" y1="126.52" x2="251" y2="374.99"/>
					<polyline style="fill:none;stroke:#000000;stroke-linejoin:round;" points="251,377.5 251,380 253.5,380 					"/>
					<line style="fill:none;stroke:#000000;stroke-linejoin:round;stroke-dasharray:3,3;" x1="256.5" y1="380" x2="261" y2="380"/>
					<line style="fill:none;stroke:#000000;stroke-linejoin:round;" x1="262.5" y1="380" x2="265" y2="380"/>
				</g>
			</g>
			<g>
				<g>
					<line style="fill:none;stroke:#000000;stroke-linejoin:round;" x1="53" y1="373" x2="53" y2="370.5"/>
					
						<line style="fill:none;stroke:#000000;stroke-linejoin:round;stroke-dasharray:5.1429,5.1429;" x1="53" y1="365.357" x2="53" y2="265.071"/>
					<polyline style="fill:none;stroke:#000000;stroke-linejoin:round;" points="53,262.5 53,260 55.5,260 					"/>
					
						<line style="fill:none;stroke:#000000;stroke-linejoin:round;stroke-dasharray:4.5556,4.5556;" x1="60.056" y1="260" x2="94.222" y2="260"/>
					<polyline style="fill:none;stroke:#000000;stroke-linejoin:round;" points="96.5,260 99,260 99,262.5 					"/>
					
						<line style="fill:none;stroke:#000000;stroke-linejoin:round;stroke-dasharray:4.9565,4.9565;" x1="99" y1="267.457" x2="99" y2="374.022"/>
					<polyline style="fill:none;stroke:#000000;stroke-linejoin:round;" points="99,376.5 99,379 101.5,379 					"/>
					
						<line style="fill:none;stroke:#000000;stroke-linejoin:round;stroke-dasharray:5.087,5.087;" x1="106.587" y1="379" x2="215.956" y2="379"/>
					<polyline style="fill:none;stroke:#000000;stroke-linejoin:round;" points="218.5,379 221,379 221,376.5 					"/>
					
						<line style="fill:none;stroke:#000000;stroke-linejoin:round;stroke-dasharray:5.0233,5.0233;" x1="221" y1="371.477" x2="221" y2="163.012"/>
					<polyline style="fill:none;stroke:#000000;stroke-linejoin:round;" points="221,160.5 221,158 223.5,158 					"/>
					
						<line style="fill:none;stroke:#000000;stroke-linejoin:round;stroke-dasharray:4.878,4.878;" x1="228.378" y1="158" x2="421.061" y2="158"/>
					<line style="fill:none;stroke:#000000;stroke-linejoin:round;" x1="423.5" y1="158" x2="426" y2="158"/>
				</g>
			</g>
		</g>
		<g>
			<path style="fill:none;stroke:#000000;stroke-linejoin:round;stroke-miterlimit:10;" d="M96,62.857c0-6.627-5.373-12-12-12
				s-12,5.373-12,12c0,6.627,12,20,12,20S96,69.485,96,62.857z"/>
			<path style="fill:none;stroke:#000000;stroke-linejoin:round;stroke-miterlimit:10;" d="M89.143,62.857
				c0-2.84-2.303-5.143-5.143-5.143s-5.143,2.303-5.143,5.143C78.857,65.698,81.16,68,84,68S89.143,65.698,89.143,62.857z"/>
		</g>
		<g>
			<path style="fill:none;stroke:#000000;stroke-linejoin:round;stroke-miterlimit:10;" d="M441.323,140.392
				c0-5.41-4.385-9.795-9.795-9.795c-5.409,0-9.795,4.385-9.795,9.795c0,5.409,9.795,16.324,9.795,16.324
				S441.323,145.801,441.323,140.392z"/>
			<circle style="fill:none;stroke:#000000;stroke-linejoin:round;stroke-miterlimit:10;" cx="431.528" cy="140.392" r="4.198"/>
		</g>
		<g>
			<path style="fill:none;stroke:#000000;stroke-linejoin:round;stroke-miterlimit:10;" d="M427.3,201.548
				c0-10.796-8.752-19.548-19.547-19.548c-10.796,0-19.548,8.752-19.548,19.548s19.548,32.579,19.548,32.579
				S427.3,212.343,427.3,201.548z"/>
			<circle style="fill:none;stroke:#000000;stroke-linejoin:round;stroke-miterlimit:10;" cx="407.753" cy="201.548" r="8.377"/>
		</g>
		<g>
			<path style="fill:none;stroke:#000000;stroke-linejoin:round;stroke-miterlimit:10;" d="M104.509,219.217
				c0-8.404-6.813-15.217-15.217-15.217s-15.217,6.813-15.217,15.217c0,8.404,15.217,25.362,15.217,25.362
				S104.509,227.621,104.509,219.217z"/>
			<path style="fill:none;stroke:#000000;stroke-linejoin:round;stroke-miterlimit:10;" d="M95.814,219.217
				c0-3.602-2.92-6.522-6.522-6.522s-6.522,2.92-6.522,6.522c0,3.602,2.92,6.522,6.522,6.522S95.814,222.819,95.814,219.217z"/>
		</g>
		<g>
			<path style="fill:none;stroke:#000000;stroke-linejoin:round;stroke-miterlimit:10;" d="M60.795,391.198
				c0-5.409-4.385-9.795-9.795-9.795s-9.795,4.385-9.795,9.795S51,407.522,51,407.522S60.795,396.607,60.795,391.198z"/>
			<circle style="fill:none;stroke:#000000;stroke-linejoin:round;stroke-miterlimit:10;" cx="51" cy="391.198" r="4.198"/>
		</g>
	</g>
</g>
<g id="Device">
	<g>
		<g>
			<path style="fill:#D6D6D6;" d="M342.04,74.184v304.3c0,16.86-13.67,30.52-30.52,30.52H166.78c-16.85,0-30.52-13.66-30.52-30.52
				v-304.3c0-16.85,13.67-30.51,30.52-30.51h60.52l0.06,0.22c1.79,6.44,5.91,10.63,10.48,10.63h2.62c4.57,0,8.69-4.19,10.48-10.63
				l0.07-0.22h60.51C328.37,43.674,342.04,57.334,342.04,74.184z"/>
			<g>
				<path style="fill:#FFFFFF;" d="M262.445,266.55v-96.287h44.202c0.782,0,1.493-0.456,1.818-1.168l33.571-73.4V86.08
					l-36.673,80.183h-42.918V43.67h-4v49.295c-39.919-3.939-63.304,14.882-75.935,31.563
					c-10.903,14.398-15.751,29.317-17.408,35.435l-28.839-18.31v4.738l51.649,32.793h-0.033v58.504l-51.616-9.414v4.066
					l122.181,22.284v10.964l-122.181,97.6v5.119l55.256-44.139l42.114,56.978c0.383,0.519,0.983,0.812,1.608,0.812
					c0.165,0,0.331-0.021,0.496-0.063l66.389-17.002v44.11h4v-82.809c0-0.754-0.424-1.444-1.098-1.784l-14.911-7.543l25.484-27.799
					l26.434,10.167v-4.285l-26.27-10.104c-0.765-0.295-1.637-0.092-2.192,0.515l-27.163,29.631l-51.064-25.832l26.346-21.045
					C262.169,267.734,262.445,267.159,262.445,266.55z M302.128,327.423v33.34l-66.077,16.922l-41.404-56.016l37.264-29.767
					L302.128,327.423z M258.445,250.558l-66.565-12.141v-56.714l66.565,42.264V250.558z M258.445,219.228l-89.791-57.01
					c1.201-4.71,5.819-20.449,17.045-35.275c17.463-23.063,41.936-33.133,72.746-29.964V219.228z"/>
				<g>
					<polygon style="fill:#C4C4C4;" points="342.04,225.384 336.05,225.384 320.93,263.194 290.69,263.194 306.65,226.224 
						283.13,226.224 283.13,190.104 318.41,190.104 342.04,144.234 					"/>
					<rect x="144" y="79" style="fill:#C4C4C4;" width="30" height="25"/>
					<rect x="179" y="79" style="fill:#C4C4C4;" width="21.6" height="18"/>
					<path style="fill:#C4C4C4;" d="M177.684,158.622l74.242,47.948V106.034C251.926,106.034,198.823,100.878,177.684,158.622z"/>
					<rect x="207" y="79" style="fill:#C4C4C4;" width="14" height="11.667"/>
					<polygon style="fill:#C4C4C4;" points="247,314 220,333 235,361 289,358 292,332 271,323 262,337 253,332 261,317 					"/>
					<g>
						<polygon style="fill:#C4C4C4;" points="160.48,257.594 160.48,311.614 136.26,323.934 136.26,256.454 						"/>
						<polygon style="fill:#C4C4C4;" points="200.801,291.121 200.801,259.488 167.199,257.913 167.199,308.203 						"/>
						<polygon style="fill:#C4C4C4;" points="205.841,259.724 205.841,288.559 226.003,278.311 226.003,260.67 						"/>
					</g>
				</g>
			</g>
		</g>
		<g>
			<path style="fill:#707070;stroke:#263238;stroke-linejoin:round;stroke-miterlimit:10;" d="M355.126,155.391V116.72h-3.498
				V67.212c0-16.854-13.663-30.517-30.517-30.517H157.19c-16.854,0-30.517,13.663-30.517,30.517v333.072
				c0,16.854,13.663,30.517,30.517,30.517h163.92c16.854,0,30.517-13.663,30.517-30.517V188.35h3.498v-22.851h-3.498v-10.107
				H355.126z M342.04,378.484c0,16.86-13.67,30.52-30.52,30.52H166.78c-16.85,0-30.52-13.66-30.52-30.52v-304.3
				c0-16.85,13.67-30.51,30.52-30.51h60.52l0.06,0.22c1.79,6.44,5.91,10.63,10.48,10.63h2.62c4.57,0,8.69-4.19,10.48-10.63
				l0.07-0.22h60.51c16.85,0,30.52,13.66,30.52,30.51V378.484z"/>
			<path style="fill:#263238;stroke:#263238;stroke-linejoin:round;stroke-miterlimit:10;" d="M317.577,40.899H160.723
				c-16.854,0-30.517,13.663-30.517,30.517V396.08c0,16.854,13.663,30.517,30.517,30.517h156.854
				c16.854,0,30.517-13.663,30.517-30.517V71.416C348.094,54.562,334.431,40.899,317.577,40.899z M342.04,378.484
				c0,16.86-13.67,30.52-30.52,30.52H166.78c-16.85,0-30.52-13.66-30.52-30.52v-304.3c0-16.85,13.67-30.51,30.52-30.51h60.52
				l0.06,0.22c1.79,6.44,5.91,10.63,10.48,10.63h2.62c4.57,0,8.69-4.19,10.48-10.63l0.07-0.22h60.51
				c16.85,0,30.52,13.66,30.52,30.51V378.484z"/>
			<circle style="fill:#FFFFFF;" cx="238.522" cy="45.133" r="2.865"/>
			<g>
				<g>
					<path style="fill:#263238;" d="M154.55,56.112c0,2.899-3.255,3.943-3.269,6.154v0.151h3.159v0.976h-4.216v-0.824
						c0-3.104,3.255-3.708,3.255-6.415c0-0.989-0.33-1.511-1.127-1.511c-0.783,0-1.127,0.563-1.127,1.414v0.852h-1.002v-0.783
						c0-1.47,0.673-2.445,2.156-2.445C153.878,53.68,154.55,54.642,154.55,56.112z"/>
					<path style="fill:#263238;" d="M159.813,56.098v0.247c0,0.989-0.398,1.69-1.167,1.978c0.81,0.302,1.167,1.03,1.167,1.992v0.742
						c0,1.47-0.687,2.431-2.17,2.431c-1.469,0-2.156-0.961-2.156-2.431v-0.66h1.002v0.728c0,0.866,0.357,1.388,1.127,1.388
						c0.783,0,1.127-0.508,1.127-1.483v-0.742c0-0.948-0.399-1.401-1.21-1.428h-0.577v-0.962h0.632
						c0.715-0.028,1.155-0.48,1.155-1.318v-0.44c0-0.989-0.344-1.497-1.127-1.497c-0.769,0-1.127,0.535-1.127,1.401v0.494h-1.002
						v-0.439c0-1.47,0.686-2.418,2.156-2.418C159.126,53.68,159.813,54.628,159.813,56.098z"/>
					<path style="fill:#263238;" d="M161.889,56.826v1.333h-1.03v-1.333H161.889z M161.889,62.06v1.333h-1.03V62.06H161.889z"/>
					<path style="fill:#263238;" d="M164.06,57.692c0.302-0.522,0.783-0.797,1.429-0.797c1.236,0,1.785,0.907,1.785,2.28v1.882
						c0,1.47-0.7,2.431-2.169,2.431c-1.47,0-2.157-0.961-2.157-2.431v-0.646h1.002v0.714c0,0.866,0.357,1.388,1.127,1.388
						c0.769,0,1.127-0.522,1.127-1.388v-1.868c0-0.865-0.357-1.388-1.127-1.388c-0.59,0-0.989,0.33-1.085,1.03v0.22h-1.002
						l0.261-5.344h3.791v0.961h-2.83L164.06,57.692z"/>
					<path style="fill:#263238;" d="M172.619,56.084v0.179h-1.002v-0.247c0-0.866-0.357-1.374-1.14-1.374
						c-0.811,0-1.168,0.522-1.168,1.552v2.156c0.261-0.659,0.783-1.03,1.552-1.03c1.236,0,1.786,0.893,1.786,2.28v1.456
						c0,1.47-0.729,2.431-2.198,2.431c-1.484,0-2.212-0.961-2.212-2.431v-4.904c0-1.525,0.688-2.473,2.212-2.473
						C171.932,53.68,172.619,54.615,172.619,56.084z M169.309,59.684v1.442c0,0.866,0.357,1.388,1.14,1.388
						c0.769,0,1.14-0.522,1.14-1.388v-1.442c0-0.866-0.371-1.388-1.14-1.388C169.666,58.296,169.309,58.818,169.309,59.684z"/>
				</g>
				<g>
					<rect x="274.877" y="56.507" style="fill:#263238;" width="2.715" height="6.787"/>
					<rect x="278.497" y="55.147" style="fill:#263238;" width="2.715" height="8.147"/>
					<rect x="282.117" y="54.182" style="fill:#263238;" width="2.715" height="9.113"/>
					<rect x="285.737" y="52.503" style="fill:#263238;" width="2.715" height="10.792"/>
					<g>
						<g>
							<path style="fill:#263238;" d="M322.05,63.108h-16.29v-9.955h16.29V63.108z M306.665,62.203h14.48v-8.145h-14.48V62.203z"/>
						</g>
						<g>
							<rect x="308.022" y="55.043" style="fill:#263238;" width="8.598" height="6.175"/>
						</g>
						<g>
							<rect x="321.484" y="56.958" style="fill:#263238;" width="2.049" height="2.345"/>
						</g>
					</g>
					<g>
						<path style="fill:#263238;" d="M299.787,60.943c-0.106,0-0.214-0.027-0.311-0.085c-3.315-1.97-5.506-0.141-5.598-0.064
							c-0.253,0.22-0.637,0.191-0.857-0.061c-0.22-0.253-0.196-0.633,0.056-0.854c0.118-0.103,2.919-2.504,7.021-0.066
							c0.289,0.171,0.384,0.545,0.212,0.834C300.196,60.837,299.994,60.943,299.787,60.943z"/>
					</g>
					<g>
						<path style="fill:#263238;" d="M301.013,58.898c-0.106,0-0.214-0.027-0.311-0.086c-4.793-2.851-8.015-0.093-8.048-0.067
							c-0.252,0.223-0.636,0.197-0.858-0.055c-0.222-0.252-0.198-0.637,0.055-0.858c0.039-0.036,3.925-3.364,9.474-0.067
							c0.289,0.171,0.384,0.545,0.211,0.834C301.422,58.792,301.22,58.898,301.013,58.898z"/>
					</g>
					<g>
						<path style="fill:#263238;" d="M302.127,56.53c-0.106,0-0.214-0.027-0.311-0.086c-6.071-3.61-10.107-0.212-10.276-0.064
							c-0.253,0.22-0.638,0.192-0.858-0.059c-0.221-0.252-0.196-0.634,0.056-0.855c0.047-0.043,4.843-4.145,11.7-0.067
							c0.289,0.171,0.384,0.545,0.212,0.834C302.535,56.424,302.333,56.53,302.127,56.53z"/>
					</g>
					<g>
						<circle style="fill:#263238;" cx="296.43" cy="61.962" r="1.526"/>
					</g>
				</g>
			</g>
		</g>
	</g>
</g>
<g id="Plants">
	<g>
		<path style="fill:#263238;" d="M441.239,321.225c0.048,0.03,1-3.655,1.034-3.895c0.386-2.771-0.498-8.353-3.319-9.716
			c-2.032-0.982-4.305,0.199-5.046,2.234c-0.756,2.079,0.203,4.629,1.338,6.383C436.58,318.292,441.236,321.223,441.239,321.225z"/>
		<path style="fill:#263238;" d="M385.61,320.015c2.248,0.982,7.748,0.858,7.753,0.858c0.057-0.001-1.182-3.6-1.286-3.819
			c-1.207-2.524-5.023-6.692-8.128-6.273c-2.237,0.302-3.481,2.541-2.976,4.647C381.488,317.58,383.695,319.178,385.61,320.015z"/>
		<path style="fill:#263238;" d="M457.655,301.295c-3.115-0.335-6.817,3.934-7.956,6.49c-0.098,0.221-1.24,3.852-1.182,3.852
			c0,0,0.053-0.001,0.066-0.001c-0.59,0.67-1.214,1.394-1.88,2.2c-1.218,1.497-2.582,3.2-3.94,5.153
			c-1.363,1.948-2.789,4.104-4.086,6.509c-1.303,2.41-2.551,5.01-3.49,7.857c-0.011,0.032-0.018,0.067-0.028,0.099
			c0.016-0.918-0.025-3.486-0.05-3.682c-0.36-2.775-2.685-7.925-5.767-8.495c-2.22-0.41-4.1,1.329-4.277,3.488
			c-0.181,2.204,1.418,4.411,2.977,5.803c1.758,1.57,6.637,3.091,7.026,3.21c-0.87,2.719-1.541,5.58-2.061,8.512
			c-0.299,1.676-0.549,3.374-0.777,5.079c-0.012-0.794-0.028-1.504-0.041-1.603c-0.36-2.775-2.686-7.925-5.767-8.494
			c-2.22-0.41-4.1,1.329-4.277,3.487c-0.181,2.205,1.418,4.411,2.977,5.803c1.582,1.412,5.715,2.793,6.814,3.143
			c-0.081,0.655-0.169,1.308-0.247,1.964c-0.376,3.144-0.737,6.284-1.186,9.353c-0.158,1.082-0.353,2.141-0.544,3.201
			c-0.011-0.705-0.026-1.299-0.038-1.389c-0.36-2.775-2.685-7.925-5.767-8.494c-2.22-0.41-4.1,1.329-4.277,3.488
			c-0.181,2.204,1.418,4.411,2.977,5.803c1.509,1.348,5.313,2.656,6.617,3.079c-0.229,1.08-0.456,2.162-0.726,3.199
			c-0.201,0.703-0.345,1.395-0.585,2.09c-0.224,0.693-0.445,1.38-0.665,2.06c-0.471,1.294-0.948,2.632-1.439,3.882
			c-0.335,0.872-0.67,1.697-1.005,2.53c0.17-1.075,0.457-3.185,0.461-3.365c0.043-1.859-0.617-4.88-1.931-7.004
			c0.008-0.274-0.008-0.548-0.051-0.82c-0.344-2.138-2.353-3.727-4.534-3.146c-3.028,0.806-4.948,6.121-5.092,8.915
			c-0.009,0.165,0.1,1.963,0.186,3.097c-0.152-0.659-0.293-1.3-0.458-1.976c-0.317-1.339-0.674-2.666-1.052-4.096
			c-0.207-0.684-0.416-1.374-0.627-2.072c-0.194-0.696-0.488-1.407-0.731-2.118c-0.599-1.637-1.285-3.267-2.013-4.895
			c1.172-0.281,5.32-1.338,6.985-2.616c1.658-1.272,3.416-3.354,3.401-5.565c-0.016-2.166-1.76-4.04-4.005-3.796
			c-3.115,0.338-5.818,5.301-6.384,8.041c-0.035,0.171-0.22,2.183-0.3,3.29c-0.445-0.975-0.885-1.95-1.367-2.921
			c-1.392-2.804-2.889-5.599-4.369-8.393c-0.454-0.856-0.896-1.714-1.342-2.571c0.418-0.095,5.375-1.246,7.241-2.677
			c1.658-1.272,3.417-3.354,3.401-5.565c-0.016-2.166-1.76-4.04-4.005-3.796c-3.115,0.339-5.818,5.301-6.384,8.041
			c-0.042,0.207-0.304,3.102-0.334,3.841c-0.981-1.889-1.941-3.78-2.812-5.683c-1.205-2.624-2.243-5.265-3.059-7.898
			c0.195-0.044,5.374-1.221,7.285-2.687c1.658-1.272,3.417-3.353,3.401-5.565c-0.015-2.166-1.761-4.04-4.005-3.796
			c-3.115,0.338-5.819,5.301-6.384,8.041c-0.037,0.18-0.239,2.387-0.31,3.438c-0.098,0.01-0.08,0.008-0.178,0.019
			c-0.84-2.832-1.297-5.68-1.594-8.368c-0.175-1.556-0.255-3.053-0.3-4.512c0.987-0.12,5.492-0.72,7.357-1.849
			c1.788-1.082,3.764-2.958,3.991-5.158c0.222-2.154-1.306-4.209-3.564-4.213c-3.133-0.006-6.365,4.63-7.228,7.291
			c-0.047,0.145-0.361,1.669-0.574,2.782c-0.01-0.658-0.033-1.338-0.03-1.969c0.004-2.369,0.154-4.539,0.302-6.459
			c0.093-1.091,0.199-2.076,0.308-2.997c0.907-0.624,4.531-3.182,5.646-5.01c1.088-1.784,1.977-4.36,1.165-6.417
			c-0.796-2.015-3.099-3.134-5.104-2.097c-2.784,1.439-3.516,7.042-3.055,9.802c0.04,0.238,1.091,3.897,1.139,3.865
			c0,0,0.044-0.03,0.055-0.038c-0.122,0.884-0.243,1.833-0.355,2.872c-0.19,1.921-0.388,4.093-0.444,6.472
			c-0.062,2.377-0.062,4.961,0.183,7.682c0.242,2.729,0.636,5.587,1.423,8.479c0.009,0.033,0.022,0.066,0.031,0.098
			c-0.493-0.774-1.944-2.893-2.073-3.044c-1.831-2.116-6.612-5.128-9.496-3.904c-2.078,0.883-2.687,3.37-1.643,5.268
			c1.066,1.938,3.616,2.897,5.684,3.198c2.332,0.34,7.241-1.083,7.631-1.198c0.775,2.748,1.793,5.504,2.977,8.237
			c0.675,1.563,1.404,3.117,2.154,4.665c-0.448-0.656-0.853-1.239-0.918-1.314c-1.831-2.116-6.612-5.128-9.496-3.904
			c-2.078,0.882-2.686,3.37-1.643,5.268c1.065,1.939,3.616,2.897,5.684,3.199c2.098,0.306,6.307-0.824,7.417-1.138
			c0.294,0.591,0.581,1.184,0.877,1.774c1.422,2.83,2.852,5.648,4.17,8.455c0.465,0.989,0.887,1.98,1.313,2.97
			c-0.398-0.582-0.739-1.069-0.798-1.138c-1.831-2.116-6.612-5.128-9.496-3.904c-2.078,0.882-2.686,3.37-1.643,5.268
			c1.066,1.938,3.616,2.897,5.684,3.198c2.003,0.292,5.897-0.716,7.217-1.082c0.405,1.027,0.813,2.055,1.159,3.068
			c0.221,0.697,0.482,1.353,0.665,2.066c0.196,0.702,0.39,1.397,0.582,2.085c0.321,1.339,0.661,2.718,0.941,4.032
			c0.202,0.912,0.378,1.785,0.557,2.664c-0.451-0.99-1.376-2.909-1.472-3.061c-1.489-2.369-5.758-6.071-8.795-5.297
			c-2.187,0.558-3.166,2.924-2.422,4.958c0.76,2.077,3.136,3.411,5.134,4.023c2.2,0.673,7.072,0.058,7.68-0.023
			c0.292,1.456,0.562,2.874,0.795,4.217c0.82,4.653,1.327,8.559,1.643,11.294c0.056,0.486,0.104,0.92,0.147,1.329h-9.43
			l2.877,56.143h17.201l2.877-56.143h-8.786c0.065-0.135,0.127-0.261,0.195-0.403c1.206-2.511,2.877-6.121,4.683-10.537
			c0.574-1.394,1.159-2.895,1.746-4.443c0.59,0.123,5.412,1.103,7.66,0.596c2.038-0.461,4.507-1.614,5.419-3.629
			c0.894-1.973,0.094-4.406-2.046-5.125c-2.97-0.998-7.504,2.375-9.165,4.627c-0.098,0.133-1,1.693-1.554,2.686
			c0.237-0.633,0.473-1.246,0.708-1.901c0.474-1.292,0.909-2.596,1.382-3.996c0.205-0.684,0.411-1.376,0.62-2.074
			c0.222-0.688,0.369-1.443,0.559-2.17c0.404-1.696,0.73-3.434,1.021-5.193c1.133,0.412,5.175,1.819,7.27,1.672
			c2.084-0.146,4.699-0.912,5.906-2.766c1.182-1.815,0.76-4.341-1.246-5.376c-2.785-1.436-7.777,1.212-9.761,3.185
			c-0.124,0.123-1.387,1.699-2.065,2.578c0.166-1.059,0.338-2.114,0.471-3.19c0.386-3.107,0.679-6.264,0.986-9.411
			c0.093-0.964,0.198-1.924,0.299-2.885c0.401,0.151,5.171,1.927,7.516,1.762c2.085-0.146,4.699-0.912,5.907-2.766
			c1.182-1.815,0.76-4.341-1.246-5.376c-2.785-1.436-7.777,1.211-9.76,3.185c-0.15,0.149-1.965,2.419-2.398,3.019
			c0.224-2.116,0.466-4.224,0.79-6.291c0.442-2.854,1.034-5.629,1.806-8.275c0.187,0.071,5.156,1.946,7.558,1.778
			c2.085-0.146,4.7-0.912,5.907-2.766c1.182-1.815,0.76-4.341-1.246-5.376c-2.785-1.436-7.777,1.211-9.76,3.185
			c-0.13,0.13-1.514,1.857-2.154,2.695c-0.088-0.045-0.072-0.037-0.159-0.082c0.861-2.825,2.051-5.452,3.286-7.857
			c0.713-1.394,1.472-2.687,2.239-3.928c0.89,0.444,4.978,2.429,7.156,2.516c2.088,0.083,4.771-0.391,6.175-2.1
			c1.374-1.674,1.232-4.232-0.648-5.48c-2.61-1.734-7.863,0.35-10.051,2.094c-0.119,0.095-1.222,1.193-2.014,2.004
			c0.355-0.555,0.711-1.134,1.061-1.659c1.311-1.974,2.633-3.701,3.816-5.221c0.68-0.859,1.311-1.622,1.91-2.33
			c1.101-0.02,5.534-0.154,7.473-1.064c1.891-0.888,4.055-2.546,4.512-4.71C461.203,303.74,459.899,301.536,457.655,301.295z
			 M423.161,384.995c-1.883,4.333-3.616,7.871-4.86,10.326c-0.251,0.495-0.477,0.933-0.686,1.336h-0.208
			c-0.061-0.479-0.13-1.003-0.211-1.592c-0.38-2.759-0.977-6.692-1.907-11.371c-0.29-1.479-0.63-3.054-0.995-4.668
			c0.366-0.145,2.444-0.986,4.285-2.015c1.604,1.737,5.713,3.769,6.245,4.028C424.264,382.414,423.707,383.746,423.161,384.995z"/>
		<path style="opacity:0.3;fill:#263238;" d="M385.61,320.015c2.248,0.982,7.748,0.858,7.753,0.858
			c0.057-0.001-1.182-3.6-1.286-3.819c-1.207-2.524-5.023-6.692-8.128-6.273c-2.237,0.302-3.481,2.541-2.976,4.647
			C381.488,317.58,383.695,319.178,385.61,320.015z"/>
		<path style="opacity:0.3;fill:#263238;" d="M441.239,321.225c0.048,0.03,1-3.655,1.034-3.895c0.386-2.771-0.498-8.353-3.319-9.716
			c-2.032-0.982-4.305,0.199-5.046,2.234c-0.756,2.079,0.203,4.629,1.338,6.383C436.58,318.292,441.236,321.223,441.239,321.225z"/>
		<path style="opacity:0.3;fill:#263238;" d="M457.655,301.295c-3.115-0.335-6.817,3.934-7.956,6.49
			c-0.098,0.221-1.24,3.852-1.182,3.852c0,0,0.053-0.001,0.066-0.001c-0.59,0.67-1.214,1.394-1.88,2.2
			c-1.218,1.497-2.582,3.2-3.94,5.153c-1.363,1.948-2.789,4.104-4.086,6.509c-1.303,2.41-2.551,5.01-3.49,7.857
			c-0.011,0.032-0.018,0.067-0.028,0.099c0.016-0.918-0.025-3.486-0.05-3.682c-0.36-2.775-2.685-7.925-5.767-8.495
			c-2.22-0.41-4.1,1.329-4.277,3.488c-0.181,2.204,1.418,4.411,2.977,5.803c1.758,1.57,6.637,3.091,7.026,3.21
			c-0.87,2.719-1.541,5.58-2.061,8.512c-0.299,1.676-0.549,3.374-0.777,5.079c-0.012-0.794-0.028-1.504-0.041-1.603
			c-0.36-2.775-2.686-7.925-5.767-8.494c-2.22-0.41-4.1,1.329-4.277,3.487c-0.181,2.205,1.418,4.411,2.977,5.803
			c1.582,1.412,5.715,2.793,6.814,3.143c-0.081,0.655-0.169,1.308-0.247,1.964c-0.376,3.144-0.737,6.284-1.186,9.353
			c-0.158,1.082-0.353,2.141-0.544,3.201c-0.011-0.705-0.026-1.299-0.038-1.389c-0.36-2.775-2.685-7.925-5.767-8.494
			c-2.22-0.41-4.1,1.329-4.277,3.488c-0.181,2.204,1.418,4.411,2.977,5.803c1.509,1.348,5.313,2.656,6.617,3.079
			c-0.229,1.08-0.456,2.162-0.726,3.199c-0.201,0.703-0.345,1.395-0.585,2.09c-0.224,0.693-0.445,1.38-0.665,2.06
			c-0.471,1.294-0.948,2.632-1.439,3.882c-0.335,0.872-0.67,1.697-1.005,2.53c0.17-1.075,0.457-3.185,0.461-3.365
			c0.043-1.859-0.617-4.88-1.931-7.004c0.008-0.274-0.008-0.548-0.051-0.82c-0.344-2.138-2.353-3.727-4.534-3.146
			c-3.028,0.806-4.948,6.121-5.092,8.915c-0.009,0.165,0.1,1.963,0.186,3.097c-0.152-0.659-0.293-1.3-0.458-1.976
			c-0.317-1.339-0.674-2.666-1.052-4.096c-0.207-0.684-0.416-1.374-0.627-2.072c-0.194-0.696-0.488-1.407-0.731-2.118
			c-0.599-1.637-1.285-3.267-2.013-4.895c1.172-0.281,5.32-1.338,6.985-2.616c1.658-1.272,3.416-3.354,3.401-5.565
			c-0.016-2.166-1.76-4.04-4.005-3.796c-3.115,0.338-5.818,5.301-6.384,8.041c-0.035,0.171-0.22,2.183-0.3,3.29
			c-0.445-0.975-0.885-1.95-1.367-2.921c-1.392-2.804-2.889-5.599-4.369-8.393c-0.454-0.856-0.896-1.714-1.342-2.571
			c0.418-0.095,5.375-1.246,7.241-2.677c1.658-1.272,3.417-3.354,3.401-5.565c-0.016-2.166-1.76-4.04-4.005-3.796
			c-3.115,0.339-5.818,5.301-6.384,8.041c-0.042,0.207-0.304,3.102-0.334,3.841c-0.981-1.889-1.941-3.78-2.812-5.683
			c-1.205-2.624-2.243-5.265-3.059-7.898c0.195-0.044,5.374-1.221,7.285-2.687c1.658-1.272,3.417-3.353,3.401-5.565
			c-0.015-2.166-1.761-4.04-4.005-3.796c-3.115,0.338-5.819,5.301-6.384,8.041c-0.037,0.18-0.239,2.387-0.31,3.438
			c-0.098,0.01-0.08,0.008-0.178,0.019c-0.84-2.832-1.297-5.68-1.594-8.368c-0.175-1.556-0.255-3.053-0.3-4.512
			c0.987-0.12,5.492-0.72,7.357-1.849c1.788-1.082,3.764-2.958,3.991-5.158c0.222-2.154-1.306-4.209-3.564-4.213
			c-3.133-0.006-6.365,4.63-7.228,7.291c-0.047,0.145-0.361,1.669-0.574,2.782c-0.01-0.658-0.033-1.338-0.03-1.969
			c0.004-2.369,0.154-4.539,0.302-6.459c0.093-1.091,0.199-2.076,0.308-2.997c0.907-0.624,4.531-3.182,5.646-5.01
			c1.088-1.784,1.977-4.36,1.165-6.417c-0.796-2.015-3.099-3.134-5.104-2.097c-2.784,1.439-3.516,7.042-3.055,9.802
			c0.04,0.238,1.091,3.897,1.139,3.865c0,0,0.044-0.03,0.055-0.038c-0.122,0.884-0.243,1.833-0.355,2.872
			c-0.19,1.921-0.388,4.093-0.444,6.472c-0.062,2.377-0.062,4.961,0.183,7.682c0.242,2.729,0.636,5.587,1.423,8.479
			c0.009,0.033,0.022,0.066,0.031,0.098c-0.493-0.774-1.944-2.893-2.073-3.044c-1.831-2.116-6.612-5.128-9.496-3.904
			c-2.078,0.883-2.687,3.37-1.643,5.268c1.066,1.938,3.616,2.897,5.684,3.198c2.332,0.34,7.241-1.083,7.631-1.198
			c0.775,2.748,1.793,5.504,2.977,8.237c0.675,1.563,1.404,3.117,2.154,4.665c-0.448-0.656-0.853-1.239-0.918-1.314
			c-1.831-2.116-6.612-5.128-9.496-3.904c-2.078,0.882-2.686,3.37-1.643,5.268c1.065,1.939,3.616,2.897,5.684,3.199
			c2.098,0.306,6.307-0.824,7.417-1.138c0.294,0.591,0.581,1.184,0.877,1.774c1.422,2.83,2.852,5.648,4.17,8.455
			c0.465,0.989,0.887,1.98,1.313,2.97c-0.398-0.582-0.739-1.069-0.798-1.138c-1.831-2.116-6.612-5.128-9.496-3.904
			c-2.078,0.882-2.686,3.37-1.643,5.268c1.066,1.938,3.616,2.897,5.684,3.198c2.003,0.292,5.897-0.716,7.217-1.082
			c0.405,1.027,0.813,2.055,1.159,3.068c0.221,0.697,0.482,1.353,0.665,2.066c0.196,0.702,0.39,1.397,0.582,2.085
			c0.321,1.339,0.661,2.718,0.941,4.032c0.202,0.912,0.378,1.785,0.557,2.664c-0.451-0.99-1.376-2.909-1.472-3.061
			c-1.489-2.369-5.758-6.071-8.795-5.297c-2.187,0.558-3.166,2.924-2.422,4.958c0.76,2.077,3.136,3.411,5.134,4.023
			c2.2,0.673,7.072,0.058,7.68-0.023c0.292,1.456,0.562,2.874,0.795,4.217c0.82,4.653,1.327,8.559,1.643,11.294
			c0.056,0.486,0.104,0.92,0.147,1.329h-9.43l2.877,56.143h17.201l2.877-56.143h-8.786c0.065-0.135,0.127-0.261,0.195-0.403
			c1.206-2.511,2.877-6.121,4.683-10.537c0.574-1.394,1.159-2.895,1.746-4.443c0.59,0.123,5.412,1.103,7.66,0.596
			c2.038-0.461,4.507-1.614,5.419-3.629c0.894-1.973,0.094-4.406-2.046-5.125c-2.97-0.998-7.504,2.375-9.165,4.627
			c-0.098,0.133-1,1.693-1.554,2.686c0.237-0.633,0.473-1.246,0.708-1.901c0.474-1.292,0.909-2.596,1.382-3.996
			c0.205-0.684,0.411-1.376,0.62-2.074c0.222-0.688,0.369-1.443,0.559-2.17c0.404-1.696,0.73-3.434,1.021-5.193
			c1.133,0.412,5.175,1.819,7.27,1.672c2.084-0.146,4.699-0.912,5.906-2.766c1.182-1.815,0.76-4.341-1.246-5.376
			c-2.785-1.436-7.777,1.212-9.761,3.185c-0.124,0.123-1.387,1.699-2.065,2.578c0.166-1.059,0.338-2.114,0.471-3.19
			c0.386-3.107,0.679-6.264,0.986-9.411c0.093-0.964,0.198-1.924,0.299-2.885c0.401,0.151,5.171,1.927,7.516,1.762
			c2.085-0.146,4.699-0.912,5.907-2.766c1.182-1.815,0.76-4.341-1.246-5.376c-2.785-1.436-7.777,1.211-9.76,3.185
			c-0.15,0.149-1.965,2.419-2.398,3.019c0.224-2.116,0.466-4.224,0.79-6.291c0.442-2.854,1.034-5.629,1.806-8.275
			c0.187,0.071,5.156,1.946,7.558,1.778c2.085-0.146,4.7-0.912,5.907-2.766c1.182-1.815,0.76-4.341-1.246-5.376
			c-2.785-1.436-7.777,1.211-9.76,3.185c-0.13,0.13-1.514,1.857-2.154,2.695c-0.088-0.045-0.072-0.037-0.159-0.082
			c0.861-2.825,2.051-5.452,3.286-7.857c0.713-1.394,1.472-2.687,2.239-3.928c0.89,0.444,4.978,2.429,7.156,2.516
			c2.088,0.083,4.771-0.391,6.175-2.1c1.374-1.674,1.232-4.232-0.648-5.48c-2.61-1.734-7.863,0.35-10.051,2.094
			c-0.119,0.095-1.222,1.193-2.014,2.004c0.355-0.555,0.711-1.134,1.061-1.659c1.311-1.974,2.633-3.701,3.816-5.221
			c0.68-0.859,1.311-1.622,1.91-2.33c1.101-0.02,5.534-0.154,7.473-1.064c1.891-0.888,4.055-2.546,4.512-4.71
			C461.203,303.74,459.899,301.536,457.655,301.295z M423.161,384.995c-1.883,4.333-3.616,7.871-4.86,10.326
			c-0.251,0.495-0.477,0.933-0.686,1.336h-0.208c-0.061-0.479-0.13-1.003-0.211-1.592c-0.38-2.759-0.977-6.692-1.907-11.371
			c-0.29-1.479-0.63-3.054-0.995-4.668c0.366-0.145,2.444-0.986,4.285-2.015c1.604,1.737,5.713,3.769,6.245,4.028
			C424.264,382.414,423.707,383.746,423.161,384.995z"/>
	</g>
</g>
<g id="Floor">
	<g>
		
			<line style="fill:none;stroke:#263238;stroke-linejoin:round;stroke-miterlimit:10;" x1="387" y1="452.801" x2="471.74" y2="452.801"/>
		
			<line style="fill:none;stroke:#263238;stroke-linejoin:round;stroke-miterlimit:10;" x1="88" y1="452.801" x2="378" y2="452.801"/>
		
			<line style="fill:none;stroke:#263238;stroke-linejoin:round;stroke-miterlimit:10;" x1="49.118" y1="452.801" x2="79" y2="452.801"/>
	</g>
</g>
<g id="Character">
	<g>
		<g>
			<g>
				<path style="fill:#FFFFFF;stroke:#263238;stroke-linecap:round;stroke-linejoin:round;stroke-miterlimit:10;" d="M330.307,449.5
					c-0.066,0.831-0.173,1.588-0.337,2.18c-0.823,3.011-5.488,1.917-8.227,3.011c-2.74,1.103-6.31,2.468-8.779,3.291
					c-2.468,0.823-10.144,1.374-13.987,0.551c-2.534-0.543-3.76-1.925-3.809-3.357c-0.033-0.732,0.239-1.481,0.798-2.131
					c1.645-1.917,7.948-4.385,11.518-7.125c3.562-2.748,8.227-9.33,8.227-9.33c5.208,1.374,13.987,0.28,13.987,0.28
					s0.543,3.011,0.543,3.834C330.241,441.363,330.595,446.102,330.307,449.5z"/>
				<path style="fill:#FFFFFF;stroke:#263238;stroke-linecap:round;stroke-linejoin:round;stroke-miterlimit:10;" d="M330.307,449.5
					c-0.066,0.831-0.173,1.588-0.337,2.18c-0.823,3.011-5.488,1.917-8.227,3.011c-2.74,1.103-6.31,2.468-8.779,3.291
					c-2.468,0.823-10.144,1.374-13.987,0.551c-2.534-0.543-3.76-1.925-3.809-3.357c1.399,1.028,4.813,2.814,11.296,2.246
					c8.951-0.773,12.07-3.892,15.772-5.447C324.918,450.85,328.538,449.92,330.307,449.5z"/>
			</g>
			<path style="fill:#FFFFFF;stroke:#263238;stroke-linecap:round;stroke-linejoin:round;stroke-miterlimit:10;" d="M329.93,438.235
				c-0.123-0.751-0.235-1.367-0.235-1.367s-4.064,0.507-8.303,0.4l-0.198,0.149c0,0,0.548-0.274,0.823,1.92
				c0.274,2.194,0,4.388,0,4.388s6.241-1.484,7.13-3.565C329.406,439.554,329.676,438.883,329.93,438.235z"/>
		</g>
		<g>
			<g>
				<path style="fill:#FFFFFF;stroke:#263238;stroke-linecap:round;stroke-linejoin:round;stroke-miterlimit:10;" d="
					M360.963,460.904c-2.526,1.596-14.883,8.507-17.014,8.902c-2.123,0.403-9.963-0.132-12.226-1.991
					c-1.753-1.448-2.221-3.373-1.094-4.978c0.321-0.461,0.773-0.889,1.366-1.267c2.657-1.728,7.306-6.648,9.437-9.437
					c2.123-2.789,5.447-7.709,5.447-7.709l0.263-1.465l13.559,0.403c0,0,0.263,2.921,0.395,3.456c0.14,0.526,0.535,1.859,1.069,5.71
					c0.156,1.135,0.337,2.197,0.444,3.159C362.871,457.999,362.74,459.776,360.963,460.904z"/>
				<path style="fill:#FFFFFF;stroke:#263238;stroke-linecap:round;stroke-linejoin:round;stroke-miterlimit:10;" d="
					M360.963,460.904c-2.526,1.596-14.883,8.507-17.014,8.902c-2.123,0.403-9.963-0.132-12.226-1.991
					c-1.753-1.448-2.221-3.373-1.094-4.978c0.173,0.93,1.456,5.644,9.708,5.298c9.157-0.387,16.356-8.565,20.445-11.296
					c0.65-0.436,1.259-0.815,1.827-1.152C362.871,457.999,362.74,459.776,360.963,460.904z"/>
			</g>
			<path style="fill:#FFFFFF;stroke:#263238;stroke-linecap:round;stroke-linejoin:round;stroke-miterlimit:10;" d="M360.698,443.36
				l-13.556-0.399l-0.266,1.462c0,0-0.243,0.359-0.632,0.928c0.331-0.018,4.402-0.221,5.55,0.799
				c1.196,1.063,1.329,4.519,4.12,3.588c1.763-0.588,3.737-1.812,5.154-3.07C360.929,445.89,360.698,443.36,360.698,443.36z"/>
		</g>
		<g>
			<path style="fill:#263238;stroke:#263238;stroke-linecap:round;stroke-linejoin:round;stroke-miterlimit:10;" d="
				M305.562,310.715c0,0-1.097,28.796,1.097,46.348c2.194,17.552,2.742,30.167,3.017,30.99c0.274,0.823,5.485,35.652,5.759,37.846
				c0.274,2.194,1.097,4.662,1.097,5.485c0,0.823,0.823,1.097,4.936,2.194c4.114,1.097,8.227-0.548,8.227-0.548
				s1.92-18.923,1.92-23.86c0-4.936-2.468-27.425-2.468-28.247c0-0.823,1.646-38.395,1.646-38.395l1.371,1.097
				c0,0,1.92,32.087,2.743,38.12c0.823,6.033,1.097,11.518,2.194,14.535c1.097,3.017,3.565,22.214,4.662,24.956
				c1.097,2.743,1.92,13.164,1.92,13.164l0.823,3.291c0,0,1.097,3.017,7.953,3.017s8.227-1.646,8.227-1.646
				s0.274-14.535,0.274-21.391s-3.565-27.151-4.114-31.813s-1.371-23.585-0.274-27.425c1.097-3.84,3.017-26.328,3.017-35.926
				c0-9.599-0.548-13.438-0.548-13.438s-26.053,1.645-34.829,0.274c-8.776-1.371-17.003-3.291-17.003-3.291L305.562,310.715z"/>
		</g>
		<g>
			<g>
				<path style="fill:#808080;stroke:#263238;stroke-linecap:round;stroke-linejoin:round;stroke-miterlimit:10;" d="
					M313.515,309.618c0,0,11.793,3.565,30.716,1.92l0.274-4.936l-30.167-10.147L313.515,309.618z"/>
			</g>
			
				<rect x="321.658" y="308.577" transform="matrix(0.9993 0.0373 -0.0373 0.9993 11.8091 -11.9422)" style="fill:#FFFFFF;stroke:#263238;stroke-linecap:round;stroke-linejoin:round;stroke-miterlimit:10;" width="7.789" height="3.075"/>
		</g>
		<path style="fill:#92E3A9;stroke:#263238;stroke-linecap:round;stroke-linejoin:round;stroke-miterlimit:10;" d="M346.699,228.715
			c0,0-9.599-1.097-14.261,0.274c-4.662,1.371-10.421,3.017-12.067,7.405c-1.645,4.388-9.736,69.522-9.736,69.522
			s8.913,2.88,16.866,2.88c7.953,0,16.455-0.549,16.455-0.549s0.823-35.104,2.743-41.411
			C348.619,260.527,346.699,228.715,346.699,228.715z"/>
		<path style="fill:#FFFFFF;stroke:#263238;stroke-linecap:round;stroke-linejoin:round;stroke-miterlimit:10;" d="M324.923,233.197
			c0,0,0.332,6.816,2.327,8.478c1.995,1.662,2.161,2.161,2.161,2.161l1.164,12.966c0,0,4.322-7.813,4.821-8.81
			c0.499-0.997,0.997-5.486,0.997-5.486s2.66-1.995,4.156-3.491c1.496-1.496,2.66-11.47,2.66-12.633c0-1.164-0.332-7.48-0.332-7.48
			s-3.491,7.813-7.314,11.304c-3.823,3.491-7.48,3.823-8.312,3.657C326.419,233.696,324.923,233.197,324.923,233.197z"/>
		<g>
			<path style="fill:#FFFFFF;stroke:#263238;stroke-linecap:round;stroke-linejoin:round;stroke-miterlimit:10;" d="
				M324.757,231.202c0,0-0.332,24.104-0.332,33.911c0,9.808-2.992,22.109-6.151,30.42c-3.158,8.312-9.974,30.669-12.135,35.822
				c-2.161,5.153-3.491,10.473-3.491,10.473s-3.158-2.493-3.325-10.639c-0.166-8.145,1.828-17.621,2.161-23.439
				c0.332-5.818,0.499-18.035,0.499-18.035s0,2.826-4.322,4.987c-4.322,2.161-6.982,3.158-9.808-2.161
				c-2.826-5.319-2.493-8.478,0.166-13.298c2.66-4.821,5.153-17.288,7.314-22.94c2.161-5.652,1.995-13.631,4.322-15.293
				c2.327-1.662,13.465-6.151,17.953-8.81c4.488-2.66,6.317-2.66,6.317-2.66S324.59,229.208,324.757,231.202z"/>
			<path style="fill:none;stroke:#263238;stroke-linecap:round;stroke-linejoin:round;stroke-miterlimit:10;" d="M292.846,276.908
				c0,0-3.321,6.88-2.372,9.252c0.949,2.372,4.033,4.982,7.592,2.847c3.559-2.135,4.745-2.372,3.559-6.88
				C300.438,277.62,295.93,274.299,292.846,276.908z"/>
			<path style="fill:#FFFFFF;stroke:#263238;stroke-linecap:round;stroke-linejoin:round;stroke-miterlimit:10;" d="
				M303.828,253.677c-0.104-2.314-0.183-3.857-0.183-3.857"/>
			<path style="fill:#FFFFFF;stroke:#263238;stroke-linecap:round;stroke-linejoin:round;stroke-miterlimit:10;" d="
				M301.983,289.716c0,0,2.327-12.634,2.327-19.781c0-3.914-0.199-9.571-0.38-13.89"/>
			<path style="fill:#FFFFFF;stroke:#263238;stroke-linecap:round;stroke-linejoin:round;stroke-miterlimit:10;" d="M323.925,229.54
				c0,0-1.446,0.005-4.908,1.865c-0.772,4.374-2.252,14.565-1.242,23.901c0.854,7.901,3.695,16.139,5.62,21.026
				c0.64-3.861,1.029-7.7,1.029-11.218c0-9.808,0.332-33.911,0.332-33.911C324.59,229.208,323.925,229.54,323.925,229.54z"/>
		</g>
		<g>
			<path style="fill:#FFFFFF;stroke:#263238;stroke-linecap:round;stroke-linejoin:round;stroke-miterlimit:10;" d="
				M313.997,208.053c0,0,1.377,8.778,2.754,12.564c1.377,3.786,4.647,7.917,6.024,10.499c1.377,2.582,4.303,5.336,7.573,5.336
				s7.745-4.475,8.606-6.024c0.861-1.549,3.27-4.303,3.442-6.024c0.172-1.721,0.172-4.475,0.172-4.475s3.27-0.861,3.959-4.819
				c0.689-3.959-0.516-6.196-0.516-6.196s-0.516-1.549-2.926-5.508s-10.327-6.196-17.9-4.991
				C317.612,199.619,313.825,202.889,313.997,208.053z"/>
			<g>
				<path style="fill:#FFFFFF;stroke:#263238;stroke-linecap:round;stroke-linejoin:round;stroke-miterlimit:10;" d="
					M314.207,214.984c0,0,4.782-1.079,9.945,0.126c0,0,0.861,3.098-1.033,5.163c-1.893,2.065-5.336,1.377-6.368,1.033
					C315.718,220.961,314.151,219.148,314.207,214.984z"/>
				<path style="fill:#FFFFFF;stroke:#263238;stroke-linecap:round;stroke-linejoin:round;stroke-miterlimit:10;" d="
					M327.591,214.847c0,0,4.766-1.148,9.946-0.017c0,0,0.905,3.085-0.958,5.178c-1.863,2.092-5.315,1.454-6.353,1.124
					C329.188,220.802,327.594,219.012,327.591,214.847z"/>
				<path style="fill:none;stroke:#263238;stroke-linecap:round;stroke-linejoin:round;stroke-miterlimit:10;" d="M324.152,215.109
					c0,0,1.471-0.829,3.439-0.262"/>
				
					<line style="fill:none;stroke:#263238;stroke-linecap:round;stroke-linejoin:round;stroke-miterlimit:10;" x1="337.536" y1="214.83" x2="342.224" y2="211.667"/>
				<path style="fill:none;stroke:#263238;stroke-linecap:round;stroke-linejoin:round;stroke-miterlimit:10;" d="M324.416,216.545
					c0,0,1.851-0.72,2.982,0"/>
			</g>
			<path style="fill:none;stroke:#263238;stroke-linecap:round;stroke-linejoin:round;stroke-miterlimit:10;" d="M328.53,213.665
				c0,0,3.291-1.44,6.273-0.617"/>
			<path style="fill:none;stroke:#263238;stroke-linecap:round;stroke-linejoin:round;stroke-miterlimit:10;" d="M323.079,214.18
				c0,0-2.777-1.645-5.554-0.72"/>
			<path style="fill:none;stroke:#263238;stroke-linecap:round;stroke-linejoin:round;stroke-miterlimit:10;" d="M324.416,218.293
				c0,0-0.206,7.507-0.103,7.816c0.103,0.309,1.44,1.028,2.16,1.028s2.674-0.514,2.674-0.514"/>
			<path style="fill:none;stroke:#263238;stroke-linecap:round;stroke-linejoin:round;stroke-miterlimit:10;" d="M325.239,228.989
				c0,0,2.057,1.748,5.862,0.206"/>
		</g>
		<path style="fill:#263238;stroke:#263238;stroke-linecap:round;stroke-linejoin:round;stroke-miterlimit:10;" d="M310.899,199.791
			c0,0-5.68,1.721-4.647,5.335c1.033,3.614,7.573,4.819,14.113,3.098c6.54-1.721,13.597-5.163,13.597-5.163
			s-1.549,1.893,0.344,3.614c1.893,1.721,1.721-3.614,1.721-3.614s-0.172,6.196,2.237,7.057c2.41,0.861,2.582,1.377,2.582,1.377
			s-0.861,3.442,0.172,3.786c1.033,0.344,1.205-3.614,1.205-3.614s0.344-2.065,2.065-2.41c1.721-0.344,1.721-0.344,1.721-0.344
			s-0.344-11.532-1.377-15.835c-1.033-4.303-11.532-9.294-20.654-6.024S310.555,194.8,310.899,199.791z"/>
		<g>
			<path style="fill:#FFFFFF;stroke:#263238;stroke-linecap:round;stroke-linejoin:round;stroke-miterlimit:10;" d="M291.178,281.57
				l3.989-6.317l3.325,5.319c0,0-4.156,2.327-4.655,2.327C293.339,282.9,291.178,281.57,291.178,281.57z"/>
			<path style="fill:#FFFFFF;stroke:#263238;stroke-linecap:round;stroke-linejoin:round;stroke-miterlimit:10;" d="
				M299.323,284.895c0,0,1.995,0.831,2.992,0.997c0.997,0.166,4.156-0.997,5.153-2.66c0.997-1.662-0.665-1.829-0.665-1.829
				l-1.995,1.829l-3.325-0.166L299.323,284.895z"/>
			<polygon style="fill:#263238;stroke:#263238;stroke-linecap:round;stroke-linejoin:round;stroke-miterlimit:10;" points="
				289.017,268.272 298.658,282.9 306.804,283.066 298.16,268.272 			"/>
			<path style="fill:#FFFFFF;stroke:#263238;stroke-linecap:round;stroke-linejoin:round;stroke-miterlimit:10;" d="
				M298.991,277.747c0,0-7.813,2.66-7.813,3.823c0,1.164,1.164,1.995,2.493,1.995c1.33,0,6.483-3.325,6.982-4.322
				C301.152,278.246,300.653,277.581,298.991,277.747z"/>
			<path style="fill:#FFFFFF;stroke:#263238;stroke-linecap:round;stroke-linejoin:round;stroke-miterlimit:10;" d="
				M294.503,283.731c0,0,0.332,1.496,1.828,1.995c1.496,0.499,5.984-2.66,6.816-3.823c0.831-1.164-1.662-0.831-3.491-0.166
				C297.827,282.401,294.503,283.731,294.503,283.731z"/>
			<path style="fill:#FFFFFF;stroke:#263238;stroke-linecap:round;stroke-linejoin:round;stroke-miterlimit:10;" d="
				M291.344,272.095c0,0-1.496,1.164-0.333,2.826c1.164,1.662,3.99,1.995,3.99,1.995L291.344,272.095z"/>
		</g>
		<g>
			<path style="fill:#FFFFFF;stroke:#263238;stroke-linecap:round;stroke-linejoin:round;stroke-miterlimit:10;" d="
				M343.208,226.382c0,0-6.483,43.386-7.979,47.209c-1.496,3.823,2.826,33.162,2.826,37.152c0,3.99,3.823,4.655,5.319,5.486
				c1.496,0.831,13.631,6.649,15.46,9.641c1.828,2.992,6.483,9.309,6.483,9.309s-2.785-28.216-3.158-43.468
				c-0.151-6.149,0.332-15.293,0.332-15.293s6.982-36.238,6.317-38.898c-0.665-2.66-11.802-6.982-16.623-8.644
				C347.364,227.213,343.208,226.382,343.208,226.382z"/>
			<path style="fill:#FFFFFF;stroke:#263238;stroke-linecap:round;stroke-linejoin:round;stroke-miterlimit:10;" d="
				M351.353,232.033c0.162-1.133,0.323-2.343,0.447-3.288c-4.654-1.574-8.592-2.364-8.592-2.364s-6.483,43.386-7.979,47.21
				c-0.26,0.664-0.341,1.857-0.303,3.383c0.883-1.243,4.607-6.567,7.95-12.526C346.699,257.633,351.021,234.361,351.353,232.033z"/>
		</g>
		<path style="fill:#FFFFFF;stroke:#263238;stroke-linecap:round;stroke-linejoin:round;stroke-miterlimit:10;" d="M338.886,313.735
			c0,0,3.823,1.33,9.641,1.995c5.818,0.665,19.58,6.15,24.486,12.172c3.381,4.15,4.156,5.818,4.156,5.818s-6.865,0.961-8.195,1.127
			c-1.33,0.166-4.322,0.332-4.322,0.332s-5.319-7.647-7.979-9.808C354.013,323.21,339.884,316.228,338.886,313.735z"/>
		<path style="fill:#808080;stroke:#263238;stroke-linecap:round;stroke-linejoin:round;stroke-miterlimit:10;" d="M314.338,431.18
			v4.741c0,0.799,0.473,1.524,1.212,1.828c1.143,0.47,3.179,1.118,6.467,1.588c3.873,0.553,6.629-0.506,8.02-1.259
			c0.639-0.346,1.03-1.014,1.03-1.741v-4.301c0-1.034-0.921-1.824-1.941-1.656c-3.005,0.493-8.895,1.148-13.287-0.303
			C315.097,429.832,314.338,430.399,314.338,431.18z"/>
		<path style="fill:#808080;stroke:#263238;stroke-linecap:round;stroke-linejoin:round;stroke-miterlimit:10;" d="M342.953,436.218
			v5.35c0,0.902,0.534,1.72,1.368,2.063c1.289,0.53,3.587,1.262,7.298,1.792c4.371,0.624,7.481-0.571,9.051-1.42
			c0.721-0.391,1.163-1.144,1.163-1.964v-4.854c0-1.167-1.039-2.058-2.19-1.869c-3.391,0.556-10.038,1.296-14.995-0.342
			C343.81,434.697,342.953,435.336,342.953,436.218z"/>
		<g>
			<g>
				<polygon style="fill:#FFFFFF;stroke:#263238;stroke-linecap:round;stroke-linejoin:round;stroke-miterlimit:10;" points="
					354.2,318.291 348.79,323.268 356.796,331.057 359.825,326.08 				"/>
				<path style="fill:#FFFFFF;stroke:#263238;stroke-linecap:round;stroke-linejoin:round;stroke-miterlimit:10;" d="
					M361.66,258.298c0,0-1.164,9.808-0.665,13.298c0.499,3.491,8.303,22.906,8.303,22.906l-16.615,24.053
					c0,0,1.995,8.478,7.647,11.137c0,0,16.339-15.913,19.449-19.283c6.658-7.216,9.21-13.491,9.21-16.15
					s-16.358-51.089-16.691-52.253c-0.332-1.164-1.995-5.652-6.15-6.815"/>
			</g>
			<path style="fill:none;stroke:#263238;stroke-linecap:round;stroke-linejoin:round;stroke-miterlimit:10;" d="M370.897,294.464
				c0,0,4.745-2.847,9.727-0.949"/>
			<path style="fill:none;stroke:#263238;stroke-linecap:round;stroke-linejoin:round;stroke-miterlimit:10;" d="M376.591,291.38
				c0,0,3.084-0.712,5.931,1.186"/>
		</g>
	</g>
</g>
<g id="Location_3">
	<g>
		<path style="fill:#263238;" d="M320.456,82.408c9.443,0,17.884,4.359,23.424,11.167h56.057c8.692,0,15.764,7.072,15.764,15.764
			c0,8.692-7.072,15.764-15.764,15.764h-52.022c-2.181,4.78-5.592,8.988-9.989,12.117l-16.789,12.997
			c-0.063,0.049-0.139,0.073-0.214,0.073c-0.072,0-0.144-0.022-0.206-0.067l-18.429-13.397c0,0-0.001,0-0.001-0.001
			c-7.635-5.6-12.014-14.434-12.014-24.236C290.272,95.948,303.813,82.408,320.456,82.408z"/>
		<g>
			<g>
				<path style="fill:#FFFFFF;stroke:#263238;stroke-linecap:round;stroke-linejoin:round;stroke-miterlimit:10;" d="M400.699,122
					H328V91.171h72.699c8.513,0,15.414,6.901,15.414,15.414v0C416.113,115.099,409.212,122,400.699,122z"/>
				
					<line style="fill:#92E3A9;stroke:#263238;stroke-linejoin:round;stroke-miterlimit:10;" x1="402.342" y1="102.059" x2="363.357" y2="102.059"/>
				
					<line style="fill:#92E3A9;stroke:#263238;stroke-linejoin:round;stroke-miterlimit:10;" x1="402.342" y1="106.976" x2="363.357" y2="106.976"/>
				
					<line style="fill:#92E3A9;stroke:#263238;stroke-linejoin:round;stroke-miterlimit:10;" x1="402.342" y1="111.893" x2="363.357" y2="111.893"/>
			</g>
			<path style="fill:#FFFFFF;stroke:#263238;stroke-linecap:round;stroke-linejoin:round;stroke-miterlimit:10;" d="M303.255,133.79
				l18.429,13.397l16.789-12.997l0.021-0.014c7.602-5.411,12.565-14.294,12.565-24.339c0-16.478-13.363-29.834-29.841-29.834
				c-16.478,0-29.834,13.356-29.834,29.834C291.384,119.729,295.849,128.358,303.255,133.79z"/>
			<g>
				<path style="fill:#92E3A9;stroke:#263238;stroke-linejoin:round;stroke-miterlimit:10;" d="M347.258,110.012
					c0,6.363-2.268,12.201-6.034,16.751c-4.816,5.803-12.082,9.499-20.216,9.499c-7.497,0-14.252-3.136-19.04-8.169
					c-4.473-4.711-7.21-11.081-7.21-18.081c0-14.497,11.746-26.25,26.25-26.25C335.505,83.762,347.258,95.515,347.258,110.012z"/>
				<path style="fill:#FFFFFF;stroke:#263238;stroke-linecap:round;stroke-linejoin:round;stroke-miterlimit:10;" d="
					M340.064,128.061l-18.882-4.909l-20.004,4.069c0.257,0.297,0.521,0.588,0.791,0.872c4.788,5.033,11.543,8.169,19.04,8.169
					C328.516,136.262,335.279,133.109,340.064,128.061z"/>
				<g>
					
						<path id="XMLID_19_" style="fill:#92E3A9;stroke:#263238;stroke-linecap:round;stroke-linejoin:round;stroke-miterlimit:10;" d="
						M317.806,121.85c0,0-2.409,1.205-4.271,3.395c-1.862,2.19-5.037,7.994-4.709,7.775c0.328-0.219,9.089-5.585,9.089-5.585
						L317.806,121.85z"/>
					
						<polygon id="XMLID_17_" style="fill:#92E3A9;stroke:#263238;stroke-linecap:round;stroke-linejoin:round;stroke-miterlimit:10;" points="
						325.143,120.755 318.244,128.311 320.215,135.21 328.319,124.916 					"/>
				</g>
				<g>
					<g>
						
							<path id="XMLID_16_" style="fill:#263238;stroke:#263238;stroke-linecap:round;stroke-linejoin:round;stroke-miterlimit:10;" d="
							M312.441,94.365c0,0-4.49,0.876-5.037-3.066c-0.548-3.942,5.585-9.527,14.345-9.527c8.76,0,15.659,7.337,15.331,14.455
							c-0.329,7.118-4.052,12.155-4.49,12.812c-0.438,0.657-4.052,2.628-5.585,2.847s-2.628-1.971-1.862-4.818
							s-1.643-3.614-0.657-6.242c0.985-2.628,2.3-2.628,2.738-3.504c0.438-0.876-4.38-2.738-8.76-2.519
							C314.083,95.021,312.441,94.365,312.441,94.365z"/>
					</g>
					
						<path id="XMLID_15_" style="fill:#FFFFFF;stroke:#263238;stroke-linecap:round;stroke-linejoin:round;stroke-miterlimit:10;" d="
						M317.259,117.579c0,0-0.028,0.154-0.075,0.425c-0.234,1.344-0.947,5.564-1.13,8.116c-0.219,3.066,1.971,2.957,2.847,2.081
						c0.876-0.876,5.475-5.475,6.242-7.446s2.519-7.884,2.519-7.884L317.259,117.579z"/>
					<g>
						
							<path id="XMLID_14_" style="fill:#FFFFFF;stroke:#263238;stroke-linecap:round;stroke-linejoin:round;stroke-miterlimit:10;" d="
							M312.441,94.365c0,0-1.533,8.541-2.081,13.031c-0.547,4.49-1.095,7.118,0.767,9.965c1.862,2.847,7.118,0.986,9.746-0.109
							c2.628-1.095,7.994-4.599,7.994-4.599s3.723,0.219,5.256-1.643c1.533-1.862-0.109-4.052-0.986-4.271
							c-0.876-0.219-2.847,0.548-3.504,1.314c-0.657,0.767-0.548,1.643-1.314,1.643s-1.862,0.219-1.643-0.548
							c0.219-0.767,1.862-3.285,1.424-4.928c-0.438-1.643-3.723-2.738-0.986-4.271c2.738-1.533,5.585-1.424,4.271-3.723
							c-1.314-2.3-8.103-4.709-12.374-3.833S312.441,94.365,312.441,94.365z"/>
						<path id="XMLID_13_" style="fill:none;stroke:#263238;stroke-linecap:round;stroke-linejoin:round;stroke-miterlimit:10;" d="
							M313.864,96.883c0,0,2.562-0.544,2.409,2.081c-0.06,1.037-4.599,5.804-3.942,6.899c0.657,1.095,1.752,1.752,1.752,1.752"/>
						<path id="XMLID_12_" style="fill:none;stroke:#263238;stroke-linecap:round;stroke-linejoin:round;stroke-miterlimit:10;" d="
							M319.339,99.621c0,0,2.735-2.084,4.599,0.986"/>
						<path id="XMLID_11_" style="fill:none;stroke:#263238;stroke-linecap:round;stroke-linejoin:round;stroke-miterlimit:10;" d="
							M312.988,110.79c0,0,0.657,1.643,3.285,1.424c2.628-0.219,3.395-0.767,3.395-0.767"/>
						<path id="XMLID_10_" style="fill:#263238;" d="M320.853,103.218c-0.154,0.722-0.589,1.242-0.971,1.16
							c-0.382-0.081-0.568-0.733-0.414-1.455c0.154-0.722,0.589-1.242,0.971-1.16C320.822,101.844,321.007,102.495,320.853,103.218z
							"/>
						<path id="XMLID_9_" style="fill:#263238;" d="M314.48,100.794c-0.139,0.699-0.551,1.206-0.921,1.133
							c-0.37-0.073-0.558-0.7-0.419-1.399c0.139-0.699,0.551-1.206,0.921-1.133C314.431,99.468,314.618,100.095,314.48,100.794z"/>
					</g>
				</g>
			</g>
		</g>
	</g>
</g>
<g id="Location_2">
	<g>
		<path style="fill:#263238;" d="M190.24,134.593c-9.443,0-17.884,4.359-23.424,11.168h-56.057c-8.693,0-15.764,7.072-15.764,15.764
			c0,8.693,7.072,15.764,15.764,15.764h52.022c2.18,4.779,5.592,8.988,9.989,12.117l16.789,12.997
			c0.063,0.049,0.139,0.073,0.214,0.073c0.072,0,0.144-0.022,0.206-0.067l18.429-13.397c0,0,0.001,0,0.001-0.001
			c7.635-5.6,12.014-14.434,12.014-24.235C220.423,148.133,206.883,134.593,190.24,134.593z"/>
		<g>
			<g>
				<path style="fill:#FFFFFF;stroke:#263238;stroke-linecap:round;stroke-linejoin:round;stroke-miterlimit:10;" d="
					M109.159,174.273h72.699v-30.829h-72.699c-8.513,0-15.414,6.901-15.414,15.415l0,0
					C93.745,167.372,100.646,174.273,109.159,174.273z"/>
				
					<line style="fill:#92E3A9;stroke:#263238;stroke-linejoin:round;stroke-miterlimit:10;" x1="107.516" y1="154.332" x2="146.501" y2="154.332"/>
				
					<line style="fill:#92E3A9;stroke:#263238;stroke-linejoin:round;stroke-miterlimit:10;" x1="107.516" y1="159.249" x2="146.501" y2="159.249"/>
				
					<line style="fill:#92E3A9;stroke:#263238;stroke-linejoin:round;stroke-miterlimit:10;" x1="107.516" y1="164.165" x2="146.501" y2="164.165"/>
			</g>
			<path style="fill:#FFFFFF;stroke:#263238;stroke-linecap:round;stroke-linejoin:round;stroke-miterlimit:10;" d="
				M206.602,186.063l-18.429,13.397l-16.789-12.997l-0.021-0.014c-7.602-5.411-12.565-14.294-12.565-24.339
				c0-16.478,13.363-29.834,29.841-29.834c16.478,0,29.834,13.356,29.834,29.834C218.474,172.001,214.008,180.631,206.602,186.063z"
				/>
			
				<ellipse transform="matrix(0.9873 -0.1589 0.1589 0.9873 -23.3609 32.0309)" style="fill:#92E3A9;stroke:#263238;stroke-linejoin:round;stroke-miterlimit:10;" cx="188.64" cy="162.113" rx="26.25" ry="26.25"/>
			<g>
				<path style="fill:#263238;stroke:#263238;stroke-linecap:round;stroke-linejoin:round;stroke-miterlimit:10;" d="
					M211.443,175.116c1.89-10.682-8.617-15.071-9.667-20.51c0,0,2.632-0.525,3.514-5.096c0.875-4.564-1.057-10.717-10.367-12.649
					c-9.31-1.932-20.209,5.978-21.966,13.181c-1.757,7.203,3.339,10.542,0.707,13.174c-0.35,0.35-0.882,0.658-1.533,0.952
					c-1.316,0.805-3.185,1.939-4.431,2.632c-2.1,1.162-3.269,12.6,7.7,14c10.962,1.4,13.531-2.1,19.6-2.8
					c3.822-0.441,10.143-0.049,14.301,0.301"/>
			</g>
			<path style="fill:#FFFFFF;stroke:#263238;stroke-linecap:round;stroke-linejoin:round;stroke-miterlimit:10;" d="
				M208.625,172.528c-3.689,0-8.258,2.635-9.839,2.635c-1.581,0-1.757-6.676-1.757-6.676l-8.257-1.757c0,0,0.878,6.501,0.527,9.136
				c-0.351,2.635-6.325,2.987-8.784,3.338c-2.46,0.351-3.865,1.933-4.568,5.622c-0.014,0.074-0.034,0.158-0.051,0.236
				c3.088,1.719,6.557,2.832,10.251,3.18c3.566-0.63,7.151-1.342,10.019-2.077c1.911-0.49,3.776-0.916,5.538-1.287
				c4.132-2.376,7.556-5.841,9.878-10.008C211.107,173.431,210.234,172.528,208.625,172.528z"/>
			<path style="fill:#92E3A9;stroke:#263238;stroke-linecap:round;stroke-linejoin:round;stroke-miterlimit:10;" d="
				M176.501,185.387c3.631,1.898,7.758,2.977,12.139,2.977c8.797,0,16.578-4.332,21.341-10.974
				c-4.383,0.559-4.778,2.869-7.329,2.869c-2.811,0-6.149-0.351-10.014,1.406c-3.865,1.757-4.392,2.46-9.839,2.46
				C180.149,184.123,178.01,184.747,176.501,185.387z"/>
			<path style="fill:#FFFFFF;stroke:#263238;stroke-linecap:round;stroke-linejoin:round;stroke-miterlimit:10;" d="
				M196.151,144.945c0,0,6.149,4.744,6.501,11.244c0.351,6.501-1.757,11.244-3.865,13.528c-2.108,2.284-4.919,1.406-7.73-0.527
				c-2.811-1.933-4.744-4.919-4.744-4.919s-1.054,0-2.284-1.054c-1.23-1.054-1.406-2.284-1.406-2.284s5.271-0.176,6.501-3.689
				c1.23-3.514,0.176-6.676,1.933-9.136C192.813,145.647,196.151,144.945,196.151,144.945z"/>
			<path style="fill:none;stroke:#263238;stroke-linecap:round;stroke-linejoin:round;stroke-miterlimit:10;" d="M194.57,153.905
				c0,0-2.987-1.406-4.217,1.23"/>
			<path style="fill:none;stroke:#263238;stroke-linecap:round;stroke-linejoin:round;stroke-miterlimit:10;" d="M198.084,153.026
				c0,0,2.108-1.581,2.811,0.176"/>
			<path style="fill:none;stroke:#263238;stroke-linecap:round;stroke-linejoin:round;stroke-miterlimit:10;" d="M197.205,166.379
				c0,0-1.406,0.351-2.46-0.527"/>
			<path style="fill:none;stroke:#263238;stroke-linecap:round;stroke-linejoin:round;stroke-miterlimit:10;" d="M198.259,154.432
				c0,0-0.703,3.162-0.527,5.271c0.176,2.108-0.527,2.635-1.581,2.284"/>
			<ellipse style="fill:#263238;" cx="192.691" cy="157.406" rx="0.634" ry="1.358"/>
			<ellipse style="fill:#263238;" cx="200.026" cy="156.681" rx="0.634" ry="1.358"/>
		</g>
	</g>
</g>
<g id="Location_1">
	<g>
		<path style="fill:#263238;" d="M189.353,307.427c-9.443,0-17.884,4.359-23.424,11.168h-56.057
			c-8.693,0-15.764,7.072-15.764,15.764c0,8.693,7.072,15.764,15.764,15.764h52.022c2.18,4.78,5.592,8.988,9.989,12.117
			l16.789,12.997c0.063,0.048,0.139,0.073,0.214,0.073c0.072,0,0.144-0.022,0.206-0.067l18.429-13.397c0,0,0.001,0,0.001-0.001
			c7.635-5.6,12.014-14.434,12.014-24.235C219.536,320.968,205.996,307.427,189.353,307.427z"/>
		<g>
			<g>
				<path style="fill:#FFFFFF;stroke:#263238;stroke-linecap:round;stroke-linejoin:round;stroke-miterlimit:10;" d="
					M108.553,347.421h72.699v-30.829h-72.699c-8.513,0-15.414,6.901-15.414,15.414l0,0
					C93.138,340.52,100.04,347.421,108.553,347.421z"/>
				
					<line style="fill:#92E3A9;stroke:#263238;stroke-linejoin:round;stroke-miterlimit:10;" x1="106.91" y1="327.48" x2="145.894" y2="327.48"/>
				
					<line style="fill:#92E3A9;stroke:#263238;stroke-linejoin:round;stroke-miterlimit:10;" x1="106.91" y1="332.397" x2="145.894" y2="332.397"/>
				
					<line style="fill:#92E3A9;stroke:#263238;stroke-linejoin:round;stroke-miterlimit:10;" x1="106.91" y1="337.314" x2="145.894" y2="337.314"/>
			</g>
			<path style="fill:#FFFFFF;stroke:#263238;stroke-linecap:round;stroke-linejoin:round;stroke-miterlimit:10;" d="
				M205.996,359.212l-18.429,13.397l-16.789-12.997l-0.021-0.014c-7.602-5.411-12.565-14.294-12.565-24.339
				c0-16.478,13.363-29.834,29.841-29.834c16.478,0,29.834,13.356,29.834,29.834C217.868,345.15,213.402,353.78,205.996,359.212z"/>
			<g>
				<path style="fill:#92E3A9;stroke:#263238;stroke-linejoin:round;stroke-miterlimit:10;" d="M161.841,335.063
					c0,6.363,2.268,12.201,6.034,16.751c4.816,5.803,12.082,9.499,20.216,9.499c7.497,0,14.252-3.136,19.04-8.169
					c4.473-4.711,7.21-11.081,7.21-18.081c0-14.497-11.746-26.25-26.25-26.25C173.594,308.813,161.841,320.566,161.841,335.063z"/>
				<g>
					<path style="fill:#92E3A9;stroke:#263238;stroke-linecap:round;stroke-linejoin:round;stroke-miterlimit:10;" d="
						M167.875,351.814c4.816,5.803,12.082,9.499,20.216,9.499c7.497,0,14.252-3.136,19.04-8.169l-12.642-2.821l-17.493-0.868
						L167.875,351.814z"/>
					<path style="fill:#FFFFFF;stroke:#263238;stroke-linecap:round;stroke-linejoin:round;stroke-miterlimit:10;" d="
						M180.578,343.083c1.143-4.191-0.19-10.669-0.19-10.669c2.858-2.858,11.431,11.05,11.431,11.05s-0.19,2.477,2.667,6.859
						c0.173,0.264,0.347,0.51,0.521,0.741c-1.767,2.84-5.517,8.205-8.333,7.642c-2.667-0.533-7.197-6.01-9.678-9.251
						C179.603,347.81,179.708,346.276,180.578,343.083z"/>
					<path style="fill:#FFFFFF;stroke:#263238;stroke-linecap:round;stroke-linejoin:round;stroke-miterlimit:10;" d="
						M177.634,326.895c0,0-1.334-0.191-1.524,2.286c-0.191,2.477,0.952,3.81,1.905,3.81c0.952,0,1.524,0,1.524,0
						s0.191,1.524,0.953,4.382c0.762,2.858,0.762,4.382,6.859,6.859c6.097,2.477,7.621,2.096,9.335-0.572
						c1.715-2.667,1.715-12.384,1.905-16.575c0.19-4.191,0.953-8.954,0.953-8.954s-1.524-1.715-4.382-3.048
						c-2.858-1.334-11.622,0.191-14.289,1.524c-2.667,1.334-1.715,8.192-1.715,8.192L177.634,326.895z"/>
					<path style="fill:none;stroke:#263238;stroke-linecap:round;stroke-linejoin:round;stroke-miterlimit:10;" d="M195.757,339.721
						c0,0-2.255,0.784-5.356-0.311"/>
					<path style="fill:#263238;" d="M195.733,329.372c0,0.631,0.256,1.143,0.572,1.143c0.316,0,0.572-0.512,0.572-1.143
						c0-0.631-0.256-1.143-0.572-1.143C195.989,328.229,195.733,328.741,195.733,329.372z"/>
					<path style="fill:#263238;" d="M190.208,330.134c0,0.631,0.256,1.143,0.572,1.143c0.316,0,0.572-0.512,0.572-1.143
						c0-0.631-0.256-1.143-0.572-1.143C190.464,328.991,190.208,329.503,190.208,330.134z"/>
					<path style="fill:none;stroke:#263238;stroke-linecap:round;stroke-linejoin:round;stroke-miterlimit:10;" d="M197.448,325.752
						c0,0-0.762-0.762-2.096-0.19"/>
					<path style="fill:none;stroke:#263238;stroke-linecap:round;stroke-linejoin:round;stroke-miterlimit:10;" d="M191.161,326.133
						c0,0-2.286-0.953-4.001,1.715"/>
					<polyline style="fill:none;stroke:#263238;stroke-linecap:round;stroke-linejoin:round;stroke-miterlimit:10;" points="
						194.255,328.376 194.971,336.04 191.352,336.421 					"/>
					<g>
						<path style="fill:#263238;stroke:#263238;stroke-linecap:round;stroke-linejoin:round;stroke-miterlimit:10;" d="
							M173.824,313.559c0.19-3.048,4.953-1.905,8.002-3.048c3.048-1.143,8.383-4.573,12.955-4.573s5.335,3.81,5.335,3.81
							l-0.191-3.048c0,0,3.048,1.715,2.858,4.954c-0.19,3.239-2.477,7.049-4.001,6.859c-1.524-0.191-14.479-0.762-15.241,1.143
							c-0.762,1.905,2.096,5.525,2.096,5.525c-0.191,1.905-3.048,1.524-3.239,2.286c-0.191,0.762,0,3.239,0.191,5.525
							c0.082,0.986-0.332,2.217-0.783,3.057c0.037,1.038,0.237,2.044,0.783,2.658c1.524,1.715,3.62,1.524,3.62,1.524
							s4.382-4.001,7.621-3.429c3.239,0.572,4.001,2.096,4.001,2.096l0.089,0.032c-0.086,0.677-0.186,1.314-0.301,1.906
							c-0.541-0.834-2.121-2.89-4.552-2.89c-3.048,0-6.287,3.62-6.287,3.62s3.239,2.096,4.953,2.096
							c1.715,0,1.334-2.096,2.477-1.905c1.143,0.191,0.762,1.334,1.334,1.334c0.418,0,1.241-0.41,1.803-1.077
							c-0.186,0.678-0.402,1.247-0.66,1.648c-1.715,2.667-3.239,3.048-9.335,0.572c-6.097-2.477-6.097-4.001-6.859-6.858
							c-0.077-0.288-0.144-0.553-0.21-0.814c0.207-1.632,0.63-3.117,0.905-3.968c0.049-2.31-0.245-4.547-0.886-5.316
							c-0.953-1.143-2.667-0.381-2.667-0.381S173.633,316.607,173.824,313.559z"/>
					</g>
				</g>
			</g>
		</g>
	</g>
</g>
</svg>
