<svg width="144" height="50" viewBox="0 0 144 50" fill="none" xmlns="http://www.w3.org/2000/svg">
<path d="M43.3551 40.2642C42.0653 40.2642 40.9545 39.9886 40.0227 39.4375C39.0966 38.8807 38.3807 38.0994 37.875 37.0938C37.375 36.0824 37.125 34.8977 37.125 33.5398C37.125 32.1989 37.375 31.017 37.875 29.9943C38.3807 28.9716 39.0852 28.1733 39.9886 27.5994C40.8977 27.0256 41.9602 26.7386 43.1761 26.7386C43.9148 26.7386 44.6307 26.8608 45.3239 27.1051C46.017 27.3494 46.6392 27.733 47.1903 28.2557C47.7415 28.7784 48.1761 29.4574 48.4943 30.2926C48.8125 31.1222 48.9716 32.1307 48.9716 33.3182V34.2216H38.5653V32.3125H46.4744C46.4744 31.642 46.3381 31.0483 46.0653 30.5312C45.7926 30.0085 45.4091 29.5966 44.9148 29.2955C44.4261 28.9943 43.8523 28.8438 43.1932 28.8438C42.4773 28.8438 41.8523 29.0199 41.3182 29.3722C40.7898 29.7187 40.3807 30.1733 40.0909 30.7358C39.8068 31.2926 39.6648 31.8977 39.6648 32.5511V34.0426C39.6648 34.9176 39.8182 35.6619 40.125 36.2756C40.4375 36.8892 40.8722 37.358 41.429 37.6818C41.9858 38 42.6364 38.1591 43.3807 38.1591C43.8636 38.1591 44.304 38.0909 44.7017 37.9545C45.0994 37.8125 45.4432 37.6023 45.733 37.3239C46.0227 37.0455 46.2443 36.7017 46.3977 36.2926L48.8097 36.7273C48.6165 37.4375 48.2699 38.0597 47.7699 38.5938C47.2756 39.1222 46.6534 39.5341 45.9034 39.8295C45.1591 40.1193 44.3097 40.2642 43.3551 40.2642ZM51.799 40V26.9091H54.3473V40H51.799ZM53.0859 24.8892C52.6428 24.8892 52.2621 24.7415 51.9439 24.446C51.6314 24.1449 51.4751 23.7869 51.4751 23.3722C51.4751 22.9517 51.6314 22.5937 51.9439 22.2983C52.2621 21.9972 52.6428 21.8466 53.0859 21.8466C53.5291 21.8466 53.907 21.9972 54.2195 22.2983C54.5376 22.5937 54.6967 22.9517 54.6967 23.3722C54.6967 23.7869 54.5376 24.1449 54.2195 24.446C53.907 24.7415 53.5291 24.8892 53.0859 24.8892ZM63.2642 45.1818C62.2244 45.1818 61.3295 45.0455 60.5795 44.7727C59.8352 44.5 59.2273 44.1392 58.7557 43.6903C58.2841 43.2415 57.9318 42.75 57.6989 42.2159L59.8892 41.3125C60.0426 41.5625 60.2472 41.8267 60.5028 42.1051C60.7642 42.3892 61.1165 42.6307 61.5597 42.8295C62.0085 43.0284 62.5852 43.1278 63.2898 43.1278C64.2557 43.1278 65.054 42.892 65.6847 42.4205C66.3153 41.9545 66.6307 41.2102 66.6307 40.1875V37.6136H66.4688C66.3153 37.892 66.0938 38.2017 65.804 38.5426C65.5199 38.8835 65.1278 39.179 64.6278 39.429C64.1278 39.679 63.4773 39.804 62.6761 39.804C61.642 39.804 60.7102 39.5625 59.8807 39.0795C59.0568 38.5909 58.4034 37.8722 57.9205 36.9233C57.4432 35.9687 57.2045 34.7955 57.2045 33.4034C57.2045 32.0114 57.4403 30.8182 57.9119 29.8239C58.3892 28.8295 59.0426 28.0682 59.8722 27.5398C60.7017 27.0057 61.642 26.7386 62.6932 26.7386C63.5057 26.7386 64.1619 26.875 64.6619 27.1477C65.1619 27.4148 65.5511 27.7273 65.8295 28.0852C66.1136 28.4432 66.3324 28.7585 66.4858 29.0312H66.6733V26.9091H69.1705V40.2898C69.1705 41.4148 68.9091 42.3381 68.3864 43.0597C67.8636 43.7813 67.1563 44.3153 66.2642 44.6619C65.3778 45.0085 64.3778 45.1818 63.2642 45.1818ZM63.2386 37.6903C63.9716 37.6903 64.5909 37.5199 65.0966 37.179C65.608 36.8324 65.9943 36.3381 66.2557 35.696C66.5227 35.0483 66.6562 34.2727 66.6562 33.3693C66.6562 32.4886 66.5256 31.7131 66.2642 31.0426C66.0028 30.3722 65.6193 29.8494 65.1136 29.4744C64.608 29.0937 63.983 28.9034 63.2386 28.9034C62.4716 28.9034 61.8324 29.1023 61.321 29.5C60.8097 29.892 60.4233 30.4261 60.1619 31.1023C59.9063 31.7784 59.7784 32.5341 59.7784 33.3693C59.7784 34.2273 59.9091 34.9801 60.1705 35.6278C60.4318 36.2756 60.8182 36.7812 61.3295 37.1449C61.8466 37.5085 62.483 37.6903 63.2386 37.6903ZM75.1364 32.2273V40H72.5881V22.5455H75.1023V29.0398H75.2642C75.571 28.3352 76.0398 27.7756 76.6705 27.3608C77.3011 26.946 78.125 26.7386 79.142 26.7386C80.0398 26.7386 80.8239 26.9233 81.4943 27.2926C82.1705 27.6619 82.6932 28.2131 83.0625 28.946C83.4375 29.6733 83.625 30.5824 83.625 31.6733V40H81.0767V31.9801C81.0767 31.0199 80.8295 30.2756 80.3352 29.7472C79.8409 29.2131 79.1534 28.946 78.2727 28.946C77.6705 28.946 77.1307 29.0739 76.6534 29.3295C76.1818 29.5852 75.8097 29.9602 75.5369 30.4545C75.2699 30.9432 75.1364 31.5341 75.1364 32.2273ZM87.2301 40V22.5455H89.7784V29.0312H89.9318C90.0795 28.7585 90.2926 28.4432 90.571 28.0852C90.8494 27.7273 91.2358 27.4148 91.7301 27.1477C92.2244 26.875 92.8778 26.7386 93.6903 26.7386C94.7472 26.7386 95.6903 27.0057 96.5199 27.5398C97.3494 28.0739 98 28.8437 98.4716 29.8494C98.9489 30.8551 99.1875 32.0653 99.1875 33.4801C99.1875 34.8949 98.9517 36.108 98.4801 37.1193C98.0085 38.125 97.3608 38.9006 96.5369 39.446C95.7131 39.9858 94.7727 40.2557 93.7159 40.2557C92.9205 40.2557 92.2699 40.1222 91.7642 39.8551C91.2642 39.5881 90.8722 39.2756 90.5881 38.9176C90.304 38.5597 90.0852 38.2415 89.9318 37.9631H89.7188V40H87.2301ZM89.7273 33.4545C89.7273 34.375 89.8608 35.1818 90.1278 35.875C90.3949 36.5682 90.7813 37.1108 91.2869 37.5028C91.7926 37.8892 92.4119 38.0824 93.1449 38.0824C93.9062 38.0824 94.5426 37.8807 95.054 37.4773C95.5653 37.0682 95.9517 36.5142 96.2131 35.8153C96.4801 35.1165 96.6136 34.3295 96.6136 33.4545C96.6136 32.5909 96.483 31.8153 96.2216 31.1278C95.9659 30.4403 95.5795 29.8977 95.0625 29.5C94.5511 29.1023 93.9119 28.9034 93.1449 28.9034C92.4062 28.9034 91.7812 29.0937 91.2699 29.4744C90.7642 29.8551 90.3807 30.3864 90.1193 31.0682C89.858 31.75 89.7273 32.5455 89.7273 33.4545ZM107.563 40.2642C106.336 40.2642 105.265 39.983 104.35 39.4205C103.435 38.858 102.725 38.071 102.219 37.0597C101.714 36.0483 101.461 34.8665 101.461 33.5142C101.461 32.1562 101.714 30.9687 102.219 29.9517C102.725 28.9347 103.435 28.1449 104.35 27.5824C105.265 27.0199 106.336 26.7386 107.563 26.7386C108.79 26.7386 109.862 27.0199 110.776 27.5824C111.691 28.1449 112.401 28.9347 112.907 29.9517C113.413 30.9687 113.665 32.1562 113.665 33.5142C113.665 34.8665 113.413 36.0483 112.907 37.0597C112.401 38.071 111.691 38.858 110.776 39.4205C109.862 39.983 108.79 40.2642 107.563 40.2642ZM107.572 38.125C108.367 38.125 109.026 37.9148 109.549 37.4943C110.072 37.0739 110.458 36.5142 110.708 35.8153C110.964 35.1165 111.092 34.3466 111.092 33.5057C111.092 32.6705 110.964 31.9034 110.708 31.2045C110.458 30.5 110.072 29.9347 109.549 29.5085C109.026 29.0824 108.367 28.8693 107.572 28.8693C106.771 28.8693 106.106 29.0824 105.577 29.5085C105.055 29.9347 104.665 30.5 104.41 31.2045C104.16 31.9034 104.035 32.6705 104.035 33.5057C104.035 34.3466 104.16 35.1165 104.41 35.8153C104.665 36.5142 105.055 37.0739 105.577 37.4943C106.106 37.9148 106.771 38.125 107.572 38.125ZM116.51 40V26.9091H118.973V28.9886H119.109C119.348 28.2841 119.768 27.7301 120.371 27.3267C120.979 26.9176 121.666 26.7131 122.433 26.7131C122.592 26.7131 122.78 26.7187 122.996 26.7301C123.217 26.7415 123.391 26.7557 123.516 26.7727V29.2102C123.413 29.1818 123.232 29.1506 122.97 29.1165C122.709 29.0767 122.447 29.0568 122.186 29.0568C121.584 29.0568 121.047 29.1847 120.575 29.4403C120.109 29.6903 119.74 30.0398 119.467 30.4886C119.195 30.9318 119.058 31.4375 119.058 32.0057V40H116.51ZM128.269 22.5455V40H125.721V22.5455H128.269ZM133.308 44.9091C132.928 44.9091 132.581 44.8778 132.268 44.8153C131.956 44.7585 131.723 44.696 131.57 44.6278L132.183 42.5398C132.649 42.6648 133.064 42.7188 133.428 42.7017C133.791 42.6847 134.112 42.5483 134.391 42.2926C134.675 42.0369 134.925 41.6193 135.141 41.0398L135.456 40.1705L130.666 26.9091H133.393L136.709 37.0682H136.845L140.161 26.9091H142.896L137.501 41.7472C137.251 42.429 136.933 43.0057 136.547 43.4773C136.161 43.9545 135.7 44.3125 135.166 44.5511C134.632 44.7898 134.013 44.9091 133.308 44.9091Z" fill="#282C2B"/>
<path d="M7.28696 46C2.57005 32.8062 3.25188 25.4093 7.28696 12.2154L23.3294 42.2154C27.0787 36.5231 35.1307 19.6923 20.84 4" stroke="#282C2B" stroke-width="6.91358" stroke-linecap="round" stroke-linejoin="round"/>
</svg>
